<svg id="Group_8" data-name="Group 8" xmlns="http://www.w3.org/2000/svg" xmlns:xlink="http://www.w3.org/1999/xlink" width="320.656" height="211.734" viewBox="0 0 320.656 211.734">
  <defs>
    <clipPath id="clip-path">
      <rect id="Rectangle_2" data-name="Rectangle 2" width="320.656" height="211.734" fill="none"/>
    </clipPath>
  </defs>
  <g id="Group_7" data-name="Group 7" clip-path="url(#clip-path)">
    <path id="Path_46" data-name="Path 46" d="M105.2,101.3a9.8,9.8,0,0,0,3.844-.769,9.658,9.658,0,0,0,3.254-2.187,11,11,0,0,0,2.24-3.426,10.826,10.826,0,0,0,.849-4.335,10.127,10.127,0,0,0-3.087-7.454,9.909,9.909,0,0,0-3.256-2.04,10.508,10.508,0,0,0-3.844-.718H92.907a.9.9,0,0,0-1.007.766.872.872,0,0,0,0,.255V100.29a.9.9,0,0,0,.758,1.013.928.928,0,0,0,.247,0Zm14.689,39.3a3.922,3.922,0,0,1-3.7-2.764L104.4,111.923a2.113,2.113,0,0,0-2.1-1.436H92.808a.9.9,0,0,0-1.007.766.871.871,0,0,0,0,.255v26.035a3.014,3.014,0,0,1-.8,2.235,2.916,2.916,0,0,1-2.2.828h-3.5a2.905,2.905,0,0,1-2.195-.828,3.033,3.033,0,0,1-.808-2.235V74.252a3.057,3.057,0,0,1,.808-2.241,2.921,2.921,0,0,1,2.195-.815h20.48a19.156,19.156,0,0,1,7.5,1.472,18.549,18.549,0,0,1,6.046,4.082,19.092,19.092,0,0,1,4,6.175,20.287,20.287,0,0,1,1.436,7.656,19.562,19.562,0,0,1-2.718,10.315,18.837,18.837,0,0,1-6.863,6.835c-1.074.616-1.305,1.6-.7,2.963l11.991,26.23a2.805,2.805,0,0,1,.1,2.605,2.188,2.188,0,0,1-2.1,1.075Z" fill="#ff7124"/>
    <path id="Path_47" data-name="Path 47" d="M172.953,140.608a2.9,2.9,0,0,1-2.194-.829,3.032,3.032,0,0,1-.809-2.233V81.4a.892.892,0,0,0-.748-1.017.874.874,0,0,0-.245,0H153.974a2.975,2.975,0,0,1-2.207-.808,3.08,3.08,0,0,1-.795-2.25V74.255a3.1,3.1,0,0,1,.795-2.248,2.975,2.975,0,0,1,2.207-.808h41.47a2.922,2.922,0,0,1,2.182.808,3.09,3.09,0,0,1,.815,2.248v3.063a3.063,3.063,0,0,1-.815,2.247,2.923,2.923,0,0,1-2.182.809h-15a.893.893,0,0,0-1,.775.882.882,0,0,0,0,.246v56.149a3.114,3.114,0,0,1-.789,2.234,2.968,2.968,0,0,1-2.207.829Z" fill="#ff7124"/>
    <path id="Path_48" data-name="Path 48" d="M230.633,140.608a2.869,2.869,0,0,1-2.187-.829,3.014,3.014,0,0,1-.8-2.234V74.255a3.05,3.05,0,0,1,.8-2.248,2.913,2.913,0,0,1,2.187-.808h3.507a2.968,2.968,0,0,1,2.2.808,3.162,3.162,0,0,1,.789,2.248v63.291a3.115,3.115,0,0,1-.789,2.235,2.925,2.925,0,0,1-2.2.828Z" fill="#ff7124"/>
    <path id="Path_49" data-name="Path 49" d="M314.658,140.608a3.311,3.311,0,0,1-2.247-.763,10.391,10.391,0,0,1-1.757-2.3l-25.38-45.425c-.332-.544-.689-.755-1.047-.616a.967.967,0,0,0-.557,1.017v45.022a3.114,3.114,0,0,1-.79,2.233,2.926,2.926,0,0,1-2.2.829h-3.493a2.907,2.907,0,0,1-2.2-.829,3.032,3.032,0,0,1-.8-2.234V74.255a3.077,3.077,0,0,1,.8-2.248,2.946,2.946,0,0,1,2.2-.808h3.892a5.071,5.071,0,0,1,2.5.557,5,5,0,0,1,1.8,1.986l24.283,43.176a.874.874,0,0,0,.948.51c.37-.061.557-.371.557-.915V74.255a3.072,3.072,0,0,1,.793-2.248,2.942,2.942,0,0,1,2.194-.808h3.507a3,3,0,0,1,2.2.808,3.133,3.133,0,0,1,.789,2.248v63.291a3.086,3.086,0,0,1-.789,2.235,2.959,2.959,0,0,1-2.2.828Z" fill="#ff7124"/>
    <path id="Path_50" data-name="Path 50" d="M37.244,111.878c.212.816-.1,1.227-.922,1.227H19.691c-.821,0-1.127-.411-.922-1.227l8.213-27.82c.2-.755.55-1.127,1.021-1.127s.821.37,1.027,1.127ZM53.669,140.82q2.973,0,2.154-2.863L35.295,73.789a3.95,3.95,0,0,0-1.379-2.207,4.274,4.274,0,0,0-2.313-.563h-7.18a4.234,4.234,0,0,0-2.314.563,3.925,3.925,0,0,0-1.4,2.207L.178,137.955c-.55,1.909.173,2.864,2.154,2.864H7.358a3.244,3.244,0,0,0,3.487-2.453l4.531-14.994a1.366,1.366,0,0,1,1.444-1.027H39.192a1.367,1.367,0,0,1,1.445,1.027l4.515,14.994a3.247,3.247,0,0,0,3.487,2.453Z" fill="#ff7124"/>
    <path id="Path_51" data-name="Path 51" d="M236.387.834A2.934,2.934,0,0,0,234.16,0h-3.547a2.958,2.958,0,0,0-2.228.829,3.123,3.123,0,0,0-.808,2.273V38.691a3.109,3.109,0,0,0,.8,2.267,2.968,2.968,0,0,0,2.227.836h3.553a2.95,2.95,0,0,0,2.227-.836,3.084,3.084,0,0,0,.808-2.267V3.107a3.068,3.068,0,0,0-.808-2.273" fill="#ff7124"/>
    <path id="Path_52" data-name="Path 52" d="M236.387,170.776a2.927,2.927,0,0,0-2.227-.821h-3.547a2.951,2.951,0,0,0-2.228.821,3.142,3.142,0,0,0-.808,2.273v35.584a3.109,3.109,0,0,0,.8,2.267,2.964,2.964,0,0,0,2.227.829h3.553a2.943,2.943,0,0,0,2.227-.829,3.084,3.084,0,0,0,.808-2.267V173.051a3.077,3.077,0,0,0-.808-2.275" fill="#ff7124"/>
  </g>
</svg>
