<?xml version="1.0" encoding="utf-8"?>
<!-- Generator: Adobe Illustrator 23.0.1, SVG Export Plug-In . SVG Version: 6.00 Build 0)  -->
<svg version="1.1" id="Vrstva_1" xmlns="http://www.w3.org/2000/svg" xmlns:xlink="http://www.w3.org/1999/xlink" x="0px" y="0px"
	 viewBox="0 0 168 26" enable-background="new 0 0 168 26" xml:space="preserve">
<path fill-rule="evenodd" clip-rule="evenodd" fill="#33012A" d="M45.8,16.9c0.7,0.8,1.7,1.2,2.8,1.2s2.1-0.4,2.8-1.2
	c0.8-0.8,1.1-1.8,1.1-3.1c0-1.2-0.4-2.3-1.1-3.1c-0.8-0.8-1.7-1.2-2.8-1.2s-2.1,0.4-2.8,1.2c-0.7,0.8-1.1,1.8-1.1,3.1
	C44.7,15.1,45.1,16.1,45.8,16.9L45.8,16.9z M52.6,6.3h3.7v15.1h-3.7v-1.8c-1.1,1.5-2.7,2.2-4.7,2.2c-1.9,0-3.5-0.8-4.9-2.3
	c-1.4-1.5-2-3.4-2-5.6s0.7-4.1,2-5.6c1.4-1.5,3-2.3,4.9-2.3c2,0,3.6,0.7,4.7,2.2V6.3z M67.1,10.1h-3.2v6.3c0,0.5,0.1,0.9,0.4,1.1
	c0.2,0.2,0.6,0.4,1.1,0.4c0.5,0,1.1,0,1.8,0v3.5c-2.5,0.3-4.3,0-5.4-0.8c-1-0.8-1.6-2.2-1.6-4.3v-6.3h-2.5V6.3h2.5v-3l3.7-1.2v4.2
	h3.2V10.1z M72.6,16.9c0.7,0.8,1.7,1.2,2.8,1.2s2.1-0.4,2.8-1.2c0.8-0.8,1.1-1.8,1.1-3.1c0-1.2-0.4-2.3-1.1-3.1
	c-0.8-0.8-1.7-1.2-2.8-1.2s-2.1,0.4-2.8,1.2c-0.7,0.8-1.1,1.8-1.1,3.1C71.5,15.1,71.9,16.1,72.6,16.9L72.6,16.9z M79.5,6.3h3.7v15.1
	h-3.7v-1.8c-1.1,1.5-2.7,2.2-4.7,2.2c-1.9,0-3.5-0.8-4.9-2.3c-1.4-1.5-2-3.4-2-5.6s0.7-4.1,2-5.6c1.4-1.5,3-2.3,4.9-2.3
	c2,0,3.6,0.7,4.7,2.2V6.3z M92,21.8c-2.2,0-4-0.8-5.4-2.3c-1.4-1.5-2.2-3.4-2.2-5.7c0-2.2,0.7-4.1,2.2-5.7C88,6.7,89.8,5.9,92,5.9
	c1.4,0,2.7,0.4,3.8,1.1c1.1,0.7,2,1.6,2.6,2.8l-3.2,2c-0.3-0.6-0.7-1.1-1.3-1.5c-0.6-0.4-1.2-0.5-2-0.5c-1.1,0-2,0.4-2.7,1.2
	c-0.7,0.8-1.1,1.8-1.1,3c0,1.2,0.4,2.2,1.1,2.9c0.7,0.8,1.6,1.2,2.7,1.2c0.7,0,1.4-0.2,2-0.5c0.6-0.4,1-0.8,1.3-1.5l3.2,1.9
	c-0.6,1.2-1.5,2.1-2.7,2.8C94.7,21.4,93.4,21.8,92,21.8 M106.4,21.8c-2.2,0-4-0.8-5.4-2.3c-1.4-1.5-2.2-3.4-2.2-5.7
	c0-2.2,0.7-4.1,2.2-5.7c1.4-1.5,3.2-2.3,5.4-2.3c1.4,0,2.7,0.4,3.8,1.1c1.1,0.7,2,1.6,2.6,2.8l-3.2,2c-0.3-0.6-0.7-1.1-1.3-1.5
	c-0.6-0.4-1.2-0.5-2-0.5c-1.1,0-2,0.4-2.7,1.2c-0.7,0.8-1.1,1.8-1.1,3c0,1.2,0.4,2.2,1.1,2.9c0.7,0.8,1.6,1.2,2.7,1.2
	c0.7,0,1.4-0.2,2-0.5c0.6-0.4,1-0.8,1.3-1.5l3.2,1.9c-0.6,1.2-1.5,2.1-2.7,2.8C109.1,21.4,107.8,21.8,106.4,21.8 M118.2,16.9
	c0.7,0.8,1.7,1.2,2.8,1.2c1.1,0,2.1-0.4,2.8-1.2c0.8-0.8,1.1-1.8,1.1-3.1c0-1.2-0.4-2.3-1.1-3.1c-0.8-0.8-1.7-1.2-2.8-1.2
	c-1.1,0-2.1,0.4-2.8,1.2c-0.7,0.8-1.1,1.8-1.1,3.1C117.1,15.1,117.4,16.1,118.2,16.9L118.2,16.9z M125,6.3h3.7v15.1H125v-1.8
	c-1.1,1.5-2.7,2.2-4.7,2.2c-1.9,0-3.5-0.8-4.9-2.3c-1.4-1.5-2-3.4-2-5.6s0.7-4.1,2-5.6c1.4-1.5,3-2.3,4.9-2.3c2,0,3.6,0.7,4.7,2.2
	V6.3z M146.1,5.9c1.6,0,2.9,0.6,3.9,1.7c1,1.1,1.5,2.6,1.5,4.5v9.3h-3.7v-9c0-0.9-0.2-1.6-0.6-2.1c-0.4-0.5-1-0.8-1.8-0.8
	c-0.8,0-1.5,0.3-2,0.9c-0.5,0.6-0.7,1.4-0.7,2.5v8.5h-3.7v-9c0-0.9-0.2-1.6-0.6-2.1c-0.4-0.5-1-0.8-1.8-0.8c-0.8,0-1.5,0.3-2,0.9
	c-0.5,0.6-0.7,1.4-0.7,2.5v8.5h-3.7V6.3h3.7v1.6c0.9-1.3,2.2-2,4-2c1.8,0,3.1,0.7,3.9,2.2C142.8,6.6,144.2,5.9,146.1,5.9
	 M157.5,16.9c0.7,0.8,1.7,1.2,2.8,1.2c1.1,0,2.1-0.4,2.8-1.2c0.8-0.8,1.1-1.8,1.1-3.1c0-1.2-0.4-2.3-1.1-3.1
	c-0.8-0.8-1.7-1.2-2.8-1.2c-1.1,0-2.1,0.4-2.8,1.2c-0.7,0.8-1.1,1.8-1.1,3.1C156.4,15.1,156.8,16.1,157.5,16.9L157.5,16.9z
	 M164.3,6.3h3.7v15.1h-3.7v-1.8c-1.1,1.5-2.7,2.2-4.7,2.2c-1.9,0-3.5-0.8-4.9-2.3c-1.4-1.5-2-3.4-2-5.6s0.7-4.1,2-5.6
	c1.4-1.5,3-2.3,4.9-2.3c2,0,3.6,0.7,4.7,2.2V6.3z"/>
<defs>
	<filter id="Adobe_OpacityMaskFilter" filterUnits="userSpaceOnUse" x="0" y="0.1" width="24.9" height="25.9">
		<feColorMatrix  type="matrix" values="1 0 0 0 0  0 1 0 0 0  0 0 1 0 0  0 0 0 1 0"/>
	</filter>
</defs>
<mask maskUnits="userSpaceOnUse" x="0" y="0.1" width="24.9" height="25.9" id="logo-full-horizontal-c_1_">
	<g filter="url(#Adobe_OpacityMaskFilter)">
		<path id="logo-full-horizontal-a_1_" fill-rule="evenodd" clip-rule="evenodd" fill="#FFFFFF" d="M3.6,3.9C1.2,6.3,0,9.4,0,13.1
			l0,0c0,3.6,1.2,6.7,3.6,9.2l0,0C6,24.8,9,26,12.4,26l0,0c3.5,0,6.4-1.2,8.8-3.7l0,0c2.4-2.5,3.6-5.6,3.6-9.2l0,0
			c0-3.6-1.2-6.7-3.6-9.2l0,0c-2.4-2.5-5.3-3.7-8.8-3.7l0,0C9,0.1,6,1.4,3.6,3.9 M7.5,18.4c-1.3-1.4-2-3.2-2-5.3l0,0
			c0-2.2,0.7-4,2-5.3l0,0c1.3-1.4,3-2.1,5-2.1l0,0c2,0,3.6,0.7,5,2.1l0,0c1.3,1.4,2,3.2,2,5.3l0,0c0,2.2-0.7,4-2,5.3l0,0
			c-1.3,1.4-3,2.1-5,2.1l0,0C10.4,20.5,8.8,19.8,7.5,18.4"/>
	</g>
</mask>
<linearGradient id="SVGID_1_" gradientUnits="userSpaceOnUse" x1="-75.7362" y1="90.6407" x2="-74.6641" y2="89.7882" gradientTransform="matrix(24.85 0 0 -24.85 1884.4589 2257.5198)">
	<stop  offset="0" style="stop-color:#6451A0"/>
	<stop  offset="1" style="stop-color:#D4006D"/>
</linearGradient>
<path mask="url(#logo-full-horizontal-c_1_)" fill-rule="evenodd" clip-rule="evenodd" fill="url(#SVGID_1_)" d="M3.6,3.9
	C1.2,6.3,0,9.4,0,13.1l0,0c0,3.6,1.2,6.7,3.6,9.2l0,0C6,24.8,9,26,12.4,26l0,0c3.5,0,6.4-1.2,8.8-3.7l0,0c2.4-2.5,3.6-5.6,3.6-9.2
	l0,0c0-3.6-1.2-6.7-3.6-9.2l0,0c-2.4-2.5-5.3-3.7-8.8-3.7l0,0C9,0.1,6,1.4,3.6,3.9 M7.5,18.4c-1.3-1.4-2-3.2-2-5.3l0,0
	c0-2.2,0.7-4,2-5.3l0,0c1.3-1.4,3-2.1,5-2.1l0,0c2,0,3.6,0.7,5,2.1l0,0c1.3,1.4,2,3.2,2,5.3l0,0c0,2.2-0.7,4-2,5.3l0,0
	c-1.3,1.4-3,2.1-5,2.1l0,0C10.4,20.5,8.8,19.8,7.5,18.4"/>
<linearGradient id="SVGID_2_" gradientUnits="userSpaceOnUse" x1="-65.5697" y1="90.8723" x2="-65.2604" y2="89.9729" gradientTransform="matrix(6 0 0 -24 419.0578 2177.9138)">
	<stop  offset="0" style="stop-color:#6451A0"/>
	<stop  offset="1" style="stop-color:#D4006D"/>
</linearGradient>
<polygon fill-rule="evenodd" clip-rule="evenodd" fill="url(#SVGID_2_)" points="24,25 30,25 30,0 24,0 "/>
</svg>
