<?xml version="1.0" encoding="utf-8"?>
<!-- Generator: Adobe Illustrator 23.0.1, SVG Export Plug-In . SVG Version: 6.00 Build 0)  -->
<svg version="1.1" id="Vrstva_1" xmlns="http://www.w3.org/2000/svg" xmlns:xlink="http://www.w3.org/1999/xlink" x="0px" y="0px"
	 viewBox="0 0 226 52" enable-background="new 0 0 226 52" xml:space="preserve">
<path fill="#E7007E" d="M0,0h226v52H0V0z"/>
<path fill="#FFFFFF" d="M19.9,16.2h10.2c3.6,0,6.1,2.1,6.1,5c0,1.9-1.1,3.6-2.8,4.4c2.1,0.8,3.6,2.8,3.6,5.1c0,3.2-2.7,5.4-6.6,5.4
	H19.9V16.2z M29,24.2c1.6,0,2.7-0.9,2.7-2.2c0-1.3-1.1-2.2-2.7-2.2h-4.8v4.4H29z M29.7,32.5c1.7,0,3-1,3-2.4c0-1.5-1.2-2.4-3-2.4
	h-5.5v4.9H29.7z M50.2,31.4l2.7,2.8c-1.7,1.5-3.9,2.3-6.2,2.3c-4.3,0.1-7.9-3.2-8-7.5c0-0.1,0-0.3,0-0.4c-0.1-4.2,3.2-7.6,7.4-7.8
	c0.1,0,0.2,0,0.3,0c4.7,0,7.5,3.6,7.5,9.2H43.2c0.4,1.6,1.9,2.8,3.6,2.7C48,32.7,49.3,32.2,50.2,31.4z M43.2,27H50
	c-0.3-1.5-1.7-2.5-3.2-2.4C45.2,24.5,43.7,25.5,43.2,27L43.2,27z M70.9,26.6v9.5h-4.1v-8.6c0.2-1.6-1-3-2.6-3.1c-0.1,0-0.2,0-0.3,0
	c-1.6-0.1-3,1.2-3.1,2.8c0,0,0,0,0,0.1v-0.1v9h-4.3v-15h4.3V23c1.1-1.4,2.8-2.3,4.6-2.2c3-0.1,5.5,2.3,5.6,5.4
	C70.9,26.3,70.9,26.4,70.9,26.6z M84.4,31.4l2.7,2.8c-1.7,1.5-3.9,2.3-6.2,2.3c-4.3,0.1-7.9-3.3-8-7.5c0-0.1,0-0.3,0-0.4
	c-0.1-4.2,3.2-7.6,7.4-7.8c0.1,0,0.2,0,0.3,0c4.7,0,7.5,3.6,7.5,9.2H77.3c0.4,1.6,1.9,2.8,3.6,2.7C82.2,32.7,83.4,32.2,84.4,31.4z
	 M77.4,27h6.7c-0.3-1.5-1.7-2.5-3.2-2.4C79.3,24.5,77.9,25.5,77.4,27L77.4,27z M89.2,34.2l1.8-3c1.5,1.1,3.2,1.7,5.1,1.7
	c1.1,0,2-0.5,2-1.1c0-0.9-1.1-1.2-2.7-1.6c-3.1-0.8-5.5-1.6-5.5-4.6c0-3,2.3-4.8,5.9-4.8c2.1,0,4.2,0.7,6,1.9l-1.7,3
	c-1.3-0.8-2.7-1.3-4.2-1.3c-1.1,0-1.8,0.4-1.8,0.9c0,0.8,0.6,1,2.7,1.6c2.6,0.7,5.5,1.5,5.5,4.8c0,3-2.4,4.8-6.1,4.8
	C93.6,36.5,91.2,35.7,89.2,34.2z M91,15.2h2.6l2.2,2.2l2.2-2.2h2.7l-3.1,4.3H94L91,15.2z M137.8,16.2h4.3l6.2,11.3l6.2-11.3h4.3
	v19.9h-4.3V23.8L148.4,35l-6.2-11.2v12.4h-4.3V16.2z M161.9,16.7c0-1.3,1.1-2.3,2.3-2.3c1.3,0,2.3,1.1,2.3,2.3c0,1.2-1,2.3-2.3,2.3
	C163,19.1,161.9,18,161.9,16.7C161.9,16.8,161.9,16.7,161.9,16.7z M162.1,21.1h4.3v15h-4.3L162.1,21.1z M168.5,28.6
	c0.2-4.4,3.8-7.9,8.3-7.8c2.3,0,4.4,0.9,6,2.5l-2.9,2.4c-0.8-0.9-1.9-1.4-3.1-1.4c-2.3,0.1-4.1,2-4.1,4.2c0,2.3,1.8,4.2,4.1,4.3
	c1.2,0,2.4-0.6,3.2-1.4l2.8,2.4c-1.5,1.7-3.7,2.7-6,2.6C172.3,36.5,168.7,33,168.5,28.6L168.5,28.6z M199,26.6v9.5h-4.1v-8.6
	c0.2-1.6-1-3-2.6-3.1c-0.1,0-0.2,0-0.3,0c-1.6-0.1-3.1,1.2-3.1,2.8c0,0,0,0.1,0,0.1v8.9h-4.3V15.8h4.3V23c1.9-2.5,5.5-2.9,7.9-1
	C198.2,23.1,199,24.8,199,26.6z M201.8,15.8h4.3v20.3h-4.3V15.8z M127.9,28.3l-2.5-2.6c-0.5,1.3-1.2,2.5-2,3.6
	c-1.2-1.3-2.2-2.4-3.1-3.4c3.2-1.4,4.6-2.7,4.6-4.9c0-2.9-2.4-5-5.7-5c-2.9-0.1-5.4,2.2-5.6,5.1c0,1.5,0.5,2.9,1.4,4.1
	c-3.1,1.4-4.4,3-4.4,5.6c0,3.6,2.9,5.8,6.7,5.8c2.1,0,4.2-0.7,5.8-2.1l1.7,1.7h5.1l-4.2-4.4C126.5,30.6,127.2,29.5,127.9,28.3z
	 M119.3,19c1.1,0,1.9,0.8,1.9,1.9c0,0,0,0.1,0,0.1c0,1.3-0.8,1.9-2.7,2.7c-0.7-0.7-1.2-1.7-1.3-2.7c0-1.1,0.9-2,2-2
	C119.2,19,119.3,19,119.3,19z M117.9,33.3c-1.6,0.1-2.9-1.1-3-2.7c0-0.1,0-0.1,0-0.2c0.1-1.3,0.8-2.4,2-2.9c1,1.2,2.3,2.7,4.1,4.5
	C120.2,32.8,119.1,33.2,117.9,33.3z"/>
</svg>
