<svg id="cdn77.ece79b85" xmlns="http://www.w3.org/2000/svg" width="404.883" height="118.64" viewBox="0 0 404.883 118.64">
  <path id="Path_173" data-name="Path 173" d="M130.382,60.041c0-17.108,13.122-28.652,30.479-28.652,14.535,0,21.842,8.471,25.165,16.113l-14.451,6.727a11.747,11.747,0,0,0-10.714-8.056c-8.056,0-13.453,6.144-13.453,13.87s5.4,13.87,13.453,13.87a11.749,11.749,0,0,0,10.714-8.058L186.026,72.5c-3.239,7.391-10.631,16.194-25.165,16.194-17.357,0-30.477-11.627-30.477-28.652Zm98.991-.082c0-7.475-4.319-13.04-13.287-13.04H208.03V73.081H216c8.389,0,13.371-6.146,13.371-13.122ZM191.254,87.7V32.3H216c17.441,0,30.4,9.966,30.4,27.656S233.443,87.7,216.086,87.7H191.254Zm98.327,0L269.153,59.624V87.7H252.377V32.3h17.273L288.92,58.548V32.3h16.774V87.7H289.582Zm30.559,0,17.525-40.78H311.67V32.305h45.259V43.932L338.494,87.7H320.139Zm47.953,0,17.525-40.78H359.623V32.305h45.259V43.932L386.447,87.7H368.092ZM50.537,0A50.692,50.692,0,0,0,0,50.844c0,28.083,50.537,67.8,50.537,67.8s50.539-39.711,50.539-67.794A50.7,50.7,0,0,0,50.537,0" fill="#04151f"/>
  <path id="Path_174" data-name="Path 174" d="M41.4,9.753A31,31,0,1,0,72.213,40.747,30.9,30.9,0,0,0,41.4,9.753" transform="translate(9.133 8.405)" fill="#ffe115"/>
  <path id="Path_175" data-name="Path 175" d="M33.576,18.89a13.983,13.983,0,1,0,13.9,13.984,13.942,13.942,0,0,0-13.9-13.984" transform="translate(16.959 16.278)" fill="#04151f"/>
</svg>
