<svg xmlns="http://www.w3.org/2000/svg" fill-rule="evenodd" height="2.8333in" width="11.042in" clip-rule="evenodd" viewBox="0 0 11042 2833" image-rendering="optimizeQuality" text-rendering="geometricPrecision" shape-rendering="geometricPrecision">
  <defs>
    <style>
      .fil2 {fill:#032A3F} .fil3 {fill:#FBDD26} .fil1 {fill:#032A3F;fill-rule:nonzero} .fil0 {fill:#4683A9;fill-rule:nonzero}
    </style>
  </defs>
  <path class="fil0" d="M4481 2215c0-120 88-201 200-201 69 0 117 33 148 77l-40 23c-22-33-63-57-107-57-85 0-150 65-150 158 0 92 65 158 150 158 44 0 85-24 107-57l41 22c-33 45-79 78-148 78-112 0-200-82-200-201zM5106 2268c0-57-33-109-93-109s-93 51-93 109 33 109 93 109 93-51 93-109zm-233 0c0-82 54-148 139-148 86 0 139 66 139 148s-54 148-139 148c-86 0-139-67-139-148zM5414 2409v-184c0-50-26-65-64-65-34 0-67 21-83 44v206h-44v-282h44v41c20-24 58-48 101-48 58 0 89 30 89 91v198h-43zM5554 2350v-184h-47v-39h47v-77h44v77h57v39h-57v175c0 21 9 36 28 36 13 0 24-6 30-12l13 33c-11 11-27 18-52 18-42 0-63-24-63-66zM5838 2156c-60 0-90 51-92 93h185c-1-41-29-93-93-93zm-138 111c0-82 58-148 139-148 85 0 135 67 135 151v11h-228c4 53 40 97 101 97 33 0 65-13 88-36l21 29c-29 28-67 44-112 44-84 0-144-60-144-148zM6236 2409v-184c0-50-26-65-64-65-34 0-67 21-83 44v206h-44v-282h44v41c20-24 58-48 101-48 58 0 89 30 89 91v198h-43zM6376 2350v-184h-47v-39h47v-77h44v77h57v39h-57v175c0 21 9 36 28 36 13 0 24-6 30-12l13 33c-11 11-27 18-52 18-42 0-63-24-63-66zM6973 2215c0-84-53-152-149-152h-85v303h85c95 0 149-68 149-151zm-282 194v-389h133c121 0 200 85 200 195 0 111-78 194-200 194h-133zM7220 2156c-60 0-90 51-92 93h185c-1-41-29-93-93-93zm-138 111c0-82 58-148 139-148 85 0 135 67 135 151v11h-228c4 53 40 97 101 97 33 0 65-13 88-36l21 29c-29 28-67 44-112 44-84 0-144-60-144-148zM7426 2409h44v-389h-44M7557 2409v-282h44v282h-44zm-8-351c0-16 13-30 30-30 16 0 29 13 29 30 0 16-13 29-29 29s-30-13-30-29zM7764 2409l-117-282h47l94 231 94-231h47l-117 282M8096 2156c-60 0-90 51-92 93h185c-1-41-29-93-93-93zm-138 111c0-82 58-148 139-148 85 0 135 67 135 151v11h-228c4 53 40 97 101 97 33 0 65-13 88-36l21 29c-29 28-67 44-112 44-84 0-144-60-144-148zM8303 2409v-282h44v45c23-29 55-51 94-51v45c-5-1-11-1-17-1-27 0-64 22-77 45v200h-44zM8487 2480c6 3 17 5 24 5 19 0 32-6 42-30l19-43-118-285h48l93 231 94-231h47l-141 339c-17 41-46 57-83 57-9 0-24-2-32-4l6-40zM9209 2409l-227-310v310h-48v-389h50l224 304v-304h48v389M9467 2156c-60 0-90 51-92 93h185c-1-41-29-93-93-93zm-138 111c0-82 58-148 139-148 85 0 135 67 135 151v11h-228c4 53 40 97 101 97 33 0 65-13 88-36l21 29c-29 28-67 44-112 44-84 0-144-60-144-148zM9682 2350v-184h-47v-39h47v-77h44v77h57v39h-57v175c0 21 9 36 28 36 13 0 24-6 30-12l13 33c-11 11-27 18-52 18-42 0-63-24-63-66zM10089 2409l-74-226-73 226h-44l-90-282h46l69 225 74-225h38l73 225 69-225h46l-90 282M10490 2268c0-57-33-109-93-109s-93 51-93 109 33 109 93 109 93-51 93-109zm-233 0c0-82 54-148 139-148 86 0 139 66 139 148s-54 148-139 148c-86 0-139-67-139-148zM10607 2409v-282h44v45c23-29 55-51 94-51v45c-5-1-11-1-17-1-27 0-64 22-77 45v200h-44zM10991 2409l-101-127-47 46v81h-44v-389h44v257l148-150h56l-125 128 125 154"/>
  <path class="fil1" d="M2994 1099c0-329 252-551 586-551 280 0 420 163 484 310l-278 129c-27-83-110-155-206-155-155 0-259 118-259 267s104 267 259 267c96 0 179-72 206-155l278 128c-62 142-204 311-484 311-334 0-586-224-586-551zM4898 1098c0-144-83-251-256-251h-155v503h153c161 0 257-118 257-252zm-733 534V567h476c335 0 585 192 585 532s-249 534-583 534h-478zM6056 1631l-393-540v540h-323V566h332l371 505V566h323v1065M6643 1631l337-784h-500V566h871v223l-355 842M7562 1631l337-784h-500V566h870v223l-354 842M8331 1512c0-73 61-134 134-134s134 61 134 134c0 72-61 134-134 134s-134-61-134-134zM8664 1329c0-191 148-316 339-316 138 0 222 63 256 114l-145 136c-19-29-54-51-101-51-64 0-119 40-119 117 0 78 55 119 119 119 48 0 82-25 101-53l145 137c-34 50-119 114-256 114-191 0-339-125-339-318zM9738 1329c0-66-39-117-109-117-69 0-108 51-108 117 0 68 39 119 108 119 70 0 109-51 109-119zm-447 0c0-169 125-316 339-316 215 0 340 148 340 316 0 169-125 318-340 318-214 0-339-149-339-318zM10825 1631v-352c0-36-19-68-69-68s-78 30-93 48v372h-225v-352c0-36-17-68-69-68-49 0-76 30-91 48v372h-225v-604h225v69c26-34 103-84 200-84 85 0 146 31 174 106 35-53 114-106 211-106 111 0 186 56 186 181v437h-225z"/>
  <path class="fil2" d="M1193-1C532 11 0 550 0 1214c0 671 1215 1620 1215 1620s1215-949 1215-1620C2430 550 1898 11 1237-1h-44z"/>
  <path class="fil3" d="M1215 432c-409 0-741 332-741 741s332 741 741 741 741-332 741-741-332-741-741-741z"/>
  <path class="fil2" d="M1215 839c-185 0-334 150-334 334 0 185 150 334 334 334 185 0 334-150 334-334 0-185-150-334-334-334z"/>
</svg>