<svg xmlns="http://www.w3.org/2000/svg" width="469.41" height="144.6" viewBox="0 0 469.41 144.6">
  <g id="emplifi" transform="translate(-168.28 -249.35)">
    <path id="Path_14" data-name="Path 14" d="M189.71,279.64a21.488,21.488,0,0,0-21.43,21.43h0a21.488,21.488,0,0,0,21.43,21.43h4.42V279.64Z" fill="#49c7ed"/>
    <path id="Path_15" data-name="Path 15" d="M241.41,279.64h-4.42V322.5h4.42a21.488,21.488,0,0,0,21.43-21.43h0A21.488,21.488,0,0,0,241.41,279.64Z" fill="#485daa"/>
    <path id="Path_16" data-name="Path 16" d="M236.99,275.22a21.488,21.488,0,0,0-21.43-21.43h0a21.488,21.488,0,0,0-21.43,21.43v4.42h42.86Z" fill="#49c7ed"/>
    <path id="Path_17" data-name="Path 17" d="M194.79,332.07a21.5,21.5,0,0,0,20.77,16.28h0a21.488,21.488,0,0,0,21.43-21.43V322.5H204.36Z" fill="#485daa"/>
    <path id="Path_18" data-name="Path 18" d="M194.13,279.64v47.28a20.826,20.826,0,0,0,.66,5.15l9.57-9.57h32.63V279.64Z" fill="#003a5d"/>
    <g id="Group_3" data-name="Group 3">
      <path id="Path_19" data-name="Path 19" d="M337.61,324.58s-6.26,6.52-20.08,6.52c-17.86,0-28.68-12.13-28.68-28.81,0-16.56,10.56-28.81,26.6-28.81,15.91,0,24.9,11.34,24.9,27.25,0,1.17-.13,3.39-.13,3.39H301.37c.78,11.08,7.3,16.56,16.95,16.56a23.533,23.533,0,0,0,14.73-4.82Zm-35.72-28.95h25.68c-.91-7.95-5.21-12.26-12.39-12.26C308.15,283.38,303.32,287.42,301.89,295.63Z" fill="#454647"/>
      <path id="Path_20" data-name="Path 20" d="M350.37,274.77h8.34l1.56,7.82h.78c4.04-6,9.13-9.13,18.12-9.13s15.65,3.65,19.43,9.91h.65c3.65-6,9-9.91,18.77-9.91,14.21,0,22.43,9.91,22.43,24.64v31.42H427.67V299.27c0-8.34-4.3-14.86-12.78-14.86-8.6,0-12.65,6.39-13.04,12.39v32.72H389.1V297.97c0-7.69-4.56-13.56-12.91-13.56-8.74,0-12.65,6.65-13.04,12.39v32.72H350.37Z" fill="#454647"/>
      <path id="Path_21" data-name="Path 21" d="M466.31,323.14v26.73H453.53v-75.1H462l1.83,7.82h.78s4.95-9.13,19.17-9.13c14.34,0,25.42,11.21,25.42,28.68,0,17.08-10.95,28.68-25.03,28.68-13.56,0-17.34-7.69-17.34-7.69h-.52Zm14.74-2.87c8.87,0,15.25-7.43,15.25-18.12,0-10.56-6.39-18.12-15.25-18.12-8.6,0-15.38,6.91-15.38,18.12C465.66,313.49,472.44,320.27,481.05,320.27Z" fill="#454647"/>
      <path id="Path_22" data-name="Path 22" d="M519.73,250.65h12.78v78.88H519.73Z" fill="#454647"/>
      <path id="Path_23" data-name="Path 23" d="M544.51,257.04a7.887,7.887,0,1,1,7.82,7.69A7.652,7.652,0,0,1,544.51,257.04Zm1.43,17.73h12.78v54.76H545.94Z" fill="#454647"/>
      <path id="Path_24" data-name="Path 24" d="M571.43,274.77v-4.69c0-12.65,7.17-20.34,19.82-20.34a27.459,27.459,0,0,1,12.39,2.61L599.6,262a17.175,17.175,0,0,0-7.04-1.43c-5.08,0-8.34,3.39-8.34,8.87v5.35h15.25v10.04H584.2v44.72H571.42V274.77Z" fill="#454647"/>
      <path id="Path_25" data-name="Path 25" d="M607.94,257.04a7.887,7.887,0,1,1,7.82,7.69A7.652,7.652,0,0,1,607.94,257.04Zm1.44,17.73h12.78v54.76H609.38Z" fill="#454647"/>
    </g>
    <g id="Group_4" data-name="Group 4">
      <path id="Path_26" data-name="Path 26" d="M632.2,250.86h-1.38v3.9h-.95v-3.9h-1.38v-.85h3.72v.85Zm.82,3.9v-4.74h.68l1.64,2.14,1.7-2.14h.65v4.74h-.97v-2.91l-1.19,1.55h-.36l-1.19-1.55v2.91Z" fill="#454647"/>
    </g>
    <g id="Group_5" data-name="Group 5">
      <path id="Path_27" data-name="Path 27" d="M356.7,366.53h12.65v3.39h-8.73v5.13h7.46v3.36h-7.46v5.37h9.02v3.39H356.7Z" fill="#49c7ed"/>
      <path id="Path_28" data-name="Path 28" d="M372.36,371.66h3.66v1.89h.21a4.709,4.709,0,0,1,4.22-2.27,5.143,5.143,0,0,1,4.6,2.36h.24a5.1,5.1,0,0,1,4.6-2.36,5.354,5.354,0,0,1,5.66,5.6v10.29h-3.83v-8.96c0-2.12-.97-3.33-2.8-3.33-1.74,0-3.01,1.33-3.01,3.42v8.87h-3.83v-9.2a2.8,2.8,0,0,0-2.89-3.1,3.106,3.106,0,0,0-2.98,3.39v8.9h-3.83v-15.5Z" fill="#49c7ed"/>
      <path id="Path_29" data-name="Path 29" d="M398.72,371.66h3.77v1.97h.21a5.4,5.4,0,0,1,4.66-2.36c4.33,0,7.31,3.24,7.31,8.08s-2.95,8.2-7.19,8.2a5.339,5.339,0,0,1-4.72-2.39h-.21v8.79h-3.83Zm12.05,7.76c0-2.83-1.68-4.66-4.19-4.66-2.54,0-4.13,2.03-4.13,4.66,0,2.89,1.77,4.66,4.16,4.66C409.09,384.07,410.77,382.16,410.77,379.42Z" fill="#49c7ed"/>
      <path id="Path_30" data-name="Path 30" d="M416.35,379.5c0-4.86,2.95-8.22,7.19-8.22a5.614,5.614,0,0,1,4.72,2.39h.21v-2h3.83v15.51h-3.77V385.2h-.21a5.453,5.453,0,0,1-4.66,2.36C419.33,387.55,416.35,384.31,416.35,379.5Zm12.2-.05c0-2.92-1.77-4.69-4.19-4.69-2.45,0-4.13,1.95-4.13,4.69,0,2.8,1.68,4.66,4.16,4.66C426.96,384.1,428.55,382.04,428.55,379.45Z" fill="#49c7ed"/>
      <path id="Path_31" data-name="Path 31" d="M437.04,382.01v-7.28h-2.62v-3.04h1.74a1.067,1.067,0,0,0,1.12-1.18v-3.12h3.6v4.28h4.27v3.07h-4.27v7.13a1.9,1.9,0,0,0,2.12,2.12h2.06v3.18H442.2C438.99,387.17,437.04,385.34,437.04,382.01Z" fill="#49c7ed"/>
      <path id="Path_32" data-name="Path 32" d="M447.66,365.06h3.8v8.49h.24a4.777,4.777,0,0,1,4.3-2.27,5.377,5.377,0,0,1,5.6,5.75v10.14h-3.83v-9.14a2.954,2.954,0,0,0-3.04-3.15,3.217,3.217,0,0,0-3.24,3.33v8.96h-3.83Z" fill="#49c7ed"/>
      <path id="Path_33" data-name="Path 33" d="M464.88,390.53h1.59a2.468,2.468,0,0,0,2.51-1.8l.41-1.09-6.16-15.98h4.04l3.86,10.91h.24l3.74-10.91h4.1l-6.84,18.16c-.97,2.62-2.56,4.13-5.57,4.13h-1.92v-3.42Z" fill="#49c7ed"/>
      <path id="Path_34" data-name="Path 34" d="M479.35,383.69h3.83l-1.59,7.34h-2.77Z" fill="#49c7ed"/>
      <path id="Path_35" data-name="Path 35" d="M492.53,379.5c0-4.86,2.95-8.22,7.19-8.22a5.614,5.614,0,0,1,4.72,2.39h.21v-2h3.83v15.51h-3.77V385.2h-.21a5.453,5.453,0,0,1-4.66,2.36C495.51,387.55,492.53,384.31,492.53,379.5Zm12.21-.05c0-2.92-1.77-4.69-4.19-4.69-2.45,0-4.13,1.95-4.13,4.69,0,2.8,1.68,4.66,4.16,4.66C503.15,384.1,504.74,382.04,504.74,379.45Z" fill="#49c7ed"/>
      <path id="Path_36" data-name="Path 36" d="M511.67,371.66h3.66v1.89h.21a4.71,4.71,0,0,1,4.22-2.27,5.143,5.143,0,0,1,4.6,2.36h.24a5.1,5.1,0,0,1,4.6-2.36,5.354,5.354,0,0,1,5.66,5.6v10.29h-3.83v-8.96c0-2.12-.97-3.33-2.8-3.33-1.74,0-3.01,1.33-3.01,3.42v8.87h-3.83v-9.2a2.8,2.8,0,0,0-2.89-3.1,3.106,3.106,0,0,0-2.98,3.39v8.9h-3.83v-15.5Z" fill="#49c7ed"/>
      <path id="Path_37" data-name="Path 37" d="M538.03,371.66h3.77v1.97h.21a5.4,5.4,0,0,1,4.66-2.36c4.33,0,7.31,3.24,7.31,8.08s-2.95,8.2-7.19,8.2a5.339,5.339,0,0,1-4.72-2.39h-.21v8.79h-3.83Zm12.05,7.76c0-2.83-1.68-4.66-4.19-4.66-2.54,0-4.13,2.03-4.13,4.66,0,2.89,1.77,4.66,4.16,4.66C548.4,384.07,550.08,382.16,550.08,379.42Z" fill="#49c7ed"/>
      <path id="Path_38" data-name="Path 38" d="M556.16,382.81V365.06h3.83v17.39c0,.88.44,1.36,1.24,1.36h.62v3.36h-1.44C557.69,387.17,556.16,385.55,556.16,382.81Z" fill="#49c7ed"/>
      <path id="Path_39" data-name="Path 39" d="M563.62,367.36a2.363,2.363,0,1,1,2.36,2.24A2.173,2.173,0,0,1,563.62,367.36Zm.44,4.3h3.83v15.51h-3.83Z" fill="#49c7ed"/>
      <path id="Path_40" data-name="Path 40" d="M572.37,374.73h-2.65v-3.07h2.74v-1.24c0-3.33,2.33-5.37,5.69-5.37h2v3.18h-1.62a2.124,2.124,0,0,0-2.36,2.3v1.12h4.1v3.07H576.2v12.44h-3.83V374.73Z" fill="#49c7ed"/>
      <path id="Path_41" data-name="Path 41" d="M582.52,367.36a2.363,2.363,0,1,1,2.36,2.24A2.173,2.173,0,0,1,582.52,367.36Zm.44,4.3h3.83v15.51h-3.83Z" fill="#49c7ed"/>
      <path id="Path_42" data-name="Path 42" d="M589,379.5c0-4.89,3.27-8.22,7.81-8.22,4.98,0,7.69,3.68,7.69,8.05v1.21H592.71a4.347,4.347,0,0,0,8.08,1.8h3.57c-.77,3.15-3.54,5.22-7.55,5.22A7.686,7.686,0,0,1,589,379.5Zm11.85-1.68a3.784,3.784,0,0,0-4.04-3.48,3.988,3.988,0,0,0-4.04,3.48Z" fill="#49c7ed"/>
      <path id="Path_43" data-name="Path 43" d="M606.19,379.5c0-4.86,2.95-8.22,7.19-8.22a5.614,5.614,0,0,1,4.72,2.39h.21v-8.61h3.83v22.11h-3.77v-1.98h-.21a5.453,5.453,0,0,1-4.66,2.36C609.17,387.55,606.19,384.31,606.19,379.5Zm12.21-.05c0-2.92-1.77-4.69-4.19-4.69-2.45,0-4.13,1.95-4.13,4.69,0,2.8,1.68,4.66,4.16,4.66C616.8,384.1,618.4,382.04,618.4,379.45Z" fill="#49c7ed"/>
      <path id="Path_44" data-name="Path 44" d="M624.94,385.37a2.186,2.186,0,0,1,2.24-2.18,2.181,2.181,0,1,1,0,4.36A2.174,2.174,0,0,1,624.94,385.37Z" fill="#49c7ed"/>
    </g>
    <g id="Group_6" data-name="Group 6">
      <path id="Path_45" data-name="Path 45" d="M626.72,365.47h-.68v1.92h-.47v-1.92h-.68v-.42h1.83v.42Zm.4,1.92v-2.34h.34l.81,1.05.84-1.05h.32v2.34h-.48v-1.44l-.59.76h-.18l-.59-.76v1.44Z" fill="#49c7ed"/>
    </g>
  </g>
</svg>
