<svg xmlns="http://www.w3.org/2000/svg" viewBox="0 0 413 193">
  <g data-name="Group 75">
    <text fill="#fff7f7" font-family="PlayfairDisplay-Regular, Playfair Display" font-size="45" transform="translate(116 70.001)">
      <tspan x="-115.673" y="0">Konference</tspan>
    </text>
    <text fill="#ff4646" data-name="sobota 29. května" font-family="Spartan-Medium, Spartan" font-size="18" font-weight="500" transform="translate(88 96.001)">
      <tspan x="0" y="0">sobota 29. května</tspan>
    </text>
    <g data-name="Group 39">
      <path fill="#fff7f7" d="M287.001 0h126v126h-126z" data-name="Rectangle 22"/>
      <g data-name="logo – min">
        <path fill="#ff4646" d="M357.262 68.6a36.756 36.756 0 00.19 4.128q-1.847-.081-6.22-.081c-3.947 0-1.186-.543.706-.543a3.977 3.977 0 003.11-1.317 8.772 8.772 0 001.67-4.468h.625q-.081.896-.081 2.281z" data-name="Path 23"/>
        <g>
          <g style="isolation:isolate" data-name="Group 31">
            <path fill="#22010d" d="M336.979 50.263a1.916 1.916 0 00-1.277.407 2.7 2.7 0 00-.57 1.562 31.018 31.018 0 00-.163 3.789q0 3.341-1.44 4.821a7.563 7.563 0 01-3.911 2.023 7.517 7.517 0 013.911 2.037q1.439 1.494 1.44 4.807a32.664 32.664 0 00.163 3.911 2.714 2.714 0 00.557 1.562 1.952 1.952 0 001.29.394v.516a8.948 8.948 0 01-3.517-.557 3.459 3.459 0 01-1.833-1.942 10.527 10.527 0 01-.57-3.884 33.591 33.591 0 00-.177-3.979 4.318 4.318 0 00-.611-1.956 1.713 1.713 0 00-1.276-.665h-.136v-.489h.136a1.63 1.63 0 001.276-.638 4.312 4.312 0 00.611-1.956 33.9 33.9 0 00.177-4.006 9.917 9.917 0 01.57-3.762 3.57 3.57 0 011.847-1.928 8.588 8.588 0 013.5-.584z" data-name="Path 40"/>
          </g>
        </g>
        <g data-name="2">
          <g style="isolation:isolate" data-name="Group 32">
            <path fill="#ff4646" d="M362.809 49.747a8.591 8.591 0 013.5.584 3.573 3.573 0 011.847 1.928 9.923 9.923 0 01.57 3.762 33.794 33.794 0 00.177 4.006 4.3 4.3 0 00.611 1.956 1.629 1.629 0 001.276.638h.136v.486h-.136a1.711 1.711 0 00-1.276.665 4.306 4.306 0 00-.611 1.956 33.485 33.485 0 00-.174 3.979 10.532 10.532 0 01-.57 3.884 3.459 3.459 0 01-1.833 1.942 8.949 8.949 0 01-3.517.557v-.516a1.953 1.953 0 001.29-.394 2.717 2.717 0 00.557-1.562 32.621 32.621 0 00.163-3.911q0-3.313 1.439-4.807a7.514 7.514 0 013.911-2.037 7.561 7.561 0 01-3.911-2.023q-1.44-1.48-1.439-4.821a30.977 30.977 0 00-.163-3.789 2.7 2.7 0 00-.57-1.562 1.917 1.917 0 00-1.277-.407z" data-name="Path 41"/>
          </g>
        </g>
        <g style="isolation:isolate" data-name="Group 33">
          <path fill="#22010d" d="M356.78 57.582q0 1.277.081 2.064h-.625a9.17 9.17 0 00-1.63-4.318 3.818 3.818 0 00-3.042-1.249h-.9a3.964 3.964 0 00-1.222.136.814.814 0 00-.516.53 4.211 4.211 0 00-.136 1.263v6.844h.951a2.506 2.506 0 002.186-1.059 6.628 6.628 0 001.046-2.526h.625q-.081 1.141-.082 2.553v1.3q0 1.385.163 3.857h-.62q-.57-3.585-3.313-3.585h-.951v6.247a4.047 4.047 0 00.231 1.589 1.2 1.2 0 00.815.665 5.172 5.172 0 00.755.126c.4.043.87.073 1.343.083l-1.318.538c-2.227-.054-2.8-.04-3.89-.04q-1.358 0-3.422.054l-.869.027v-.543a4.7 4.7 0 001.317-.217.939.939 0 00.57-.625 5.336 5.336 0 00.149-1.494V56.333a5.339 5.339 0 00-.149-1.494.94.94 0 00-.57-.625 4.722 4.722 0 00-1.317-.217v-.543q2.933.082 8.854.082 3.993 0 5.677-.082-.192 2.309-.191 4.128z" data-name="Path 42"/>
        </g>
      </g>
    </g>
    <g data-name="Group 71">
      <path fill="#21ff43" d="M230 121.001h4v8h-4z" data-name="Rectangle 69"/>
      <path fill="#00baff" d="M230 132.001h4v7h-4z" data-name="Rectangle 70"/>
      <path fill="#ff4646" d="M230 142.001h4v8h-4z" data-name="Rectangle 71"/>
      <path fill="#fff7f7" d="M230 153.001h4v8h-4z" data-name="Rectangle 72"/>
      <path fill="#ff4646" d="M230 164.001h4v8h-4z" data-name="Rectangle 73"/>
      <path fill="#00baff" d="M230 175.001h4v7h-4z" data-name="Rectangle 74"/>
      <path fill="#21ff43" d="M230 185.001h4v8h-4z" data-name="Rectangle 75"/>
    </g>
  </g>
</svg>
