<svg xmlns="http://www.w3.org/2000/svg" viewBox="0 0 300 126">
  <g data-name="Group 73">
    <text fill="#fff7f7" font-family="PlayfairDisplay-Regular, Playfair Display" font-size="32" transform="translate(92 81)">
      <tspan x="-82.256" y="0">Konference</tspan>
    </text>
    <text fill="#ff4646" data-name="sobota 29. května | on-line" font-family="Spartan" font-size="12" font-weight="600" transform="translate(176 104)">
      <tspan x="-162" y="0">sobota 29. května | on-line</tspan>
    </text>
    <g data-name="Group 39">
      <path fill="#fff7f7" d="M211 37h89v89h-89z" data-name="Rectangle 22"/>
      <g data-name="logo – min">
        <path fill="#ff4646" d="M260.866 85.7a25.823 25.823 0 00.133 2.9q-1.3-.057-4.367-.057c-2.771 0-.833-.381.5-.381a2.793 2.793 0 002.183-.925 6.159 6.159 0 001.173-3.137h.439q-.061.632-.061 1.6z" data-name="Path 23"/>
        <g>
          <g style="isolation:isolate" data-name="Group 31">
            <path fill="#22010d" d="M246.627 72.823a1.345 1.345 0 00-.9.286 1.894 1.894 0 00-.4 1.1 21.765 21.765 0 00-.114 2.66 4.737 4.737 0 01-1.011 3.385 5.31 5.31 0 01-2.746 1.421 5.278 5.278 0 012.746 1.43 4.742 4.742 0 011.011 3.375 22.919 22.919 0 00.114 2.746 1.905 1.905 0 00.391 1.1 1.371 1.371 0 00.906.277v.362a6.283 6.283 0 01-2.469-.391 2.429 2.429 0 01-1.287-1.363 7.391 7.391 0 01-.4-2.727 23.567 23.567 0 00-.124-2.794 3.03 3.03 0 00-.429-1.373 1.2 1.2 0 00-.9-.467h-.1v-.343h.1a1.145 1.145 0 00.9-.448 3.026 3.026 0 00.429-1.373 23.783 23.783 0 00.124-2.813 6.963 6.963 0 01.4-2.641 2.507 2.507 0 011.3-1.354 6.029 6.029 0 012.46-.41z" data-name="Path 40"/>
          </g>
        </g>
        <g data-name="2">
          <g style="isolation:isolate" data-name="Group 32">
            <path fill="#ff4646" d="M264.761 72.463a6.031 6.031 0 012.46.41 2.508 2.508 0 011.3 1.354 6.968 6.968 0 01.4 2.641 23.733 23.733 0 00.124 2.813 3.018 3.018 0 00.429 1.373 1.143 1.143 0 00.9.448h.1v.343h-.1a1.2 1.2 0 00-.9.467 3.022 3.022 0 00-.429 1.373 23.517 23.517 0 00-.124 2.794 7.4 7.4 0 01-.4 2.727 2.429 2.429 0 01-1.287 1.363 6.283 6.283 0 01-2.469.391v-.362a1.371 1.371 0 00.906-.277 1.909 1.909 0 00.391-1.1 22.919 22.919 0 00.114-2.746 4.741 4.741 0 011.011-3.375 5.275 5.275 0 012.746-1.43 5.308 5.308 0 01-2.746-1.421 4.735 4.735 0 01-1.011-3.385 21.765 21.765 0 00-.114-2.66 1.9 1.9 0 00-.4-1.1 1.346 1.346 0 00-.9-.286z" data-name="Path 41"/>
          </g>
        </g>
        <g style="isolation:isolate" data-name="Group 33">
          <path fill="#22010d" d="M260.527 77.965q0 .9.057 1.449h-.439a6.438 6.438 0 00-1.144-3.032 2.68 2.68 0 00-2.136-.877h-.629a2.782 2.782 0 00-.858.1.572.572 0 00-.362.372 2.957 2.957 0 00-.1.887v4.805h.667a1.76 1.76 0 001.535-.744 4.652 4.652 0 00.734-1.773h.439q-.057.8-.057 1.792v.915q0 .973.115 2.708h-.439q-.4-2.517-2.326-2.517h-.667v4.386a2.84 2.84 0 00.162 1.116.84.84 0 00.572.467 3.628 3.628 0 00.53.088c.278.03.611.051.943.058l-.925.378c-1.564-.038-1.969-.028-2.731-.028q-.954 0-2.4.038l-.61.019v-.385a3.3 3.3 0 00.925-.153.659.659 0 00.4-.438 3.746 3.746 0 00.1-1.049v-9.46a3.748 3.748 0 00-.1-1.049.66.66 0 00-.4-.439 3.314 3.314 0 00-.925-.153v-.381q2.059.057 6.216.057 2.8 0 3.985-.057-.132 1.622-.132 2.9z" data-name="Path 42"/>
        </g>
      </g>
    </g>
    <g data-name="Group 71">
      <path fill="#21ff43" d="M171.999 0h2v5h-2z" data-name="Rectangle 69"/>
      <path fill="#00baff" d="M171.999 7h2v6h-2z" data-name="Rectangle 70"/>
      <path fill="#ff4646" d="M171.999 15h2v5h-2z" data-name="Rectangle 71"/>
      <path fill="#fff7f7" d="M171.999 22h2v6h-2z" data-name="Rectangle 72"/>
      <path fill="#ff4646" d="M171.999 30h2v5h-2z" data-name="Rectangle 73"/>
      <path fill="#00baff" d="M171.999 37h2v6h-2z" data-name="Rectangle 74"/>
      <path fill="#21ff43" d="M171.999 45h2v5h-2z" data-name="Rectangle 75"/>
    </g>
  </g>
</svg>
