<svg xmlns="http://www.w3.org/2000/svg" width="1150" height="300"><path fill="#6B2770" d="M609.9 145.6c-4.7-.3-9.2 1.5-12.5 4.8-2.9 3-4.7 6.9-5.2 11.1h35.4c-.3-4.1-2-8-4.8-11-3.4-3.5-8.1-5.3-12.9-4.9zM393.8 147.3c-5.2-.2-10.1 2-13.4 6-3.3 4.2-5.1 9.4-4.9 14.8-.2 5.4 1.5 10.7 4.9 15 3.3 4 8.2 6.2 13.4 6 5.2.2 10.2-2 13.5-6 3.4-4.2 5.2-9.6 5-15 .2-5.4-1.6-10.6-5-14.8-3.4-4-8.3-6.2-13.5-6z"/><path fill="#6B2770" d="M0 0v300h1150V0H0zm224.4 173.5c0 7.3-4.2 13.9-10.8 17v.6c0 41.4-33.6 75-75 75-21.8 0-41.5-9-55.3-25.2-11.6-13.6-18.5-31.4-19.5-50.2-6.7-3.1-10.9-9.7-10.9-17.1v-21.3c0-7.3 4.2-13.9 10.8-17v-20.9c0-6.7 2.9-13.1 8-17.5 2.1-17.3 15.7-31 33-33.3h.1V24.1L127.1 44l13.6-16.6L154.3 44l22.4-19.9v39.1h39.9v10.5c0 9.8-2.2 19.6-6.5 28.4 2.2 3.5 3.4 7.6 3.5 11.8V135.2c6.6 3.1 10.8 9.7 10.8 17v21.3zm84.3 32.4c-14 .4-27.6-4.7-37.7-14.3-10.1-9.6-15.2-21.8-15.2-36.9 0-15 5.1-27.3 15.2-36.9 10.2-9.6 23.7-14.8 37.7-14.3 18.5 0 32.4 8.1 41.5 24.3l-18.2 8.9c-2.2-4.2-5.6-7.8-9.6-10.3-4.1-2.7-8.9-4.1-13.7-4.1-8.4-.3-16.5 3.1-22.3 9.2-5.9 6.3-9.1 14.7-8.8 23.4-.3 8.6 2.9 17 8.8 23.4 5.8 6.1 13.9 9.5 22.3 9.2 4.9 0 9.6-1.4 13.7-4 4.1-2.5 7.4-6.1 9.6-10.4l18.2 8.7c-9.4 16.1-23.2 24.1-41.5 24.1zM421.5 195c-7 7.2-16.2 10.8-27.7 10.8s-20.7-3.6-27.6-10.8c-13.8-15.2-13.8-38.4 0-53.6 6.9-7.2 16.1-10.8 27.6-10.8s20.7 3.6 27.7 10.8c13.8 15.2 13.8 38.4 0 53.6zm90.3-41.6v50.7h-18.9v-43.4c0-8.9-4.4-13.4-13.2-13.4-6.5-.2-12.7 3-16.3 8.5v48.4h-18.9v-72h18.9v9.4c6.2-7.4 15.5-11.5 25.1-11.1 7.7 0 13.5 2 17.5 6.1 4.1 4.6 6.2 10.7 5.8 16.8zm41.3 52.5c-6.7 0-11.7-1.7-15.2-5-3.5-3.4-5.2-8.2-5.2-14.6v-37.5h-11.9v-16.5h11.9v-19.6h19v19.6h14.6v16.5h-14.6v32.5c-.1 2 .6 4 1.8 5.7 1.1 1.4 2.9 2.2 4.8 2.2 2.4.2 4.7-.6 6.5-2.2l4 14.3c-3.4 3.1-8.7 4.6-15.7 4.6zm92.8-31.7h-53.4c.5 4.6 2.8 8.9 6.4 11.9 4 3.3 9.1 5 14.3 4.8 3.5 0 7-.7 10.3-1.9 3.3-1 6.3-2.8 8.8-5.2l8.3 12.2c-7.2 6.7-17.1 10-29.6 10v-.1c-10.2.4-20.1-3.3-27.5-10.3-7.2-6.9-10.8-16.1-10.8-27.4-.3-10 3.5-19.7 10.5-26.8 7-7.2 16.7-11.2 26.7-10.8 9.8-.4 19.3 3.6 26 10.8 6.7 7.2 10 16.8 10 28.7v4.1zm79.8-20.8v50.7h-18.9v-43.4c0-8.9-4.4-13.4-13.2-13.4-6.5-.2-12.7 3-16.4 8.5v48.4h-18.9v-72h18.9v9.4c6.2-7.4 15.5-11.5 25.2-11.1 7.7 0 13.5 2 17.5 6.1 4.1 4.6 6.2 10.7 5.8 16.8zm41.3 52.5c-6.7 0-11.7-1.7-15.2-5-3.5-3.4-5.2-8.2-5.2-14.6v-37.5h-11.9v-16.5h11.9v-19.6h19v19.6h14.6v16.5h-14.5v32.5c-.1 2 .6 4 1.8 5.7 1.2 1.4 2.9 2.2 4.8 2.2 2.4.2 4.7-.6 6.5-2.2l4 14.3c-3.5 3.1-8.8 4.6-15.8 4.6zm90.9-1.8l-30.1-39.7-7.7 9.2v30.5H799v-99.2h21.1v44.3l35.1-44.3h26l-39.4 46.5 42.1 52.7h-26zm34.6 0v-71.9h18.9v71.9h-18.9zm9.4-79.6c-6.2-.1-11.3-5.1-11.3-11.3 0-3 1.2-5.8 3.4-7.9 4.4-4.4 11.6-4.4 16 0 2.1 2.1 3.3 4.9 3.3 7.9-.1 6.3-5.1 11.3-11.4 11.3zm94.1 79.6h-19v-43.4c0-8.9-4.4-13.4-13.2-13.4-6.5-.2-12.7 3-16.4 8.5v48.4h-18.9v-72h18.9v9.4c6.2-7.4 15.5-11.5 25.2-11.1 7.7 0 13.6 2 17.5 6.1 4.1 4.6 6.2 10.6 5.9 16.8v50.7zm86-4.9c.2 5.8-1 11.6-3.5 16.8-2.1 4.4-5.3 8-9.5 10.6-3.8 2.3-7.9 4.1-12.3 5.1-4.4 1.1-9 1.6-13.6 1.6-12.4 0-22.7-3.6-30.9-10.7l8.5-13.7c5.3 5.9 12.8 8.9 22.5 8.9 5 .1 9.9-1.4 13.9-4.3 3.9-2.8 5.9-7.5 5.9-13.9v-7.3c-5.1 7.1-13.4 11.3-22.2 11.3-8.6.3-17-3.2-22.8-9.6-5.9-6.4-8.8-15.4-8.8-27s3-20.5 8.8-26.9c5.8-6.4 14.2-9.9 22.8-9.5 8.7-.1 16.9 3.9 22.2 10.8v-9.1h19v66.9z"/><path fill="#6B2770" d="M1056.1 149.6c-2.9-1.5-6.1-2.3-9.3-2.3-5-.2-9.8 1.7-13.2 5.4-6.6 8.5-6.6 20.4 0 28.9 3.4 3.6 8.2 5.6 13.2 5.4v-.1c3.2 0 6.4-.9 9.2-2.4 2.8-1.3 5.2-3.3 7-5.8v-23.2c-1.8-2.5-4.2-4.6-6.9-5.9z"/><path fill="#FFF" d="M213.6 135.2V113.9c-.1-4.2-1.3-8.3-3.5-11.8 4.2-8.9 6.5-18.6 6.5-28.4V63.2h-39.9V24.1L154.3 44l-13.6-16.6L127.1 44l-22.4-19.9v39.4h-.1c-17.3 2.3-30.9 16-33 33.3-5.1 4.4-8 10.8-8 17.5v20.9c-6.6 3.1-10.7 9.7-10.8 17v21.3c0 7.3 4.3 14 10.9 17.1 1 18.8 7.9 36.7 19.5 50.2 13.9 16.3 33.5 25.2 55.3 25.2 41.4 0 75-33.6 75-75v-.6c6.6-3.1 10.8-9.7 10.8-17v-21.3c.1-7.1-4.1-13.8-10.7-16.9zm.4 38.4c0 4.6-3.7 8.4-8.4 8.4h-2.4v9.2c0 35.6-28.9 64.5-64.5 64.5-40.4 0-64.5-34.2-64.5-69.8l-.1-24.4V182h-2.4c-4.6 0-8.4-3.7-8.4-8.4v-21.3c0-4.6 3.7-8.4 8.4-8.4h2.4v-29.6c0-5.2 3.2-9.7 7.8-11.6v-1.3c0-15.3 12.4-27.7 27.7-27.7h5.6V47.2L128.6 61l12.2-16.3L152.9 61l13.4-13.8v26.5h39.9c0 11.1-3.3 21.4-8.9 30 3.5 2.2 5.9 6.1 5.9 10.6l.1 45.5v-15.9h2.4c4.6 0 8.4 3.7 8.4 8.4v21.3zM892.5 132.3v71.8h18.9v-71.8zM558.3 189.2c-1.8.1-3.6-.7-4.8-2.2-1.2-1.6-1.9-3.6-1.8-5.7v-32.5h14.6v-16.5h-14.6v-19.6h-19v19.6h-11.9v16.5h11.9v37.5c0 6.4 1.7 11.2 5.2 14.6 3.5 3.4 8.5 5 15.2 5 7 0 12.3-1.5 15.7-4.7l-4-14.3c-1.8 1.7-4.2 2.4-6.5 2.3zM322.5 183.4c-4.1 2.6-8.9 4-13.7 4-8.4.3-16.5-3.1-22.3-9.2-5.9-6.3-9.1-14.7-8.8-23.4-.3-8.6 2.9-17 8.8-23.4 5.8-6.1 13.9-9.5 22.3-9.2 4.9 0 9.7 1.4 13.7 4.1 4.1 2.5 7.4 6.1 9.6 10.3l18.2-8.9c-9.1-16.2-23-24.3-41.5-24.3-14-.4-27.5 4.7-37.7 14.3-10.1 9.6-15.2 21.9-15.2 36.9s5.1 27.3 15.2 36.9c10.2 9.6 23.7 14.8 37.7 14.3 18.2 0 32.1-8.1 41.5-24.2l-18.2-8.7c-2.2 4.4-5.6 8-9.6 10.5zM488.5 130.5c-9.6-.4-18.9 3.7-25.1 11.1v-9.4h-18.9v72h18.9v-48.4c3.6-5.4 9.8-8.6 16.3-8.5 8.8 0 13.3 4.5 13.2 13.4v43.4h18.9v-50.7c.3-6.2-1.8-12.2-5.9-16.8-3.9-4.1-9.7-6.1-17.4-6.1zM990 136.6c-3.9-4.1-9.7-6.1-17.5-6.1-9.7-.4-18.9 3.7-25.2 11.1v-9.4h-18.9v72h18.9v-48.4c3.6-5.4 9.8-8.6 16.4-8.5 8.8 0 13.2 4.5 13.2 13.4v43.4h19v-50.7c.4-6.1-1.7-12.2-5.9-16.8zM894 105.3c-2.2 2-3.4 4.9-3.4 7.9.1 6.2 5.1 11.2 11.3 11.3 6.2 0 11.3-5.1 11.3-11.3 0-3-1.1-5.8-3.3-7.9-4.4-4.3-11.5-4.3-15.9 0zM1043.2 233.3c-.1 0-.1 0 0 0zM609.9 130.6c-10-.3-19.7 3.6-26.7 10.8-7 7.2-10.7 16.8-10.5 26.8 0 11.3 3.6 20.4 10.8 27.4 7.4 7 17.3 10.7 27.5 10.3v.1c12.5 0 22.4-3.3 29.6-10l-8.3-12.2c-2.5 2.4-5.5 4.2-8.8 5.2-3.3 1.2-6.8 1.8-10.3 1.9-5.2.2-10.3-1.5-14.3-4.8-3.6-3-5.9-7.2-6.4-11.9h53.4V170c0-11.9-3.3-21.4-10-28.7-6.6-7.1-16.1-11.1-26-10.7zm-17.7 30.9c.5-4.2 2.3-8 5.2-11.1 3.3-3.3 7.8-5.1 12.5-4.8 4.8-.3 9.5 1.5 12.9 4.9 2.8 3 4.5 6.9 4.8 11h-35.4zM881.2 104.9h-26l-35.1 44.3v-44.3H799v99.2h21.1v-30.5l7.7-9.2 30.1 39.7h26l-42.1-52.6zM778.7 187c-1.8 1.6-4.1 2.3-6.5 2.2-1.8.1-3.6-.7-4.8-2.2-1.2-1.6-1.8-3.6-1.8-5.7v-32.5h14.5v-16.5h-14.6v-19.6h-19v19.6h-11.9v16.5h11.9v37.5c0 6.4 1.8 11.2 5.2 14.6 3.5 3.4 8.5 5 15.2 5 7 0 12.3-1.6 15.7-4.7l-3.9-14.2zM702.4 130.5c-9.6-.4-18.9 3.7-25.2 11.1v-9.4h-18.9v72h18.9v-48.4c3.6-5.4 9.8-8.6 16.4-8.5 8.8 0 13.2 4.5 13.2 13.4v43.4h18.9v-50.7c.3-6.2-1.8-12.2-5.9-16.8-3.9-4.1-9.7-6.1-17.4-6.1zM767 205.9zM393.8 130.5c-11.5 0-20.7 3.6-27.6 10.8-13.8 15.2-13.8 38.4 0 53.6 6.9 7.2 16.1 10.8 27.6 10.8s20.7-3.6 27.7-10.8c13.9-15.2 13.9-38.4 0-53.6-7-7.1-16.2-10.8-27.7-10.8zm13.4 52.6c-3.3 4-8.3 6.2-13.5 6-5.2.2-10.1-2-13.4-6-3.4-4.3-5.1-9.6-4.9-15-.2-5.4 1.6-10.6 4.9-14.8 3.3-4 8.2-6.2 13.4-6 5.2-.2 10.2 2 13.5 6 3.4 4.2 5.2 9.4 5 14.8.2 5.4-1.5 10.8-5 15zM1063 141.4c-5.2-7-13.5-11-22.2-10.8-8.6-.3-17 3.1-22.8 9.5-5.9 6.4-8.8 15.3-8.8 26.9 0 11.6 2.9 20.6 8.8 27 5.8 6.4 14.2 9.9 22.8 9.6 8.8 0 17-4.2 22.2-11.3v7.3c0 6.4-2 11.1-5.9 13.9-4 2.9-8.9 4.4-13.9 4.3-9.6 0-17.1-3-22.5-8.9l-8.5 13.7c8.2 7.1 18.5 10.7 30.9 10.7 4.6 0 9.1-.5 13.6-1.6 4.3-1.1 8.5-2.8 12.3-5.1 4.1-2.5 7.4-6.2 9.5-10.6 2.4-5.3 3.6-11 3.5-16.8v-66.9h-19v9.1zm0 37.3c-1.8 2.5-4.2 4.5-7 5.8-2.8 1.5-6 2.3-9.2 2.4v.1c-5 .2-9.8-1.8-13.2-5.4-6.6-8.5-6.6-20.4 0-28.9 3.4-3.6 8.2-5.6 13.2-5.4 3.2 0 6.4.8 9.3 2.3 2.8 1.3 5.2 3.3 6.9 5.9v23.2z"/><path fill="#F2BA96" d="M71.8 143.9c-4.6 0-8.4 3.7-8.4 8.4v21.3c0 4.6 3.7 8.4 8.4 8.4h2.4v-38.1h-2.4zM181.2 121h-1.8c-8.4 5.1-18.1 8-28.6 8h-41.2c-6.9 0-13.2-2.5-18.1-6.7-2.8 1.6-4.7 4.7-4.8 8.2l.1 58.2c0 7.8 6.3 14.1 14.2 14.1 3.5 0 6.3-2.8 6.3-6.3 0-4.8 3.9-8.7 8.7-8.7h45.6c4.8 0 8.7 3.9 8.7 8.7 0 3.5 2.8 6.3 6.3 6.3 7.8 0 14.2-6.3 14.2-14.1v-58.2c-.2-5.3-4.4-9.5-9.6-9.5zm-68.3 49c-4.8 0-8.7-3.9-8.7-8.7s3.9-8.7 8.7-8.7 8.7 3.9 8.7 8.7-3.9 8.7-8.7 8.7zm11.4-26c0 2.4-1.9 4.3-4.3 4.3h-17.5c-2.4 0-4.3-1.9-4.3-4.3s1.9-4.3 4.3-4.3H120c2.4 0 4.3 1.9 4.3 4.3zm23.8 22.7v6.3c0 5.2-4.2 9.4-9.4 9.4-5.1 0-9.2-4-9.4-9.1v-6.7.4-25.6h18.9v25.3zm16.1 3.3c-4.8 0-8.7-3.9-8.7-8.7s3.9-8.7 8.7-8.7c4.8 0 8.7 3.9 8.7 8.7s-3.9 8.7-8.7 8.7zm10.1-21.7h-17.5c-2.4 0-4.3-1.9-4.3-4.3s1.9-4.3 4.3-4.3h17.5c2.4 0 4.3 1.9 4.3 4.3s-1.9 4.3-4.3 4.3z"/><path fill="#6B2770" d="M203.2 159.8l-.1-45.5c0-4.5-2.4-8.4-5.9-10.6 5.6-8.7 8.9-19 8.9-30h-96.6c-15.3 0-27.7 12.4-27.7 27.7v1.3c-4.6 1.9-7.8 6.4-7.8 11.6v47.2l.1 24.4c0 35.6 24.1 69.8 64.5 69.8 35.6 0 64.5-28.9 64.5-64.5v-31.4zm-12.6 28.9c0 7.8-6.3 14.1-14.2 14.1-3.5 0-6.3-2.8-6.3-6.3 0-4.8-3.9-8.7-8.7-8.7h-45.6c-4.8 0-8.7 3.9-8.7 8.7 0 3.5-2.8 6.3-6.3 6.3-7.8 0-14.2-6.3-14.2-14.1l-.1-58.2c0-3.5 1.9-6.5 4.8-8.2 4.9 4.2 11.2 6.7 18.1 6.7h41.2c10.5 0 20.3-2.9 28.6-8h1.8c5.2 0 9.4 4.2 9.4 9.4v58.3zm-70.5 18.9c-1.2-2.4-1.9-5.1-1.9-7.9h40.9c0 2.8-.7 5.5-1.9 7.9-3.2 6.5-10.3 11-18.6 11s-15.3-4.5-18.5-11z"/><path fill="#F2BA96" d="M157.2 207.6h-37.1c3.2 6.5 10.3 11 18.5 11s15.4-4.5 18.6-11z"/><path fill="#FFF" d="M159.1 199.8h-40.9c0 2.8.7 5.5 1.9 7.9h37.1c1.2-2.5 1.9-5.1 1.9-7.9z"/><path fill="#6B2770" d="M112.9 152.6c-4.8 0-8.7 3.9-8.7 8.7s3.9 8.7 8.7 8.7 8.7-3.9 8.7-8.7-3.9-8.7-8.7-8.7zm1 9.2c-1.6 0-2.8-1.3-2.8-2.8s1.3-2.8 2.8-2.8 2.8 1.3 2.8 2.8-1.2 2.8-2.8 2.8zM164.2 152.6c-4.8 0-8.7 3.9-8.7 8.7s3.9 8.7 8.7 8.7c4.8 0 8.7-3.9 8.7-8.7s-3.9-8.7-8.7-8.7zm1 9.2c-1.6 0-2.8-1.3-2.8-2.8s1.3-2.8 2.8-2.8 2.8 1.3 2.8 2.8-1.2 2.8-2.8 2.8z"/><path fill="none" d="M129.2 141.6"/><path fill="#F2BA96" d="M129.2 167.1c.2 5 4.3 9 9.4 9 5.2 0 9.4-4.2 9.4-9.5v-25.1h-18.9v25.6z"/><linearGradient id="a" gradientUnits="userSpaceOnUse" x1="138.655" y1="-720.67" x2="138.655" y2="-741.53" gradientTransform="translate(0 894)"><stop offset="0" stop-color="#d89d7c"/><stop offset="1" stop-color="#f2bb97"/></linearGradient><path opacity=".5" fill="url(#a)" d="M129.2 167.1c.2 5 4.3 9 9.4 9 5.2 0 9.4-4.2 9.4-9.5v-25.1h-18.9v25.6z"/><path fill="#F2BA96" d="M139.2 181.9c-5.1.3-9.5-3.5-9.9-8.6.2 5 4.3 9.1 9.4 9.1 5.2 0 9.4-4.2 9.4-9.4-.3 4.8-4.1 8.6-8.9 8.9z"/><linearGradient id="b" gradientUnits="userSpaceOnUse" x1="138.664" y1="-720.67" x2="138.664" y2="-741.53" gradientTransform="translate(0 894)"><stop offset="0" stop-color="#d89d7c"/><stop offset="1" stop-color="#f2bb97"/></linearGradient><path opacity=".5" fill="url(#b)" d="M139.2 181.9c-5.1.3-9.5-3.5-9.9-8.6.2 5 4.3 9.1 9.4 9.1 5.2 0 9.4-4.2 9.4-9.4-.3 4.8-4.1 8.6-8.9 8.9z"/><path fill="#D89D7C" d="M138.7 176.2c-5.1 0-9.2-4-9.5-9v-.4 6.7c.5 5 4.8 8.8 9.9 8.6 4.8-.3 8.6-4.1 8.9-8.9v-6.3c.1 5-4.1 9.3-9.3 9.3z"/><path fill="#6B2770" d="M120 139.7h-17.5c-2.4 0-4.3 1.9-4.3 4.3s1.9 4.3 4.3 4.3H120c2.4 0 4.3-1.9 4.3-4.3s-1.9-4.3-4.3-4.3zM174.3 139.7h-17.5c-2.4 0-4.3 1.9-4.3 4.3s1.9 4.3 4.3 4.3h17.5c2.4 0 4.3-1.9 4.3-4.3s-1.9-4.3-4.3-4.3z"/><path fill="#F2BA96" d="M205.6 143.9h-2.4v38h2.4c4.6 0 8.4-3.7 8.4-8.4v-21.3c0-4.6-3.8-8.3-8.4-8.3z"/><path fill="#FFF" d="M113.9 156.2c-1.6 0-2.8 1.3-2.8 2.8s1.3 2.8 2.8 2.8 2.8-1.3 2.8-2.8-1.2-2.8-2.8-2.8zM165.2 156.2c-1.6 0-2.8 1.3-2.8 2.8s1.3 2.8 2.8 2.8 2.8-1.3 2.8-2.8-1.2-2.8-2.8-2.8z"/><path fill="#F4A21E" d="M166.2 73.7V47.2L152.9 61l-12.2-16.3L128.6 61l-13.4-13.8v26.5z"/></svg>