<svg xmlns="http://www.w3.org/2000/svg" xmlns:xlink="http://www.w3.org/1999/xlink" viewBox="0 0 263 34" preserveAspectRatio="xMidYMid meet">
	<g id="logo-long">
		<path fill="#FFFFFF" d="M10.3,0.2c-5.5,0-7.5,2-7.5,8c0,6.5-0.5,8.2-2.6,8.3H0v0.6h0.2c2.1,0.2,2.6,1.9,2.6,8.4
			c0,6.4,2,8.1,7.5,8.1v-0.6c-2-0.1-2.6-0.6-2.6-7.5c0-6.2-3.3-7.9-6.8-8.7c3.5-0.8,6.8-2.5,6.8-8.7c0-6.5,0.5-7.2,2.6-7.3V0.2z"/>
		<path fill="#FFFFFF" d="M31.8,2.8c-2.1,0.1-5.1,0.1-7.2,0.1c-2.3,0-7.5,0-11.2-0.1v0.7c2.2,0.1,2.6,0.5,2.6,3v17.1
			c0,2.5-0.4,2.9-2.6,3v0.7c1.5-0.1,3.5-0.1,5.5-0.1c2.4,0,4.8,0.1,6.3,0.1v-0.8c-3.1-0.1-3.7-0.4-3.7-3.1v-7.9h1.2
			c2.7,0,3.8,2.2,4.2,4.5h0.8c-0.2-2.6-0.2-3.7-0.2-4.9c0-0.5,0-0.9,0-1.6c0-0.8,0.1-1.8,0.1-3.3h-0.8c-0.3,1.9-1.3,4.5-4.1,4.5h-1.2
			V6.1c0-2.2,0.3-2.4,2.4-2.4H25c3.2,0,5,1.7,5.9,7h0.8c-0.1-0.6-0.1-1.6-0.1-2.6C31.6,7,31.6,4.9,31.8,2.8z"/>
		<path fill="#FFFFFF" d="M45.3,8.9c-2.2,0-3.8,1.5-4.7,3.3V9c-1.5,0.3-3.1,0.5-5,0.5c-0.7,0-1.4-0.1-2.2-0.1v0.7c1.7,0,2.2,1,2.2,3
			V24c0,1.9-0.6,2.4-2.2,2.4v0.7c0.9-0.1,3-0.1,5-0.1c2.2,0,4.4,0.1,5.5,0.1v-0.7c-2.2,0-3.2-0.6-3.2-2.8v-9c0-1.9,1.3-4.1,3.1-4.4
			c0.2-0.1,0.3-0.1,0.5-0.1c0.2,0,0.3,0.1,0.5,0.1c-0.9,0.6-1.5,1.4-1.5,2.7c0,1.3,0.9,2.2,2.6,2.2s2.7-1.2,2.7-2.9
			C48.4,10.6,47.5,8.9,45.3,8.9z"/>
		<path fill="#FFFFFF" d="M58,8.9c-5,0-8.4,2.6-8.4,9.4s3.5,9.4,8.4,9.4s8.4-2.6,8.4-9.4C66.4,11.5,62.9,8.9,58,8.9z M58,9.6
			c1.9,0,3.3,2.6,3.3,8.7s-1.3,8.7-3.3,8.7c-1.9,0-3.2-2.5-3.2-8.7C54.7,12.1,56,9.6,58,9.6z"/>
		<path fill="#FFFFFF" d="M81.3,8.9c-2.4,0-4.5,0.9-5.6,3.2V9c-1.5,0.3-3.1,0.5-5,0.5c-0.7,0-1.4-0.1-2.2-0.1v0.7c1.7,0,2.2,1,2.2,3
			V24c0,1.9-0.6,2.4-2.2,2.4v0.7c0.9-0.1,3-0.1,4.7-0.1c1.7,0,3.4,0.1,4.3,0.1v-0.7c-1.3,0-1.9-0.6-1.9-2.4v-9.6c0-2.3,1.5-4,3.4-4
			c1.7,0,2.1,1.2,2.1,2.9V24c0,1.9-0.5,2.4-1.9,2.4v0.7c0.8-0.1,2.7-0.1,4.5-0.1c1.7,0,3.7,0.1,4.5,0.1v-0.7c-1.6,0-2.2-0.6-2.2-2.4
			v-9.3c0-2.3-0.3-3.6-1-4.5C84.4,9.5,83.3,8.9,81.3,8.9z"/>
		<path fill="#FFFFFF" d="M96.7,9.4V3.7c-1.5,0.8-3,1.1-5,1.1v4.5h-2.9v0.7h2.9v11.6c0,2.4,0.2,3.8,1.2,4.8c0.8,0.8,1.9,1.2,3.4,1.2
			c2.6,0,4-1.5,4.7-3.6l-0.6-0.3c-0.7,1.5-1.5,2.1-2.3,2.1c-1,0-1.5-0.5-1.5-1.9V10.1h4.1V9.4C100.7,9.4,96.7,9.4,96.7,9.4z"/>
		<path fill="#FFFFFF" d="M111.7,24.8c-2.2,0-4.5-1.9-4.5-6.6c0-0.6,0-1.1,0.1-1.6h9.6c0-5.4-2.4-7.6-6.5-7.6c-4.9,0-8.4,3.2-8.4,9.6
			c0,6.3,3.3,9.2,7.9,9.2c3.8,0,6.1-2.8,6.9-5.4l-0.6-0.2C114.9,24.4,113.1,24.8,111.7,24.8z M110.3,9.6c1.7,0,2.4,2.9,2.3,6.2h-5.4
			C107.5,11.4,108.7,9.6,110.3,9.6z"/>
		<path fill="#FFFFFF" d="M131.6,8.9c-2.4,0-4.5,0.9-5.6,3.2V9c-1.5,0.3-3.1,0.5-5,0.5c-0.7,0-1.4-0.1-2.2-0.1v0.7c1.7,0,2.2,1,2.2,3
			V24c0,1.9-0.6,2.4-2.2,2.4v0.7c0.9-0.1,3-0.1,4.7-0.1c1.7,0,3.4,0.1,4.3,0.1v-0.7c-1.3,0-1.9-0.6-1.9-2.4v-9.6c0-2.3,1.5-4,3.4-4
			c1.7,0,2.1,1.2,2.1,2.9V24c0,1.9-0.5,2.4-1.9,2.4v0.7c0.8-0.1,2.7-0.1,4.5-0.1c1.7,0,3.7,0.1,4.5,0.1v-0.7c-1.6,0-2.2-0.6-2.2-2.4
			v-9.3c0-2.3-0.3-3.6-1-4.5C134.7,9.5,133.5,8.9,131.6,8.9z"/>
		<path fill="#FFFFFF" d="M156.8,0.2c-1.5,0.3-3.1,0.5-5,0.5c-0.7,0-1.4-0.1-2.2-0.1v0.7c1.7,0,2.2,1,2.2,3v5.8
			c-0.9-0.9-2.2-1.3-3.8-1.3c-4.4,0-7.7,3.1-7.7,9.3c0,6.6,2.9,9.4,7,9.4c2.2,0,3.7-1,4.5-3v2.9c1.5-0.3,3.1-0.5,5-0.5
			c0.7,0,1.4,0.1,2.2,0.1v-0.7c-1.7,0-2.2-1-2.2-3L156.8,0.2L156.8,0.2z M148.9,26.2c-2,0-3.3-2-3.3-7.9c0-5.7,1.4-8.4,3.8-8.4
			c1,0,1.9,0.3,2.5,1.2v12.2C151.6,25.1,150.3,26.2,148.9,26.2z"/>
		<path fill="#FFFFFF" d="M165,0.5c-1.9,0-3.1,1-3.1,2.7s1.2,2.7,3.1,2.7c1.9,0,3.1-1,3.1-2.7C168.1,1.5,166.9,0.5,165,0.5z M167.7,9
			c-1.5,0.3-3.1,0.5-5,0.5c-0.7,0-1.4-0.1-2.2-0.1V10c1.7,0,2.2,1,2.2,3v10.8c0,1.9-0.6,2.4-2.2,2.4v0.7c0.9-0.1,3-0.1,4.8-0.1
			c1.8,0,3.7,0.1,4.6,0.1v-0.7c-1.6,0-2.2-0.6-2.2-2.4V9z"/>
		<path fill="#FFFFFF" d="M178.2,8.9c-3.1,0-5.9,1.7-5.9,4.7c0,2.8,2.1,4.3,4.3,6.1c2,1.6,3.5,2.7,3.5,4.7c0,1.7-1.2,2.4-2.4,2.4
			c-2.9,0-4.2-2.6-4.7-6.4h-0.8c0,3.5-0.1,5.4-0.1,6.9h0.7c0.2-0.8,0.5-1.2,0.8-1.2c0.1,0,0.1,0,0.2,0.1c0.5,0.2,1,0.4,1.6,0.7
			c0.8,0.4,1.9,0.7,3.2,0.7c3.6,0,6.5-2,6.5-5.1c0-2.7-1.8-4.2-4.1-5.9c-2.1-1.6-4.3-2.7-4.3-4.8c0-1.4,1-2.2,2.3-2.2
			c3,0,4.1,2.8,4.4,5.3h0.7c0-3.1,0.1-4.7,0.2-6.1h-0.8c-0.1,0.9-0.4,1.3-0.8,1.3c-0.2,0-0.4-0.1-0.6-0.2
			C181.6,9.5,180.1,8.9,178.2,8.9z"/>
		<path fill="#FFFFFF" d="M194.2,9.4V3.7c-1.5,0.8-3,1.1-5,1.1v4.5h-2.9v0.7h2.9v11.6c0,2.4,0.2,3.8,1.2,4.8c0.8,0.8,1.9,1.2,3.4,1.2
			c2.6,0,4-1.5,4.7-3.6l-0.6-0.3c-0.7,1.5-1.5,2.1-2.3,2.1c-1,0-1.5-0.5-1.5-1.9V10.1h4.1V9.4C198.3,9.4,194.2,9.4,194.2,9.4z"/>
		<path fill="#FFFFFF" d="M203.9,0.5c-1.9,0-3.1,1-3.1,2.7s1.2,2.7,3.1,2.7c1.9,0,3.1-1,3.1-2.7C207,1.5,205.7,0.5,203.9,0.5z
			M206.5,9c-1.5,0.3-3.1,0.5-5,0.5c-0.7,0-1.4-0.1-2.2-0.1V10c1.7,0,2.2,1,2.2,3v10.8c0,1.9-0.6,2.4-2.2,2.4v0.7
			c0.9-0.1,3-0.1,4.8-0.1c1.8,0,3.7,0.1,4.6,0.1v-0.7c-1.6,0-2.2-0.6-2.2-2.4V9z"/>
		<path fill="#FFFFFF" d="M214.1,22.4c-1.8,0-2.9,1-2.9,2.7c0,1.6,1.1,2.7,2.9,2.7s3-1,3-2.7C217,23.4,215.9,22.4,214.1,22.4z"/>
		<path fill="#FFFFFF" d="M228.5,8.9c-4.9,0-8.5,3.3-8.5,9.5c0,6.5,3.6,9.3,8,9.3c4,0,6.1-2.9,6.8-5.4l-0.6-0.2
			c-1.4,2.3-3.2,2.8-4.5,2.8c-2.3,0-4.5-1.6-4.5-6.9c0-4.7,1.5-8.2,4.4-8.2c0.9,0,1.7,0.3,2,0.8c-1.2,0.3-2.3,1.4-2.3,2.8
			c0,1.6,1,2.6,2.7,2.6c1.6,0,2.7-1.2,2.7-2.8c0-1.3-0.8-2.5-1.9-3.2C231.8,9.3,230.3,8.9,228.5,8.9z"/>
		<path fill="#FFFFFF" d="M242.5,26.7l8.6-17.5c-2.3,0.1-4.8,0.2-7.2,0.2c-2.2,0-4.5-0.1-6.6-0.2c0.1,1.5,0.1,3.4,0.1,6.8h0.7
			c0.3-4.7,2.6-6.2,5.4-6.2h1.9l-8.6,17.5c2.3-0.1,4.8-0.2,7.2-0.2c2.2,0,4.5,0.1,6.6,0.1c-0.1-1.5-0.1-3.4-0.1-6.8h-0.7
			c-0.3,4.7-2.9,6.2-5.5,6.2L242.5,26.7L242.5,26.7z"/>
		<path fill="#FFFFFF" d="M252.7,0.9c2.1,0.1,2.6,0.8,2.6,7.3c0,6.2,3.3,7.9,6.8,8.7c-3.5,0.8-6.8,2.5-6.8,8.7c0,6.8-0.5,7.4-2.6,7.5
			v0.6c5.5,0,7.5-1.7,7.5-8.1c0-6.5,0.5-8.2,2.6-8.4h0.2v-0.6h-0.2c-2.1-0.1-2.6-1.9-2.6-8.3c0-6.1-2-8-7.5-8V0.9z"/>
	</g>
	<g id="logo-short">
		<path fill="#FFFFFF" d="M8.8,1.2c-0.4,0.4-0.6,1-0.7,2c-0.2,1-0.2,2.7-0.2,4.9c0,2-0.3,3.6-1,4.8c-0.6,1.3-1.4,2.2-2.4,2.7
			c-1,0.6-2.2,1.1-3.6,1.4c1.4,0.3,2.6,0.8,3.6,1.4s1.8,1.5,2.4,2.7s1,2.8,1,4.8c0,2.4,0.1,4,0.2,5c0.2,1,0.4,1.7,0.7,2
			c0.4,0.3,0.9,0.5,1.7,0.5v0.7c-1.9,0-3.4-0.3-4.5-0.7c-1.1-0.5-1.9-1.3-2.4-2.5c-0.5-1.2-0.8-2.9-0.8-5c0-2.3-0.1-4-0.2-5.1
			c-0.2-1.2-0.4-2-0.8-2.5c-0.4-0.5-0.9-0.8-1.7-0.9H0v-0.7h0.2c0.8-0.1,1.3-0.3,1.7-0.8c0.4-0.5,0.7-1.4,0.8-2.5
			c0.2-1.2,0.2-2.9,0.2-5.2c0-2.1,0.3-3.7,0.8-4.9s1.3-2,2.4-2.5C7,0.3,8.5,0,10.4,0v0.7C9.7,0.7,9.1,0.9,8.8,1.2z"/>
		<path fill="#FFFFFF" d="M24,4.8c3.4,0,5.9-0.1,7.3-0.1C31.1,6.7,31,8.5,31,10c0,1.1,0.1,2,0.1,2.7h-0.8c-0.3-1.8-0.7-3.2-1.3-4.3
			c-0.5-1.1-1.2-1.8-2-2.3c-0.8-0.5-1.7-0.7-2.8-0.7h-1.2c-0.8,0-1.3,0.1-1.6,0.2c-0.3,0.1-0.6,0.4-0.7,0.7c-0.1,0.4-0.2,0.9-0.2,1.7
			v8.8H22c1.3,0,2.2-0.5,2.8-1.4c0.7-0.9,1.1-2,1.4-3.3H27c-0.1,1.2-0.1,2.3-0.1,3.3v1.7c0,1.2,0.1,2.9,0.2,5h-0.8
			c-0.5-3.1-1.9-4.6-4.3-4.6h-1.3v8c0,1,0.1,1.6,0.3,2.1c0.2,0.5,0.6,0.7,1.1,0.9c0.5,0.2,1.3,0.3,2.4,0.3v0.8
			c-2.9-0.1-5-0.1-6.4-0.1c-0.7,0-2.5,0.1-5.5,0.1v-0.7c0.8-0.1,1.4-0.1,1.7-0.3c0.4-0.2,0.6-0.4,0.7-0.8c0.2-0.4,0.2-1.1,0.2-1.9
			V8.4c0-0.9-0.1-1.5-0.2-1.9c-0.2-0.4-0.4-0.7-0.7-0.8c-0.4-0.2-0.9-0.3-1.7-0.3V4.7C15.1,4.8,18.9,4.8,24,4.8z"/>
		<path fill="#FFFFFF" d="M32.2,0.7V0c1.9,0,3.4,0.3,4.5,0.8c1.1,0.5,1.9,1.3,2.4,2.5c0.5,1.2,0.8,2.8,0.8,4.9c0,2.3,0.1,4,0.2,5.2
			c0.2,1.2,0.4,2,0.8,2.5c0.4,0.5,0.9,0.8,1.7,0.8h0.2v0.7h-0.2c-0.8,0.1-1.3,0.4-1.7,0.9c-0.4,0.5-0.7,1.4-0.8,2.5
			c-0.2,1.2-0.2,2.9-0.2,5.1c0,2.2-0.3,3.8-0.8,5c-0.5,1.2-1.3,2-2.4,2.5c-1.1,0.5-2.6,0.7-4.5,0.7v-0.7c0.8,0,1.3-0.2,1.7-0.5
			c0.4-0.3,0.6-1,0.7-2c0.2-1,0.2-2.7,0.2-5c0-2,0.3-3.6,1-4.8c0.6-1.2,1.4-2.1,2.4-2.7c1-0.6,2.2-1.1,3.6-1.4
			c-1.4-0.4-2.6-0.8-3.6-1.4c-1-0.6-1.8-1.5-2.4-2.7c-0.6-1.2-1-2.8-1-4.8c0-2.3-0.1-3.9-0.2-4.9s-0.4-1.7-0.7-2
			C33.5,0.9,33,0.7,32.2,0.7z"/>
	</g>
</svg>
