<?xml version="1.0" encoding="utf-8"?>
<!-- Generator: Adobe Illustrator 23.0.1, SVG Export Plug-In . SVG Version: 6.00 Build 0)  -->
<svg version="1.1" id="Vrstva_1" xmlns="http://www.w3.org/2000/svg" xmlns:xlink="http://www.w3.org/1999/xlink" x="0px" y="0px"
	 viewBox="0 0 230 50" enable-background="new 0 0 230 50" xml:space="preserve">
<g>
	<path d="M95.6,37.2V12.8h-8l-4.7,16h-0.1l-4.8-16h-8v24.2h5.7L75.5,19l0.1-0.1l5.2,18.3h4.1l5.2-18.3l0.1,0.1L90,37.2H95.6z"/>
	<path d="M124.7,25c0-7.1-5.8-12.6-12.9-12.6c-4.1,0-7.8,1.7-10.3,5c-0.6,0.8-1.2,1.8-1.6,2.7c-0.6,1.7-1,3.3-1,5.2
		c0,7,5.9,12.3,12.8,12.3C118.9,37.6,124.7,32.2,124.7,25z M118.5,25c0,3.7-2.6,7.1-6.5,7.1c-4,0-6.7-3.3-6.7-7.2
		c0-3.8,2.6-7.1,6.7-7.1C115.8,17.8,118.5,21.3,118.5,25z"/>
	<path d="M146.8,37.2l-6.6-8.3c3.9-0.6,6.1-3.9,6.1-7.6c0-2.5-1-5-3-6.6c-2.1-1.7-4.9-1.8-7.5-1.8H128v24.2h6v-7.8h0.1l5.6,7.8
		H146.8z M140.3,21.6c0,2.5-1.8,3.5-4,3.5H134v-6.8h2.3C138.4,18.3,140.3,19.2,140.3,21.6z"/>
	<path d="M171.9,37.2l-9.7-24.3h-4.9l-9.7,24.3h6.7l1.3-3.5h8.4l1.1,3.5H171.9z M162.3,28.7h-5.1l2.5-8.3h0.1l0,0L162.3,28.7z"/>
	<path d="M192.1,12.8h-6.4l-4.9,17h-0.1l-4.9-17h-6.4l8.1,24.2h6.4L192.1,12.8z"/>
	<path d="M200.9,37.2V12.8h-6.2v24.2L200.9,37.2L200.9,37.2z"/>
	<path d="M230,25c0-7.1-5.7-12.6-12.8-12.6c-4.1,0-7.8,1.7-10.3,5c-0.6,0.8-1.2,1.8-1.6,2.7c-0.6,1.7-1,3.3-1,5.2
		c0,7,5.9,12.3,12.8,12.3C224.2,37.6,230,32.2,230,25z M223.8,25c0,3.7-2.6,7.1-6.5,7.1c-4,0-6.7-3.3-6.7-7.2c0-3.8,2.6-7.1,6.7-7.1
		C221.1,17.8,223.8,21.3,223.8,25z"/>
</g>
<g>
	<path fill="#D12021" d="M47.9,5.2L41,15.6l-0.7-5.3l-5.8-5l-6.5,2l-1.7,1.9l2.3,3l0.8-1.6h1.3l0.8,1.3l-2.2,3.7L20.9,5.2H0L3.9,10
		H17l9.4,12l2.2,10l-4.5,3l3.8,4.7l2.1-5.4h3.2c0,0,0.9,3.2,1.3,4.4c0.1,0.3,0.1,0.5,0.1,0.5l1.4-4.9h3.2l2.1,5.4l3.8-4.7l-4.5-3
		l2.2-10L52,10.1h13.1L69,5.2H47.9z M33.8,8.6l-1.7-1L34,7.3L33.8,8.6z"/>
	<polygon fill="#D12021" points="33.9,4.9 34.5,1 31.9,3.1 29.1,0.4 28.2,4.1 25,3.9 27.4,6.8 	"/>
	<polygon fill="#D12021" points="50.8,16.4 57.3,20.6 63.3,13.3 53.3,13.3 	"/>
	<polygon fill="#D12021" points="47.2,20.7 52.5,26.6 56,22.3 49.5,18.1 	"/>
	<polygon fill="#D12021" points="44.4,24.4 42.8,31.7 46.3,34.1 51.1,28.3 45.8,22.4 	"/>
	<polygon fill="#D12021" points="35.9,43.4 33.1,43.4 31.5,36.6 30,43.1 34.5,48.6 39,43.1 37.5,36.6 	"/>
	<polygon fill="#D12021" points="24.6,24.4 23.2,22.4 18,28.3 22.8,34.1 26.4,31.7 	"/>
	<polygon fill="#D12021" points="19.6,18 13.1,22.2 16.6,26.4 21.9,20.6 	"/>
	<polygon fill="#D12021" points="15.8,13.2 5.8,13.2 11.8,20.5 18.3,16.2 	"/>
</g>
</svg>
