<svg width="267" height="101" viewBox="0 0 267 101" fill="none" xmlns="http://www.w3.org/2000/svg">
<path fill-rule="evenodd" clip-rule="evenodd" d="M39.5524 50.6517C39.5524 54.2228 41.37 58.0752 45.3697 58.0752C48.3358 58.0752 51.3349 55.767 51.3349 50.5993C51.3349 46.0685 48.9773 43.0268 45.4683 43.0268C42.6091 43.0268 39.5524 45.0289 39.5524 50.6517ZM46.8774 36.4113C54.0489 36.4113 58.871 42.0727 58.871 50.5C58.871 58.7949 53.7912 64.5859 46.5293 64.5859C43.0669 64.5859 40.8491 63.1078 39.6895 62.0379C39.6977 62.2916 39.7032 62.5756 39.7032 62.879V74.1273H32.274V44.1574C32.274 43.7217 32.1342 43.5839 31.701 43.5839H29.146V37.0207H35.38C38.2502 37.0207 38.9849 38.4768 39.1247 39.5991C40.2898 38.2975 42.705 36.4113 46.8774 36.4113ZM68.8481 56.8919C68.8481 57.3028 69.0071 57.4682 69.4183 57.4682H71.976V63.9734H65.3281C62.6607 63.9734 61.4161 62.7077 61.4161 59.9832V44.1572C61.4161 43.7242 61.2763 43.5836 60.8459 43.5836H58.2882V37.0205H64.9279C67.5624 37.0205 68.8481 38.3276 68.8481 41.0107V56.8919ZM86.7417 58.0752C89.7162 58.0752 92.7125 55.767 92.7125 50.5993C92.7125 46.0685 90.3549 43.0268 86.8459 43.0268C83.9839 43.0268 80.9272 45.0289 80.9272 50.6517C80.9272 54.2228 82.753 58.0752 86.7417 58.0752ZM88.2577 36.4113C95.4265 36.4113 100.246 42.0727 100.246 50.5C100.246 58.7949 95.1715 64.5859 87.9068 64.5859C84.4472 64.5859 82.2212 63.1078 81.0671 62.0379C81.0753 62.2916 81.0835 62.5756 81.0835 62.879V74.1273H73.6488V44.1574C73.6488 43.7217 73.509 43.5839 73.0786 43.5839H70.5236V37.0207H76.7603C79.6305 37.0207 80.3625 38.4768 80.4996 39.5991C81.6702 38.2975 84.0798 36.4113 88.2577 36.4113ZM108.623 46.6098H118.492C118.188 44.1776 116.466 42.4651 114.229 42.4651C111.444 42.4651 109.429 43.9653 108.623 46.6098ZM114.229 36.4121C121.368 36.4121 126.165 41.5634 126.165 49.2296C126.165 50.0072 126.02 51.5983 126.006 51.6645L125.965 52.1554H108.346C108.99 55.7403 111.715 58.0264 115.438 58.0264C119.317 58.0264 122.253 55.3046 122.286 55.2798L122.766 54.822L126.004 60.2242L125.705 60.522C125.535 60.6875 121.535 64.5868 114.989 64.5868C106.666 64.5868 100.626 58.6606 100.626 50.5008C100.626 42.2059 106.224 36.4121 114.229 36.4121ZM139.939 58.0752C142.798 58.0752 145.857 56.0759 145.857 50.4503C145.857 46.7524 144.056 43.0268 140.04 43.0268C136.498 43.0268 134.119 46.0271 134.119 50.5C134.119 55.0997 136.405 58.0752 139.939 58.0752ZM153.188 56.8922C153.188 57.303 153.347 57.4685 153.758 57.4685H156.261V63.9737H149.824C147.044 63.9737 146.296 62.5012 146.145 61.3375C144.991 62.6721 142.628 64.5859 138.53 64.5859C131.358 64.5859 126.539 58.9273 126.539 50.5C126.539 42.2051 131.569 36.4113 138.779 36.4113C142.466 36.4113 144.607 37.7212 145.704 38.7167V34.0122C145.704 33.5765 145.564 33.4386 145.134 33.4386H142.576V26.8727H149.215C151.886 26.8727 153.188 28.1798 153.188 30.863V56.8922ZM172.794 36.6647C173.389 36.6647 174.019 36.7668 174.041 36.7723L174.494 36.8495V44.2785L173.874 44.1848C173.863 44.182 173.244 44.091 172.391 44.091C169.987 44.091 167.015 45.4146 165.897 49.1347C165.546 50.4004 165.365 51.7682 165.365 53.1884V63.9734H157.936V44.1572C157.936 43.7215 157.793 43.5836 157.363 43.5836H154.808V37.0205H161.195C163.827 37.0205 165.167 38.2614 165.167 40.7046V41.3196C166.856 38.4599 169.702 36.6647 172.794 36.6647ZM185.069 56.8919C185.069 57.3028 185.228 57.4682 185.639 57.4682H188.2V63.9734H181.557C178.884 63.9734 177.637 62.7077 177.637 59.9832V44.1572C177.637 43.7242 177.5 43.5836 177.067 43.5836H175.148V37.0205H181.154C183.789 37.0205 185.069 38.3276 185.069 41.0107V56.8919ZM213.118 37.021V43.5841H211.977C211.396 43.5841 211.204 43.7827 211.067 44.1467L203.569 63.974H195.214L187.716 44.1467C187.579 43.7827 187.392 43.5841 186.811 43.5841H185.717V37.021H189.934C192.28 37.021 193.481 37.8042 194.224 39.809L199.068 53.4123C199.252 53.917 199.419 54.4906 199.559 55.0338C199.693 54.4906 199.849 53.9252 200.017 53.4206L204.861 39.8117C205.595 37.829 206.837 37.021 209.154 37.021H213.118ZM220.306 46.6098H230.175C229.871 44.1776 228.152 42.4651 225.91 42.4651C223.127 42.4651 221.12 43.9653 220.306 46.6098ZM225.91 36.4121C233.054 36.4121 237.854 41.5634 237.854 49.2296C237.854 50.0072 237.703 51.5983 237.695 51.6645L237.654 52.1554H220.029C220.674 55.7403 223.399 58.0264 227.124 58.0264C230.99 58.0264 233.942 55.3046 233.967 55.2798L234.46 54.822L237.689 60.2242L237.388 60.522C237.221 60.6875 233.218 64.5868 226.669 64.5868C218.346 64.5868 212.312 58.6606 212.312 50.5008C212.312 42.2059 217.908 36.4121 225.91 36.4121ZM61.7166 26.8746H68.3398V33.8928H61.7166V26.8746ZM177.938 26.8746H184.564V33.8928H177.938V26.8746Z" fill="#192435"/>
</svg>
