<?xml version="1.0" encoding="utf-8"?>
<!-- Generator: Adobe Illustrator 23.0.1, SVG Export Plug-In . SVG Version: 6.00 Build 0)  -->
<svg version="1.1" id="Vrstva_1" xmlns="http://www.w3.org/2000/svg" xmlns:xlink="http://www.w3.org/1999/xlink" x="0px" y="0px"
	 viewBox="0 0 169 86" enable-background="new 0 0 169 86" xml:space="preserve">
<path fill-rule="evenodd" clip-rule="evenodd" fill="#313131" d="M0,31h3.9v3.2H4c0.3-0.6,0.6-1.1,1.1-1.5c0.4-0.4,0.9-0.8,1.5-1.2
	c0.5-0.3,1.1-0.6,1.8-0.8c0.6-0.2,1.3-0.3,1.9-0.3c0.6,0,1.2,0.1,1.8,0.3L11.8,35c-0.3-0.1-0.6-0.2-1-0.2c-0.3-0.1-0.6-0.1-1-0.1
	c-1.9,0-3.4,0.5-4.4,1.6c-1,1.1-1.5,2.8-1.5,5v10.4H0V31z M14.4,41.4c0-1.5,0.3-2.9,0.8-4.2s1.3-2.5,2.3-3.5c1-1,2.2-1.8,3.5-2.3
	c1.3-0.6,2.8-0.8,4.3-0.8c1.6,0,3,0.3,4.3,0.8c1.3,0.6,2.5,1.3,3.5,2.3c1,1,1.8,2.1,2.3,3.5s0.8,2.7,0.8,4.2c0,1.5-0.3,2.9-0.8,4.3
	s-1.3,2.5-2.3,3.5c-1,1-2.2,1.8-3.5,2.3c-1.3,0.6-2.8,0.8-4.3,0.8c-1.6,0-3-0.3-4.3-0.8c-1.3-0.6-2.5-1.3-3.5-2.3
	c-1-1-1.8-2.1-2.3-3.5C14.7,44.3,14.4,42.9,14.4,41.4 M18.6,41.4c0,1.1,0.2,2,0.5,2.9c0.3,0.9,0.8,1.6,1.3,2.3
	c0.6,0.6,1.3,1.1,2.1,1.5c0.8,0.4,1.8,0.6,2.8,0.6c1.1,0,2-0.2,2.8-0.6c0.8-0.4,1.6-0.9,2.1-1.5c0.6-0.6,1-1.4,1.3-2.3
	c0.3-0.9,0.5-1.9,0.5-2.9c0-1.1-0.2-2-0.5-2.9c-0.3-0.9-0.8-1.6-1.3-2.3c-0.6-0.6-1.3-1.1-2.1-1.5c-0.8-0.4-1.8-0.6-2.8-0.6
	c-1.1,0-2,0.2-2.8,0.6c-0.8,0.4-1.6,0.9-2.1,1.5s-1,1.4-1.3,2.3C18.8,39.3,18.6,40.3,18.6,41.4"/>
<path fill-rule="evenodd" clip-rule="evenodd" fill="#313131" d="M41.4,18.7h3.9v15.5h0.1c0.5-1.1,1.3-2,2.6-2.7
	c1.2-0.7,2.6-1,4.2-1c1,0,1.9,0.1,2.9,0.5c0.9,0.3,1.7,0.8,2.4,1.4c0.7,0.6,1.2,1.5,1.6,2.5c0.4,1,0.6,2.2,0.6,3.6v13.3h-3.9V39.5
	c0-1-0.1-1.8-0.4-2.5c-0.3-0.7-0.6-1.2-1.1-1.7c-0.4-0.4-0.9-0.7-1.5-0.9c-0.6-0.2-1.2-0.3-1.8-0.3c-0.8,0-1.6,0.1-2.3,0.4
	c-0.7,0.3-1.3,0.7-1.8,1.2c-0.5,0.6-0.9,1.3-1.2,2.2c-0.3,0.9-0.4,1.9-0.4,3.1v10.7h-3.9L41.4,18.7L41.4,18.7L41.4,18.7z M66,18.7
	h3.9v33.1H66V18.7z M75.6,23.6c0-0.8,0.3-1.5,0.8-2s1.2-0.8,2-0.8s1.5,0.3,2,0.8s0.8,1.2,0.8,2s-0.3,1.5-0.8,2
	c-0.6,0.6-1.2,0.8-2,0.8s-1.5-0.3-2-0.8C75.9,25,75.6,24.4,75.6,23.6 M76.5,31h3.9v20.7h-3.9V31L76.5,31z M86.7,18.7h3.9V40l8.9-9
	h5.5l-9.7,9.4l10.5,11.3h-5.6L90.6,41v10.8h-3.9C86.7,51.7,86.7,18.7,86.7,18.7z"/>
<path fill-rule="evenodd" clip-rule="evenodd" fill="#767676" d="M72.7,75.7c0-0.4,0.1-0.8,0.4-1.1c0.3-0.3,0.6-0.4,1.1-0.4
	c0.4,0,0.8,0.1,1.1,0.4c0.3,0.3,0.4,0.6,0.4,1.1c0,0.4-0.1,0.8-0.4,1.1c-0.3,0.3-0.6,0.4-1.1,0.4c-0.4,0-0.8-0.1-1.1-0.4
	S72.7,76.1,72.7,75.7"/>
<path fill-rule="evenodd" clip-rule="evenodd" fill="#767676" d="M92.7,74.9c-0.7,0.8-1.5,1.5-2.4,1.9c-0.9,0.4-1.8,0.6-2.9,0.6
	c-1.1,0-2.1-0.2-3-0.6c-0.9-0.4-1.7-0.9-2.4-1.6s-1.2-1.5-1.6-2.4s-0.6-1.9-0.6-3s0.2-2.1,0.6-3s0.9-1.7,1.6-2.4
	c0.7-0.7,1.5-1.2,2.4-1.6c0.9-0.4,2-0.6,3-0.6c1.1,0,2,0.2,2.9,0.6c0.9,0.4,1.7,1.1,2.4,1.8l-1.5,1.1c-0.5-0.6-1.1-1.1-1.8-1.4
	c-0.6-0.4-1.3-0.5-2.1-0.5c-0.9,0-1.7,0.1-2.4,0.5c-0.7,0.3-1.3,0.7-1.8,1.3c-0.5,0.5-0.9,1.1-1.1,1.9s-0.4,1.5-0.4,2.3
	c0,0.8,0.1,1.6,0.4,2.3s0.6,1.3,1.1,1.9c0.5,0.5,1.1,0.9,1.8,1.3c0.7,0.3,1.5,0.5,2.4,0.5c0.8,0,1.5-0.2,2.2-0.5
	c0.6-0.4,1.2-0.8,1.7-1.4L92.7,74.9z M94,75.9l8.6-11.6h-8.2v-1.7h10.8v1.1l-8.6,11.6h9V77H94V75.9z"/>
<g>
	<defs>
		<path id="SVGID_1_" d="M154.9,70.7c-7.3,1.4-11.9,7.8-11.1,8.5c0.8,0.8,5,3.3,5.3,3c4.6-3.8,13-4.1,13.7-3.2
			c0.7,0.9-0.7-7.6-0.7-7.6s-0.8-1-3.8-1C157.4,70.4,156.3,70.4,154.9,70.7 M145,58.1c-7.3,1.4-11.9,7.8-11.1,8.5
			c0.8,0.8,3.1,9.3,3.4,8.9c3.7-4.9,10.9-9.8,15.6-9.2c0.7,0.1,0.9-2.5,0.5-4.6c-0.2-1.4-1-2.7-1-2.7s-0.2-1.4-3.5-1.4
			C147.9,57.7,146.6,57.8,145,58.1 M141.1,22.3c-3.8,2.9-12,2.6-17.6,0.2c-0.4-0.2,1.3,8.1,1,9.1c-0.3,1,6.9,4.3,13.9,1.8
			c6.8-2.4,5.9-4.5,5.9-4.5s0.2-1-0.2-2c-0.7-2-2.2-4.6-2.9-4.6C141.2,22.3,141.1,22.3,141.1,22.3 M143.2,7
			c-0.2,1.1-7.6,5.1-13.5,4.1c-0.5-0.1-2.8,4.2-3.1,5.2c-0.3,1,6.9,4.3,13.9,1.8c5.5-1.9,6-4.3,6-4.3s0.2-1.9-0.1-2.8
			c-0.6-2-2.5-4.1-3.1-4.1C143.3,6.8,143.3,6.9,143.2,7"/>
	</defs>
	<clipPath id="SVGID_2_">
		<use xlink:href="#SVGID_1_"  overflow="visible"/>
	</clipPath>
	
		<linearGradient id="SVGID_3_" gradientUnits="userSpaceOnUse" x1="-74.676" y1="59.3315" x2="-74.4913" y2="59.3315" gradientTransform="matrix(-265.923 122.734 122.734 265.923 -26964.7832 -6582.4092)">
		<stop  offset="0" style="stop-color:#9D5D00"/>
		<stop  offset="1" style="stop-color:#E58035"/>
	</linearGradient>
	<path clip-path="url(#SVGID_2_)" fill-rule="evenodd" clip-rule="evenodd" fill="url(#SVGID_3_)" d="M192.3,69.2l-62.2,28.7
		L94.2,20.1l62.2-28.7L192.3,69.2L192.3,69.2z"/>
</g>
<g>
	<defs>
		<path id="SVGID_4_" d="M160.4,79.3c-1.4,2.8-4.4,4.8-5.9,5.4c2.5,0.7,5.1,1.1,7.7,1.3c0,0,0,0,0,0c0.7,0.1,1.5,0,2.3-0.2
			c3.2-0.9,5.2-4.2,4.3-7.4c-0.5-1.7-1.7-3.2-3.2-3.9c-1.3-1-2.5-2.1-3.8-3.3C162,71.9,162.4,75.4,160.4,79.3 M141.4,78.9
			c2.3,1.4,4.6,2.7,7.1,3.7c1-0.4,3.7-2,6.8-7.3c2.9-4.8,2-9.2,2-9.2c-1.8-2.3-3.5-4.7-5-7.4C152.9,63.6,147.2,74.3,141.4,78.9
			 M121.3,51.6c2.7,9.9,8.3,18.3,15.8,24.2c8.7-5.8,12.8-18.4,9.3-31.3c-3.4-12.7-13.1-21.5-23.4-22.4
			C119.5,31.2,118.6,41.5,121.3,51.6 M129.5,11c-1.6,2-2.9,4.2-4.2,6.4c7.2,1.1,17,7.3,19.1,12c0-3,0.2-5.9,0.6-8.8
			c-0.7-1.8-3.2-4.9-5.8-6.6c-4-2.6-7.2-3.1-8.9-3.1C130,11,129.7,11,129.5,11 M141.9,0.2c-0.5,0.1-0.9,0.3-1.3,0.5v0
			c-2.5,1.7-4.9,3.6-7,5.7c1.5-0.4,5-0.2,7.7,1.6c3.6,2.3,4.9,5.2,5.2,6c0.6-2,1.3-3.9,2.1-5.7c0,0,0,0,0,0c0.5-1.2,0.7-2.6,0.3-3.9
			c-0.7-2.6-3-4.3-5.6-4.3C142.9,0,142.4,0.1,141.9,0.2"/>
	</defs>
	<clipPath id="SVGID_5_">
		<use xlink:href="#SVGID_4_"  overflow="visible"/>
	</clipPath>
	
		<linearGradient id="SVGID_6_" gradientUnits="userSpaceOnUse" x1="-75.9456" y1="61.6353" x2="-75.7609" y2="61.6353" gradientTransform="matrix(272.42 -784.689 -784.689 -272.42 69157.6328 -42644.2305)">
		<stop  offset="0" style="stop-color:#CE7014"/>
		<stop  offset="0" style="stop-color:#CE7014"/>
		<stop  offset="1" style="stop-color:#FBBD47"/>
	</linearGradient>
	<path clip-path="url(#SVGID_5_)" fill-rule="evenodd" clip-rule="evenodd" fill="url(#SVGID_6_)" d="M91.9,76.8l32.2-92.6
		l72.2,25.1l-32.2,92.6L91.9,76.8L91.9,76.8z"/>
</g>
<path fill-rule="evenodd" clip-rule="evenodd" fill="#FFFFFF" fill-opacity="0.1" d="M144.4,29.4c0-3,0.2-5.9,0.6-8.8
	c-0.7-1.8-3.2-4.9-5.8-6.6c-4.8-3.2-8.6-3.1-9.8-3c-1.6,2-2.9,4.2-4.2,6.4C132.5,18.6,142.3,24.7,144.4,29.4 M157.3,66.2
	c-1.8-2.3-3.5-4.7-5-7.4c0.6,4.8-5,15.6-10.9,20.1c2.3,1.4,4.6,2.7,7.1,3.7c1-0.4,3.7-2,6.8-7.3C158.2,70.5,157.3,66.2,157.3,66.2
	 M141.3,7.9c3.6,2.3,4.9,5.2,5.2,6c0.6-2,1.3-3.9,2.1-5.7c0,0,0,0,0,0c0.5-1.2,0.7-2.6,0.3-3.9c-0.8-3.1-4-4.9-7.1-4.1
	c-0.5,0.1-0.9,0.3-1.3,0.5v0c-2.5,1.7-4.9,3.6-7,5.7C135,6,138.5,6.2,141.3,7.9 M168.8,78.4c-0.5-1.7-1.7-3.2-3.2-3.9
	c-1.3-1-2.5-2.1-3.8-3.3c0.1,0.8,0.6,4.3-1.5,8.1c-1.4,2.8-4.4,4.8-5.9,5.4c2.5,0.7,5.1,1.1,7.7,1.3c0,0,0,0,0,0
	c0.7,0.1,1.5,0,2.3-0.2C167.7,84.9,169.7,81.6,168.8,78.4 M146.5,44.6c-3.4-12.7-13.1-21.5-23.4-22.4c-3.6,9-4.5,19.3-1.7,29.4
	c2.7,9.9,8.3,18.3,15.8,24.2C145.8,70.1,149.9,57.4,146.5,44.6"/>
</svg>
