<svg xmlns="http://www.w3.org/2000/svg" width="469.411" height="95.114" viewBox="0 0 469.411 95.114">
  <g id="seznam_logo" transform="translate(-194.754 -244.924)">
    <path id="Path_167" data-name="Path 167" d="M240.853,250.087c-2.7.432-5.3.973-7.891,1.513-1.73.324-3.459.757-5.189,1.189-1.621.432-3.243.757-4.756,1.3-1.513.432-3.027.973-4.432,1.513a29.165,29.165,0,0,0-7.891,4.648,20.126,20.126,0,0,0-3.892,4.108,34.653,34.653,0,0,0-2.054,3.351,7.586,7.586,0,0,0-.973,3.783c0,3.784,2.378,7.026,5.189,9.4a27.676,27.676,0,0,0,2.811,2.162,71.909,71.909,0,0,0,9.3,5.4q5.027,2.432,10.053,4.54c3.243,1.405,6.486,2.486,9.837,3.675.973.324,1.946.649,2.811.973,3.027.973,6.053,1.946,9.08,3.027a59.933,59.933,0,0,1,5.621,2.162,28.208,28.208,0,0,1,5.621,3.027,9.331,9.331,0,0,1,2.811,3.027,7.446,7.446,0,0,1,1.189,3.891,6.954,6.954,0,0,1-1.081,3.783c-1.838,2.919-5.081,4.864-8.215,6.27a131.581,131.581,0,0,1-14.269,5.081c-2.811.865-5.513,1.621-8.324,2.378l-8.432,2.27q-4.216,1.135-8.432,1.946c-1.621.324-3.243.649-4.864,1.081l-2.919.649c-2.054.432-4,.865-6.053,1.3-2.27.541-4.648.973-6.918,1.513-.649.108-1.3.324-2.054.432-.649.108-2.811.649-1.189.541,2.27-.108,8.54-.649,21.728-2.486,4.756-.757,9.621-1.513,14.377-2.27q8.918-1.459,17.836-3.567c1.73-.432,3.351-.865,5.081-1.3l3.243-.973c4.648-1.405,12.107-4,13.837-4.756,6.7-2.919,10.918-5.189,13.08-10.485a12.729,12.729,0,0,0,.865-6.054,13.481,13.481,0,0,0-1.838-5.3,24.888,24.888,0,0,0-3.459-4.108,37.528,37.528,0,0,0-8.107-5.621,25.992,25.992,0,0,0-2.486-1.189c-1.081-.54-2.162-.973-3.243-1.405-1.513-.649-3.027-1.189-4.648-1.73-4-1.405-8.107-2.594-12.215-4-2.27-.757-4.54-1.621-6.81-2.486-.973-.432-1.838-.865-2.811-1.3a29.109,29.109,0,0,1-3.135-1.73c-1.3-.757-3.351-2.054-2.811-3.892.432-1.3,1.838-1.838,2.919-2.27a18.488,18.488,0,0,1,3.243-.973c3.351-.865,6.81-1.405,10.161-2.162.973-.216,1.946-.432,3.027-.649a65.047,65.047,0,0,0,7.891-2.054c2.162-.865,4.973-2.27,5.729-4.54,1.189-3.459-.108-7.243-2.054-10.161-.649-1.081-1.405-2.054-2.054-3.135-.973-1.405-2.054-2.7-3.135-4-.432-.649-1.081-.541-1.621-.432-.865.216-2.594,2.27-17.079,5.081" transform="translate(0)" fill="#d50911" fill-rule="evenodd"/>
    <path id="Path_168" data-name="Path 168" d="M452.953,283.3l.216-.432.216-.432.216-.324.216-.324.108-.324.108-.216.108-.216.108-.108.324-.649.216-.324.216-.324.541-.865.324-.432.324-.541.108-.108h.108l.216.108.108.108.216.216.324.432.324.649.432.865.432,1.081.432,1.3.108.216.108.324.216.432.216.649v.216l.108.324.108.216v.865l-.216.216-.108.108-.324.108-.324.108-.432.108h-.432l-2.7.216h-2.7l-.324-.108-.216-.108-.216-.108-.108-.108-.108-.216v-.432l.108-.324.216-.324.216-.324.216-.324.216-.216.108-.216.108-.216.216-.216m-17.62,13.188.432.108c1.513.432,2.27,1.405,1.081,2.811a15.8,15.8,0,0,0-.973,1.405l-.216.432a2.648,2.648,0,0,0-.432,1.3v.216a6.574,6.574,0,0,0,.973,1.946,22.839,22.839,0,0,0,2.27,3.351c.108.216,1.838-2.7,2.054-2.919.649-.865,1.405-1.621,2.054-2.486a12.02,12.02,0,0,1,2.919-2.811,9.5,9.5,0,0,1,3.892-1.081c1.3-.108,2.7-.216,4-.324,2.7-.108,5.513-.432,8.215-.757a7.91,7.91,0,0,1,3.567.108,11.33,11.33,0,0,1,2.378,2.162,30.763,30.763,0,0,1,2.486,2.811c.973,1.081,1.838,2.27,2.919,3.351.649.649,1.405,1.189,2.162,1.838l.432.216c1.405.649,2.27-.216,2.594-1.621.432-2.054-.757-4-1.621-5.729-.541-.973-.973-1.946-1.405-2.811-.324-.757-.757-2.054-.108-2.811a4.378,4.378,0,0,1,2.27-.757c.865-.216,1.621-.432,2.486-.649,1.621-.324,3.351-.757,5.081-.973.973-.108,2.486-.865,3.351,0,1.081,1.081,0,3.135-.324,4.324a28.491,28.491,0,0,0-1.621,5.945,7.088,7.088,0,0,0,1.405,5.3c.865,1.081,2.378,2.054,3.675,1.189a6.955,6.955,0,0,0,2.378-3.135c.865-2.162,1.513-4.432,2.27-6.594.649-1.946,1.3-4,2.054-5.945.54-1.405,1.189-2.811,1.73-4.324.324-.973.865-1.838,1.189-2.7.324-.757.432-1.73,1.189-2.27.973-.54,2.054,1.081,2.486,1.73.865,1.081,1.621,2.27,2.378,3.351.865,1.189,1.621,2.919,3.027,3.567,2.378,1.189,4.54-1.621,5.837-3.135.973-1.081,1.838-2.162,2.811-3.243s2.054-2.27,3.027-3.351c.649-.757,1.513-2.162,2.594-2.162.973,0,1.189.973,1.189,1.73.432,3.567.54,7.134,1.081,10.7l.649,3.892.324,1.838c.216.865.324,1.73.541,2.594.432,1.838.865,3.675,1.405,5.4a8.268,8.268,0,0,0,2.378,4.216,3.442,3.442,0,0,0,5.081-.865,2.462,2.462,0,0,0,.324-1.189,7.557,7.557,0,0,0,0-2.7c-.216-3.135-1.081-6.162-1.189-9.3,0-1.3.108-2.594.216-3.892.216-3.027.648-6.053.757-9.08.216-3.675.541-7.567-.54-11.134a11.964,11.964,0,0,0-1.3-2.919,9.02,9.02,0,0,0-1.73-2.27,6.7,6.7,0,0,0-2.378-1.838,9.351,9.351,0,0,0-2.811-.865c-2.27-.108-4.648,1.189-6.378,2.486a27.8,27.8,0,0,0-4.216,3.783,88.3,88.3,0,0,0-6.594,7.675c-.541.757-1.3,2.162-2.486,2.054-1.405-.216-2.162-2.27-2.594-3.459-.432-1.081-.865-2.054-1.405-3.135l-1.946-3.892a11.386,11.386,0,0,0-1.838-3.135,6.579,6.579,0,0,0-3.351-1.946,3.94,3.94,0,0,0-3.135-.108c-1.189.757-.973,2.486-1.081,3.675-.108,1.081-.216,2.054-.324,3.027a56.268,56.268,0,0,1-.973,7.459,5.373,5.373,0,0,1-1.513,3.135,4.927,4.927,0,0,1-2.486.54h-2.054c-1.621,0-3.135-.108-4.756-.108-1.3,0-2.7.108-4,.216-1.189,0-2.378.216-3.567.216-1.405.108-3.027.324-4.324-.324a4.519,4.519,0,0,1-1.946-2.486,29.248,29.248,0,0,0-2.27-4c-.649-1.189-1.405-2.378-2.054-3.459-.973-1.621-2.054-3.351-3.027-4.973-.649-1.081-1.405-2.162-2.054-3.243-.54-.865-1.3-2.054-2.378-2.378a1.6,1.6,0,0,0-2.054,1.189c-.108.649,0,1.189-.108,1.838a9.2,9.2,0,0,1-.649,1.838,21.8,21.8,0,0,1-1.946,3.459c-2.378,3.783-4.216,7.891-6.27,11.783a21.442,21.442,0,0,0-1.189,2.162c-.54.973-.865,1.838-2.054,2.162-1.081.324-2.27.108-3.351.432-1.3.324-1.73,1.513-1.946,2.7-.216,1.081-.216,2.162-.432,3.243a8.866,8.866,0,0,0-.216,2.378ZM288.861,318.328c-1.081,0-2.162.216-3.243.216a3.076,3.076,0,0,1-2.594-1.946,32.2,32.2,0,0,1-1.189-4.324,12.966,12.966,0,0,1-.432-4.108,2.475,2.475,0,0,1,.865-1.838c.973-.757,2.27-.324,3.351-.865a3.386,3.386,0,0,0,1.3-2.594,38.187,38.187,0,0,0-.108-4.973c-.216-4.216,0-8.432-.54-12.647a2.485,2.485,0,0,0-1.513-2.378c-2.054-.54-2.162-2.7-2.27-4.432a8.045,8.045,0,0,1,.324-3.567c.649-1.405,2.27-2.162,3.675-2.7,1.405-.432,2.811-.865,4.216-1.189a30.613,30.613,0,0,1,4.324-.865l4.54-.649c1.513-.216,2.919-.432,4.432-.541,1.405-.108,2.811-.324,4.216-.432,1.621-.108,3.243-.216,4.864-.216,1.513-.108,2.919,0,4.432,0s2.919.108,4.324.108c1.513,0,3.027.216,4.432.324a14.645,14.645,0,0,1,6.054,1.838c1.946,1.3,3.135,3.892,1.3,5.729-1.946,1.946-4.973,1.621-7.459,1.621-2.054,0-4.108,0-6.054.108s-3.892.216-5.837.432c-1.838.108-3.675.216-5.4.432-1.838.108-3.783.324-5.621.54-1.513.108-3.027.324-4.432.54a6.729,6.729,0,0,0-3.675,1.405,2.7,2.7,0,0,0-.432,2.7c.54,1.73,3.135,1.3,4.54,1.189,3.135-.108,6.162-.649,9.3-.865,1.405-.108,2.811-.108,4.216-.216,1.73-.108,3.459-.108,5.189-.108a29.23,29.23,0,0,1,4.432.54,22.843,22.843,0,0,1,5.189,1.838c2.162.757,1.838,3.459,1.405,5.189a3.283,3.283,0,0,1-1.3,2.27c-1.838,1.189-4.54.865-6.594.865-2.054.108-4.108.216-6.162.432-3.243.324-6.378.649-9.621.973-1.946.216-3.892.541-5.837.757-1.3.108-3.027,0-4.108.973l-.216.216-.108.108-.108.216-.108.216c-.108.865-.973,3.567-.108,4.216l.216.108h.324c1.081,0,2.162-.108,3.243-.108,1.621-.108,3.243-.108,4.864-.324,3.135-.216,6.27-.54,9.4-.757,2.054-.216,4.108-.324,6.27-.432,3.135-.324,6.162-.432,9.3-.54,1.838-.108,3.675,0,5.4-.865,2.054-.865,3.784-2.486,5.729-3.567,2.486-1.3,5.081-2.486,7.675-3.675,3.135-1.513,6.162-3.243,9.4-4.648,2.486-1.081,4.973-2.162,7.351-3.243,1.189-.54,2.378-.973,3.567-1.621.757-.432,2.811-1.405,2.27-2.7-.216-.649-1.081-.757-1.73-.757-2.378-.324-8.216.108-11.891.757-5.837.973-6.7,1.838-8.324.216-1.189-1.3-.973-3.243-.757-4.864a13.576,13.576,0,0,1,1.513-4.864c1.73-2.27,7.242-2.486,9.837-2.7,1.3-.108,2.7-.108,4.108-.108,1.946,0,3.783.108,5.729.108l4.864.324a26.254,26.254,0,0,1,5.729.865c.541.216,1.189.432,1.73.649a13.5,13.5,0,0,1,4.864,3.675,7.453,7.453,0,0,1,1.513,3.243,4.679,4.679,0,0,1,.108,1.73,7.11,7.11,0,0,1-.432,1.621l-.108.108a5.256,5.256,0,0,1-1.189,1.513c-2.162,1.946-5.4,2.7-8.107,3.783-1.3.54-2.594,1.189-3.891,1.73-3.675,1.621-7.243,3.351-11.026,4.864-3.027,1.3-6.162,2.594-9.08,4.108a8.255,8.255,0,0,0-2.486,1.838c-.432.865.54.865,1.3.865a15.966,15.966,0,0,0,2.27-.108l6.81-.649c2.27-.216,4.648-.432,6.918-.757,2.162-.324,4.324-.54,6.486-.757,2.378-.216,4.648-.324,7.026-.324a37.778,37.778,0,0,1,7.026.432l.324.108h.649a2.673,2.673,0,0,0,2.594-1.081,44.248,44.248,0,0,0,1.946-5.3c.757-2.27,1.513-4.432,2.378-6.594a7.444,7.444,0,0,1,.324-.865c.865-2.486,1.838-4.972,2.811-7.459a24.95,24.95,0,0,0,1.081-3.027,9.34,9.34,0,0,1,.757-2.27c.649-1.189,1.73-1.946,2.919-1.081a10.1,10.1,0,0,1,2.27,2.919,16.537,16.537,0,0,1,1.405,3.459,5.443,5.443,0,0,1-.432,3.459,36.579,36.579,0,0,0-1.189,3.675c-.649,2.7,1.946,4.756,3.892,5.945a57.13,57.13,0,0,0,5.837,2.7,16.545,16.545,0,0,0,4.432,1.513,3.886,3.886,0,0,0,2.919-.216c1.3-.973,1.73-2.811,2.162-4.324a50.846,50.846,0,0,0,1.3-5.513c.324-1.513.54-3.135.757-4.648.108-1.189.216-2.486.324-3.675a34.943,34.943,0,0,0-.108-4.756,5.083,5.083,0,0,1,.865-3.135c.973-1.081,2.594-.54,3.351.54l.324.324a10.967,10.967,0,0,1,1.081,2.594,25.186,25.186,0,0,1,.865,4.973c.108,1.405.216,2.7.324,4.108a90.21,90.21,0,0,1-.757,14.269c-.324,2.594-.865,4.973-1.405,7.567a12.5,12.5,0,0,1-2.7,6.486,7,7,0,0,1-.973.865c-1.3.865-3.027.757-4.432.649a28,28,0,0,1-5.945-1.405,25.184,25.184,0,0,1-3.567-1.513c-1.189-.541-2.378-1.189-3.567-1.838a35.5,35.5,0,0,1-3.351-2.162,16.13,16.13,0,0,1-2.919-2.486,25.376,25.376,0,0,1-2.054-2.7c-.757-.865-1.405-1.189-1.838,0a16.707,16.707,0,0,0-.649,2.486c-.324,1.513-.757,2.919-1.189,4.324s-2.27,5.3-4.324,3.459c-.649-.54-1.189-1.3-2.162-1.3a14.155,14.155,0,0,0-2.919.649c-1.081.216-2.054.324-3.135.54-1.946.432-4,.865-5.945,1.3-1.3.216-2.594.432-4,.649-1.3.216-2.594.432-3.783.54-1.3.216-2.594.432-4,.54-2.054.216-4.108.541-6.162.757-1.621.216-3.243.432-4.973.54-1.405.108-2.7.324-4.108.432-2.27.216-4.54.432-6.918.54-3.459.108-7.134.324-10.486-.324a4.081,4.081,0,0,1-2.486-.865c-.432-.432-.108-1.081-.432-1.513v-.108l-.108-.108-.108-.108-.108-.108h-.324l-.108.108-.216.108-.757-.216-.324.216-.216.216-.108.216-.108.324c-.757,2.378-3.243,3.351-5.513,3.567l-36.645,4.324m342.563-18.593c-4.864.324-9.4,1.189-14.269.649-1.622-.108-4.324-.324-5.621-1.189-3.892-2.594,9.729-7.134,11.458-7.783,4.756-1.73,14.269-4.432,14.269-4.432s8.972-2.27,9.3-7.026c.324-5.837-5.729-8.54-10.269-9.945a52.861,52.861,0,0,0-5.729-.973c-1.3-.108-2.594-.216-4-.216a41.948,41.948,0,0,0-7.351.432c-2.486.324-7.891.432-8.756,3.675-.432,1.621-2.27,4.973-.649,6.486s4.324.865,6.27.757c2.81-.324,5.513-.757,8.215-1.081,2.054-.216,4.648-.649,6.378.865,2.054,1.838-3.351,3.567-4.432,4.108-4.108,1.73-8.432,3.027-12.539,4.756-3.891,1.621-7.783,3.135-11.567,4.973-1.729.865-3.351,1.838-4.972,2.811l-.757-.54-4.756.54-4.756.432c-3.243.216-6.378.324-9.621.54-1.621.108-4.108.108-5.4-1.081-2.811-2.594-1.189-6.27.649-8.756a24.8,24.8,0,0,1,7.675-6.486,27.166,27.166,0,0,1,6.27-2.811,34.552,34.552,0,0,1,4.54-1.081,8.072,8.072,0,0,0,.757,1.3c.108.216,3.675-1.3,4-1.405,1.081-.54,2.594-1.73,2.7-3.135,0-1.73-1.405-3.351-2.7-4.216a8.67,8.67,0,0,0-4.864-1.3,49.008,49.008,0,0,0-5.621.324,25.134,25.134,0,0,0-3.892.865,32.447,32.447,0,0,0-6.053,2.486,31.206,31.206,0,0,0-7.026,5.4,14.981,14.981,0,0,0-2.486,3.351,21.6,21.6,0,0,0-2.162,4.864,22.165,22.165,0,0,0,1.081,14.917,17.019,17.019,0,0,0,18.917,9.621,25.079,25.079,0,0,0,4.864-1.405,28.84,28.84,0,0,0,4.972-2.162c.324-.216,3.675-2.054,3.892-1.838.541.649.865,1.513,1.405,2.162a10.1,10.1,0,0,0,1.946,1.73,8.344,8.344,0,0,0,4.648,1.621,128.5,128.5,0,0,0,12.864.865c3.459,0,6.918-.216,10.269-.541,2.162-.216,4.432-.54,6.594-.757a54.642,54.642,0,0,0,16.323-4.54,16.343,16.343,0,0,0,5.729-4.324,18.783,18.783,0,0,0-2.054-1.081c-4.432-1.73-9.4-1.838-14.161-1.3-2.162.324-4.324.432-6.486.649-1.189.108-2.054.108-3.027.216m-74.7,4.973a5.037,5.037,0,0,0-.324-2.27,6.317,6.317,0,0,0-4.108-3.675,6.131,6.131,0,0,0-4.756.973,7.707,7.707,0,0,0-1.838,2.27,6.642,6.642,0,0,0,.432,6.053c1.946,2.7,6.162,2.7,8.432.54a5.886,5.886,0,0,0,2.162-3.892" transform="translate(7.014 1.482)" fill-rule="evenodd"/>
  </g>
</svg>
