<svg xmlns="http://www.w3.org/2000/svg">
	<circle fill="#1C1300" cx="30" cy="1" r="1"/>
	<circle fill="#1C1300" cx="48.6" cy="1" r="1"/>
	<path fill="#1C1300" d="M32.9 3.4h12.8c.3 0 .5.2.5.5s-.2.5-.5.5H32.9c-.3 0-.5-.2-.5-.5 0-.2.3-.5.5-.5z"/>
	<g fill="#1C1300">
		<path d="M4.2 19.4c.4 0 .7-.1 1-.3s.3-.4.3-.7-.1-.5-.3-.7-.6-.3-1.1-.5c-1-.3-1.7-.6-2.1-1s-.7-.9-.7-1.5.3-1.1.8-1.5 1.2-.6 2.1-.6 1.5.2 2.1.7.8 1 .8 1.7H5.5c0-.4-.1-.7-.4-.9s-.6-.3-1-.3-.7.1-1 .3-.3.4-.3.7.1.5.3.7.7.3 1.3.5c.9.2 1.5.6 1.9.9s.6.9.6 1.5-.1 1.2-.6 1.6-1.2.6-2.1.6c-.6 0-1.1-.1-1.6-.3s-.8-.5-1.1-.9-.4-.8-.4-1.3h1.5c.1.9.6 1.3 1.6 1.3zM14.6 17.2v3.2H13v-7.7h1.5v3.1h.7l2-3.1h1.9l-2.6 3.6 2.8 4.1h-1.9l-2.1-3.2h-.7zM29.5 20.4l-.5-1.7h-2.7l-.5 1.7h-1.6l2.6-7.7h1.6l2.6 7.7h-1.5zm-1.9-5.8l-1 3h1.9l-.9-3zm-.3-3.2l1-1.6H30l-1.5 1.6h-1.2zM38.4 17.2v3.2h-1.5v-7.7h1.5v3.1h.7l2-3.1H43l-2.6 3.6 2.8 4.1h-1.9l-2.1-3.2h-.8zM53.3 20.4l-.5-1.7h-2.7l-.5 1.7H48l2.6-7.7h1.6l2.6 7.7h-1.5zm-1.9-5.8l-1 3h1.9l-.9-3zM61.9 12.8v6.5h3.4v1.2h-5v-7.7h1.6zM75.8 20.4l-.5-1.7h-2.7l-.6 1.7h-1.6l2.6-7.7h1.6l2.6 7.7h-1.4zm-1.9-5.8l-1 3h1.9l-.9-3z"/>
	</g>
</svg>