<svg xmlns="http://www.w3.org/2000/svg" viewBox="0 0 154 36" width="154" height="36"><style>.st0{fill:#28b7ea}</style><path class="st0" d="M140.8 9v1.8h4.7v16.3h2V10.8h4.8V9zm-21.9 14c-.2.9-.3 1.8-.5 2.7-.1-1.2-.2-1.9-.4-2.7l-3.7-14.1h-3.7v18.2h2.1V9.9c.2 1 .4 1.6.5 2.2l3.8 15h2.5l3.8-14.7c.2-.7.3-1.4.6-2.5v17.2h2.1V9h-3.6l-3.5 14zm-31.7 2.6L82.9 9h-2.3l5.3 18.1h2.5L93.8 9h-2.3zm-15.2-7h6.7v-1.8H72v-6h7.2V9h-9.3v18.1h9.3v-1.8H72zM59.9 9h-2.1v18.1h9.6v-1.8h-7.5zm-9.5 8.2c-1-.4-2-.7-3-1.1-1.2-.4-1.8-1.2-1.8-2.5 0-1.4.3-3.3 3.3-3.3 2.1 0 3.1 1.4 3 3.3H54c.2-3.4-1.9-5.1-5.2-5.1-3 0-5.1 2-5.1 4.9 0 1.8.4 3.3 2.2 4 1 .5 2.6 1 3.7 1.4 1.9.7 3 .7 3 3.5 0 2.1-1.5 3.2-3.6 3.2-3.1 0-3.6-1.7-3.5-4.3h-2.1c0 1 0 2.4.4 3.3 1.1 2.4 3.3 2.9 5 2.9 3.6 0 5.7-2 5.7-5.4.1-2.3-.5-3.5-4.1-4.8zm51.2-8.6c-5.4 0-6.1 4.8-6.1 9 0 5 .7 9.9 6 9.9s6-4.8 6-9.9c.1-4.1-.6-9-5.9-9zm-.1 17.1c-3.4 0-3.9-2.8-3.9-8 0-4 .8-7.2 3.9-7.2 3.3 0 4 3.3 3.9 7.2 0 5.2-.5 8-3.9 8zM133.6 9l-5.2 18.1h2.3l1.4-5.2h5.8l1.5 5.2h2.3L136.4 9h-2.8zm-1.1 11.1l2.5-9.6 2.4 9.6h-4.9z"/><ellipse transform="rotate(-10.003 4.452 20.764)" class="st0" cx="4.5" cy="20.8" rx="2.8" ry="2.8"/><ellipse transform="rotate(-10.003 21.92 33.005)" class="st0" cx="21.9" cy="33" rx="2.8" ry="2.8"/><ellipse transform="rotate(-55 10.68 30.38)" class="st0" cx="10.7" cy="30.4" rx="2.8" ry="2.8"/><ellipse transform="rotate(-55 6.912 9.388)" class="st0" cx="6.9" cy="9.4" rx="2.8" ry="2.8"/><path class="st0" d="M34.9 11.4l-3.5.6c-.4-.8-.9-1.6-1.5-2.3l2.2-3.1c-.5-1.3-1.4-2.4-2.5-3.2-1.2-.8-2.6-1.3-3.9-1.3l-2.1 3c-.9-.3-1.8-.5-2.7-.6L20.2.8c-1.2-.5-2.6-.7-4-.5-1.4.4-2.7 1-3.7 2l.9 4.8c.4-.2.7-.4 1.1-.5l-.7-3.8c.7-.6 1.6-1 2.6-1.2s1.9-.1 2.8.2l.5 2.7.2 1.2c1.4.1 2.8.4 4 .9l2.3-3.2c.9.1 1.9.4 2.7 1 .8.6 1.4 1.3 1.9 2.1l-2.3 3.3c.9 1 1.7 2.2 2.3 3.6l3.8-.7c.6.7 1 1.6 1.2 2.6s.1 1.9-.2 2.8l-3.8.7c-.1 1.4-.4 2.8-.9 4l1 .7L34 25c-.1.9-.4 1.9-1 2.7-.6.8-1.3 1.4-2.1 1.9l-3.3-2.3c-.3.3-.6.5-1 .8l4 2.9c1.3-.5 2.4-1.4 3.2-2.5.8-1.2 1.3-2.6 1.3-3.9l-3-2.1c.3-.9.5-1.7.6-2.7l3.7-.7c.5-1.2.7-2.6.5-4-.3-1.5-1-2.7-2-3.7z"/><path class="st0" d="M28.2 16.5c-.9-4.9-5.6-8.2-10.6-7.4-4.9.9-8.2 5.6-7.4 10.6.9 4.9 5.6 8.2 10.6 7.4 5-.9 8.3-5.6 7.4-10.6zM20 22.4c-2.4.4-4.6-1.2-5-3.6-.4-2.4 1.2-4.6 3.6-5 2.4-.4 4.6 1.2 5 3.6.4 2.3-1.2 4.5-3.6 5z"/></svg>