<svg xmlns="http://www.w3.org/2000/svg" x="0px" y="0px" viewBox="0 0 200 13">
	<path fill="#010101" d="M191.77,9.83c-0.16,0-0.32-0.1-0.38-0.26c-0.08-0.21,0.03-0.44,0.24-0.52
		l6.81-2.54l-6.81-2.54c-0.21-0.08-0.32-0.31-0.24-0.52c0.08-0.21,0.31-0.31,0.52-0.24l7.82,2.92C199.89,6.18,200,6.33,200,6.5
		c0,0.17-0.11,0.32-0.26,0.38l-7.82,2.92C191.87,9.82,191.82,9.83,191.77,9.83"/>
	<path fill="#010101" d="M8.23,3.18c0.16,0,0.32,0.1,0.38,0.26c0.08,0.21-0.03,0.44-0.24,0.52L1.56,6.5
		l6.81,2.54C8.58,9.12,8.68,9.35,8.6,9.56C8.53,9.77,8.29,9.88,8.08,9.8L0.26,6.88C0.1,6.82,0,6.67,0,6.5c0-0.17,0.1-0.32,0.26-0.38
		L8.08,3.2C8.13,3.18,8.18,3.18,8.23,3.18"/>
	<path fill="#010101" d="M16.36,11.02c-0.09-0.07-0.17-0.19-0.17-0.35c0-0.24,0.21-0.45,0.45-0.45
		c0.12,0,0.22,0.05,0.29,0.1c1.21,1.09,2.42,1.57,4.07,1.57c1.81,0,3.06-1.02,3.06-2.4V9.47c0-1.28-0.67-2.02-3.42-2.57
		c-2.9-0.59-4.07-1.57-4.07-3.4V3.46c0-1.8,1.64-3.18,3.88-3.18c1.62,0,2.75,0.41,3.85,1.24c0.09,0.07,0.19,0.19,0.19,0.36
		c0,0.24-0.21,0.45-0.45,0.45c-0.1,0-0.21-0.03-0.29-0.1C22.7,1.42,21.65,1.1,20.42,1.1c-1.78,0-2.95,1.02-2.95,2.28v0.03
		c0,1.28,0.66,2.06,3.52,2.64c2.8,0.57,3.97,1.57,3.97,3.33v0.03c0,1.95-1.67,3.3-4.01,3.3C19.14,12.72,17.73,12.15,16.36,11.02"/>
	<path fill="#010101" d="M30.63,7.52V0.84c0-0.24,0.21-0.45,0.45-0.45s0.45,0.21,0.45,0.45v6.6
		c0,2.85,1.54,4.49,4.09,4.49c2.45,0,4.02-1.48,4.02-4.4V0.84c0-0.24,0.21-0.45,0.45-0.45c0.24,0,0.45,0.21,0.45,0.45v6.58
		c0,3.47-2.02,5.32-4.96,5.32C32.68,12.73,30.63,10.9,30.63,7.52"/>
	<path fill="#010101" d="M51.62,7.21c2.24,0,3.76-1.17,3.76-2.97V4.2c0-1.92-1.48-2.92-3.66-2.92h-3.42
		v5.92H51.62z M47.41,0.91c0-0.24,0.21-0.45,0.45-0.45h3.94c2.66,0,4.49,1.36,4.49,3.69v0.03c0,2.54-2.19,3.85-4.71,3.85h-3.26v4.13
		c0,0.24-0.21,0.45-0.45,0.45c-0.24,0-0.45-0.21-0.45-0.45V0.91z"/>
	<path fill="#010101" d="M62.79,12.09V0.91c0-0.24,0.21-0.45,0.45-0.45h7.8c0.22,0,0.41,0.19,0.41,0.41
		c0,0.22-0.19,0.41-0.41,0.41h-7.36v4.75h6.58c0.22,0,0.41,0.19,0.41,0.41c0,0.22-0.19,0.41-0.41,0.41h-6.58v4.85h7.44
		c0.22,0,0.41,0.19,0.41,0.41c0,0.22-0.19,0.41-0.41,0.41h-7.89C63,12.54,62.79,12.34,62.79,12.09"/>
	<path fill="#010101" d="M83.37,6.72c2.02,0,3.52-1.02,3.52-2.76V3.93c0-1.62-1.28-2.64-3.47-2.64H79.3
		v5.44H83.37z M78.4,0.91c0-0.24,0.21-0.45,0.45-0.45h4.63c1.48,0,2.68,0.47,3.4,1.19c0.57,0.57,0.91,1.38,0.91,2.24v0.03
		c0,2.02-1.5,3.18-3.54,3.45l3.44,4.45c0.09,0.1,0.14,0.21,0.14,0.31c0,0.24-0.22,0.47-0.47,0.47c-0.17,0-0.29-0.1-0.4-0.24
		l-3.71-4.83H79.3v4.63c0,0.24-0.21,0.45-0.45,0.45c-0.24,0-0.45-0.21-0.45-0.45V0.91z"/>
	<path fill="#010101" d="M95.2,0.84c0-0.24,0.21-0.45,0.45-0.45c0.24,0,0.45,0.21,0.45,0.45V8.4
		l7.63-7.87c0.07-0.07,0.17-0.14,0.31-0.14c0.22,0,0.45,0.22,0.45,0.45c0,0.12-0.05,0.22-0.14,0.31l-4.61,4.64l4.92,6.03
		c0.09,0.1,0.14,0.19,0.14,0.33c0,0.24-0.22,0.47-0.47,0.47c-0.16,0-0.28-0.09-0.35-0.17L99.1,6.43l-3,3.04v2.69
		c0,0.24-0.21,0.45-0.45,0.45c-0.24,0-0.45-0.21-0.45-0.45V0.84z"/>
	<path fill="#010101" d="M121.09,6.53V6.5c0-2.99-2.18-5.44-5.16-5.44c-2.99,0-5.13,2.42-5.13,5.4V6.5
		c0,2.99,2.18,5.44,5.16,5.44C118.95,11.94,121.09,9.52,121.09,6.53 M109.87,6.53V6.5c0-3.3,2.43-6.25,6.09-6.25
		c3.66,0,6.06,2.92,6.06,6.22V6.5c0,3.3-2.43,6.25-6.09,6.25C112.27,12.75,109.87,9.83,109.87,6.53"/>
	<path fill="#010101" d="M132.26,11.71c3.37,0,5.49-2.3,5.49-5.18V6.5c0-2.87-2.12-5.21-5.49-5.21h-3.13
		v10.43H132.26z M128.23,0.91c0-0.24,0.21-0.45,0.45-0.45h3.57c3.8,0,6.42,2.61,6.42,6.01V6.5c0,3.4-2.62,6.04-6.42,6.04h-3.57
		c-0.24,0-0.45-0.21-0.45-0.45V0.91z"/>
	<path fill="#010101" d="M145.03,12.09V0.91c0-0.24,0.21-0.45,0.45-0.45h7.8c0.22,0,0.41,0.19,0.41,0.41
		c0,0.22-0.19,0.41-0.41,0.41h-7.36v4.75h6.58c0.22,0,0.41,0.19,0.41,0.41c0,0.22-0.19,0.41-0.41,0.41h-6.58v4.85h7.44
		c0.22,0,0.41,0.19,0.41,0.41c0,0.22-0.19,0.41-0.41,0.41h-7.89C145.24,12.54,145.03,12.34,145.03,12.09"/>
	<path fill="#010101" d="M165.61,6.72c2.02,0,3.52-1.02,3.52-2.76V3.93c0-1.62-1.28-2.64-3.47-2.64
		h-4.13v5.44H165.61z M160.64,0.91c0-0.24,0.21-0.45,0.45-0.45h4.63c1.48,0,2.68,0.47,3.4,1.19c0.57,0.57,0.91,1.38,0.91,2.24v0.03
		c0,2.02-1.5,3.18-3.54,3.45l3.44,4.45c0.09,0.1,0.14,0.21,0.14,0.31c0,0.24-0.22,0.47-0.47,0.47c-0.17,0-0.29-0.1-0.4-0.24
		l-3.71-4.83h-3.95v4.63c0,0.24-0.21,0.45-0.45,0.45c-0.24,0-0.45-0.21-0.45-0.45V0.91z"/>
	<path fill="#010101" d="M176.15,11.02c-0.09-0.07-0.17-0.19-0.17-0.35c0-0.24,0.21-0.45,0.45-0.45
		c0.12,0,0.22,0.05,0.29,0.1c1.21,1.09,2.42,1.57,4.07,1.57c1.81,0,3.06-1.02,3.06-2.4V9.47c0-1.28-0.67-2.02-3.42-2.57
		c-2.9-0.59-4.07-1.57-4.07-3.4V3.46c0-1.8,1.64-3.18,3.88-3.18c1.62,0,2.74,0.41,3.85,1.24c0.09,0.07,0.19,0.19,0.19,0.36
		c0,0.24-0.21,0.45-0.45,0.45c-0.1,0-0.21-0.03-0.29-0.1c-1.05-0.81-2.11-1.14-3.33-1.14c-1.78,0-2.95,1.02-2.95,2.28v0.03
		c0,1.28,0.66,2.06,3.52,2.64c2.8,0.57,3.97,1.57,3.97,3.33v0.03c0,1.95-1.68,3.3-4.01,3.3C178.93,12.72,177.51,12.15,176.15,11.02"
		/>
</svg>
