<?xml version="1.0" encoding="utf-8"?>
<!-- Generator: Adobe Illustrator 23.0.1, SVG Export Plug-In . SVG Version: 6.00 Build 0)  -->
<svg version="1.1" id="Vrstva_1" xmlns="http://www.w3.org/2000/svg" xmlns:xlink="http://www.w3.org/1999/xlink" x="0px" y="0px"
	 viewBox="0 0 200 30" enable-background="new 0 0 200 30" xml:space="preserve">
<path fill="#010101" d="M191.8,18.3c-0.2,0-0.3-0.1-0.4-0.3c-0.1-0.2,0-0.4,0.2-0.5l6.8-2.5l-6.8-2.5c-0.2-0.1-0.3-0.3-0.2-0.5
	c0.1-0.2,0.3-0.3,0.5-0.2l7.8,2.9c0.2,0.1,0.3,0.2,0.3,0.4s-0.1,0.3-0.3,0.4l-7.8,2.9C191.9,18.3,191.8,18.3,191.8,18.3"/>
<path fill="#010101" d="M8.2,11.7c0.2,0,0.3,0.1,0.4,0.3c0.1,0.2,0,0.4-0.2,0.5L1.6,15l6.8,2.5c0.2,0.1,0.3,0.3,0.2,0.5
	c-0.1,0.2-0.3,0.3-0.5,0.2l-7.8-2.9C0.1,15.3,0,15.2,0,15s0.1-0.3,0.3-0.4l7.8-2.9C8.1,11.7,8.2,11.7,8.2,11.7"/>
<path fill="#010101" d="M16.4,19.5c-0.1-0.1-0.2-0.2-0.2-0.4c0-0.2,0.2-0.4,0.5-0.4c0.1,0,0.2,0,0.3,0.1c1.2,1.1,2.4,1.6,4.1,1.6
	c1.8,0,3.1-1,3.1-2.4v0c0-1.3-0.7-2-3.4-2.6c-2.9-0.6-4.1-1.6-4.1-3.4v0c0-1.8,1.6-3.2,3.9-3.2c1.6,0,2.8,0.4,3.9,1.2
	c0.1,0.1,0.2,0.2,0.2,0.4c0,0.2-0.2,0.4-0.5,0.4c-0.1,0-0.2,0-0.3-0.1c-1-0.8-2.1-1.1-3.3-1.1c-1.8,0-3,1-3,2.3v0
	c0,1.3,0.7,2.1,3.5,2.6c2.8,0.6,4,1.6,4,3.3v0c0,2-1.7,3.3-4,3.3C19.1,21.2,17.7,20.6,16.4,19.5"/>
<path fill="#010101" d="M30.6,16V9.3c0-0.2,0.2-0.4,0.5-0.4s0.5,0.2,0.5,0.4v6.6c0,2.9,1.5,4.5,4.1,4.5c2.5,0,4-1.5,4-4.4V9.3
	c0-0.2,0.2-0.4,0.5-0.4s0.5,0.2,0.5,0.4v6.6c0,3.5-2,5.3-5,5.3C32.7,21.2,30.6,19.4,30.6,16"/>
<path fill="#010101" d="M51.6,15.7c2.2,0,3.8-1.2,3.8-3v0c0-1.9-1.5-2.9-3.7-2.9h-3.4v5.9L51.6,15.7L51.6,15.7z M47.4,9.4
	c0-0.2,0.2-0.4,0.5-0.4h3.9c2.7,0,4.5,1.4,4.5,3.7v0c0,2.5-2.2,3.9-4.7,3.9h-3.3v4.1c0,0.2-0.2,0.5-0.5,0.5s-0.5-0.2-0.5-0.5
	L47.4,9.4L47.4,9.4z"/>
<path fill="#010101" d="M62.8,20.6V9.4C62.8,9.2,63,9,63.2,9H71c0.2,0,0.4,0.2,0.4,0.4S71.3,9.8,71,9.8h-7.4v4.8h6.6
	c0.2,0,0.4,0.2,0.4,0.4s-0.2,0.4-0.4,0.4h-6.6v4.8h7.4c0.2,0,0.4,0.2,0.4,0.4S71.3,21,71.1,21h-7.9C63,21,62.8,20.8,62.8,20.6"/>
<path fill="#010101" d="M83.4,15.2c2,0,3.5-1,3.5-2.8v0c0-1.6-1.3-2.6-3.5-2.6h-4.1v5.4L83.4,15.2L83.4,15.2z M78.4,9.4
	c0-0.2,0.2-0.4,0.4-0.4h4.6c1.5,0,2.7,0.5,3.4,1.2c0.6,0.6,0.9,1.4,0.9,2.2v0c0,2-1.5,3.2-3.5,3.4l3.4,4.4c0.1,0.1,0.1,0.2,0.1,0.3
	c0,0.2-0.2,0.5-0.5,0.5c-0.2,0-0.3-0.1-0.4-0.2L83.2,16h-3.9v4.6c0,0.2-0.2,0.5-0.4,0.5s-0.4-0.2-0.4-0.5
	C78.4,20.7,78.4,9.4,78.4,9.4z"/>
<path fill="#010101" d="M95.2,9.3c0-0.2,0.2-0.4,0.4-0.4s0.4,0.2,0.4,0.4v7.6l7.6-7.9c0.1-0.1,0.2-0.1,0.3-0.1
	c0.2,0,0.4,0.2,0.4,0.5c0,0.1-0.1,0.2-0.1,0.3l-4.6,4.6l4.9,6c0.1,0.1,0.1,0.2,0.1,0.3c0,0.2-0.2,0.5-0.5,0.5
	c-0.2,0-0.3-0.1-0.3-0.2l-4.9-6l-3,3v2.7c0,0.2-0.2,0.5-0.4,0.5s-0.4-0.2-0.4-0.5C95.2,20.7,95.2,9.3,95.2,9.3z"/>
<path fill="#010101" d="M121.1,15L121.1,15c0-3-2.2-5.5-5.2-5.5c-3,0-5.1,2.4-5.1,5.4v0c0,3,2.2,5.4,5.2,5.4
	C118.9,20.4,121.1,18,121.1,15 M109.9,15L109.9,15c0-3.3,2.4-6.3,6.1-6.3s6.1,2.9,6.1,6.2v0c0,3.3-2.4,6.2-6.1,6.2
	C112.3,21.2,109.9,18.3,109.9,15"/>
<path fill="#010101" d="M132.3,20.2c3.4,0,5.5-2.3,5.5-5.2v0c0-2.9-2.1-5.2-5.5-5.2h-3.1v10.4L132.3,20.2L132.3,20.2z M128.2,9.4
	c0-0.2,0.2-0.4,0.4-0.4h3.6c3.8,0,6.4,2.6,6.4,6v0c0,3.4-2.6,6-6.4,6h-3.6c-0.2,0-0.4-0.2-0.4-0.5V9.4z"/>
<path fill="#010101" d="M145,20.6V9.4c0-0.2,0.2-0.4,0.4-0.4h7.8c0.2,0,0.4,0.2,0.4,0.4s-0.2,0.4-0.4,0.4h-7.4v4.8h6.6
	c0.2,0,0.4,0.2,0.4,0.4s-0.2,0.4-0.4,0.4h-6.6v4.8h7.4c0.2,0,0.4,0.2,0.4,0.4s-0.2,0.4-0.4,0.4h-7.9C145.2,21,145,20.8,145,20.6"/>
<path fill="#010101" d="M165.6,15.2c2,0,3.5-1,3.5-2.8v0c0-1.6-1.3-2.6-3.5-2.6h-4.1v5.4L165.6,15.2L165.6,15.2z M160.6,9.4
	c0-0.2,0.2-0.4,0.4-0.4h4.6c1.5,0,2.7,0.5,3.4,1.2c0.6,0.6,0.9,1.4,0.9,2.2v0c0,2-1.5,3.2-3.5,3.4l3.4,4.4c0.1,0.1,0.1,0.2,0.1,0.3
	c0,0.2-0.2,0.5-0.5,0.5c-0.2,0-0.3-0.1-0.4-0.2l-3.7-4.8h-3.9v4.6c0,0.2-0.2,0.5-0.4,0.5c-0.2,0-0.4-0.2-0.4-0.5L160.6,9.4
	L160.6,9.4z"/>
<path fill="#010101" d="M176.1,19.5c-0.1-0.1-0.2-0.2-0.2-0.4c0-0.2,0.2-0.4,0.4-0.4c0.1,0,0.2,0,0.3,0.1c1.2,1.1,2.4,1.6,4.1,1.6
	c1.8,0,3.1-1,3.1-2.4v0c0-1.3-0.7-2-3.4-2.6c-2.9-0.6-4.1-1.6-4.1-3.4v0c0-1.8,1.6-3.2,3.9-3.2c1.6,0,2.7,0.4,3.9,1.2
	c0.1,0.1,0.2,0.2,0.2,0.4c0,0.2-0.2,0.4-0.4,0.4c-0.1,0-0.2,0-0.3-0.1c-1.1-0.8-2.1-1.1-3.3-1.1c-1.8,0-2.9,1-2.9,2.3v0
	c0,1.3,0.7,2.1,3.5,2.6c2.8,0.6,4,1.6,4,3.3v0c0,1.9-1.7,3.3-4,3.3C178.9,21.2,177.5,20.6,176.1,19.5"/>
</svg>
