<svg xmlns="http://www.w3.org/2000/svg" xmlns:xlink="http://www.w3.org/1999/xlink" width="524" height="96" viewBox="0 0 524 96">
  <defs>
    <clipPath id="clip-path">
      <rect id="Rectangle_1" data-name="Rectangle 1" width="460" height="32.579" fill="none"/>
    </clipPath>
    <clipPath id="clip-superkoders">
      <rect width="524" height="96"/>
    </clipPath>
  </defs>
  <g id="superkoders" clip-path="url(#clip-superkoders)">
    <g id="Group_2" data-name="Group 2" transform="translate(32 31.711)">
      <g id="Group_1" data-name="Group 1" transform="translate(0 0)" clip-path="url(#clip-path)">
        <path id="Path_1" data-name="Path 1" d="M36.971,28.258a1.619,1.619,0,0,1-.652-1.35,1.691,1.691,0,0,1,1.651-1.754,1.487,1.487,0,0,1,1.043.405,13.562,13.562,0,0,0,9.6,3.734c4.084,0,6.778-2.25,6.778-5.354v-.09c0-2.925-1.521-4.59-7.908-5.986-6.994-1.574-10.21-3.914-10.21-9.088V8.684c0-4.949,4.215-8.593,9.993-8.593a15.148,15.148,0,0,1,9.688,3.1A1.845,1.845,0,0,1,57.7,4.634a1.68,1.68,0,0,1-1.651,1.71,1.564,1.564,0,0,1-1-.314A12.429,12.429,0,0,0,47.18,3.285c-3.954,0-6.473,2.25-6.473,5.085v.09c0,2.969,1.564,4.634,8.254,6.119,6.778,1.53,9.906,4.095,9.906,8.909v.09c0,5.4-4.345,8.91-10.384,8.91a17.4,17.4,0,0,1-11.513-4.23" transform="translate(-1.252 0)"/>
        <path id="Path_2" data-name="Path 2" d="M72.274,18.854V2.115a1.718,1.718,0,1,1,3.432,0V18.629c0,6.8,3.519,10.62,9.3,10.62,5.6,0,9.167-3.51,9.167-10.4V2.115a1.718,1.718,0,1,1,3.432,0V18.584c0,9.18-5.084,13.95-12.687,13.95-7.516,0-12.643-4.77-12.643-13.68" transform="translate(-2.491 0)"/>
        <path id="Path_3" data-name="Path 3" d="M112.773,2.34a1.769,1.769,0,0,1,1.7-1.8h9.688c6.865,0,11.383,3.78,11.383,9.99v.09c0,6.794-5.474,10.3-11.948,10.3h-7.386v9.539a1.718,1.718,0,1,1-3.432,0Zm10.949,15.344c5.04,0,8.342-2.79,8.342-6.93v-.09c0-4.5-3.259-6.839-8.168-6.839h-7.69V17.684Z" transform="translate(-3.887 0)"/>
        <path id="Path_4" data-name="Path 4" d="M148.683,30.239V2.34a1.768,1.768,0,0,1,1.695-1.8h18.9a1.587,1.587,0,0,1,1.563,1.62,1.586,1.586,0,0,1-1.563,1.621H152.115V14.535h15.207a1.614,1.614,0,0,1,1.563,1.619,1.585,1.585,0,0,1-1.563,1.62H152.115V28.8h17.379a1.621,1.621,0,0,1,0,3.24H150.378a1.768,1.768,0,0,1-1.695-1.8" transform="translate(-5.124 0)"/>
        <path id="Path_5" data-name="Path 5" d="M184.683,2.34a1.768,1.768,0,0,1,1.695-1.8H197.76c3.737,0,6.735,1.17,8.646,3.15a8.869,8.869,0,0,1,2.346,6.21v.09c0,5.175-3.389,8.189-8.125,9.135l7.56,10.079a1.963,1.963,0,0,1,.565,1.3,1.825,1.825,0,0,1-1.738,1.755,1.986,1.986,0,0,1-1.608-.944L196.848,19.8h-8.732V30.463a1.718,1.718,0,1,1-3.432,0ZM197.456,16.6c4.562,0,7.821-2.43,7.821-6.479v-.09c0-3.87-2.868-6.21-7.777-6.21h-9.384V16.6Z" transform="translate(-6.365 0)"/>
        <path id="Path_6" data-name="Path 6" d="M223.067,2.115a1.718,1.718,0,1,1,3.432,0V19.349L243.835.945a1.921,1.921,0,0,1,1.347-.63,1.751,1.751,0,0,1,1.651,1.755,1.772,1.772,0,0,1-.565,1.26L235.493,14.4,247.05,29.158a2,2,0,0,1,.478,1.3,1.8,1.8,0,0,1-1.738,1.8,1.63,1.63,0,0,1-1.389-.81L233.06,16.829,226.5,23.623v6.84a1.718,1.718,0,1,1-3.432,0Z" transform="translate(-7.688 0)"/>
        <path id="Path_7" data-name="Path 7" d="M257.627,16.379v-.09c0-8.684,6.3-16.289,15.554-16.289s15.467,7.514,15.467,16.2v.091c0,8.685-6.3,16.289-15.554,16.289s-15.467-7.514-15.467-16.2m27.459,0v-.09c0-7.155-5.041-13-11.992-13S261.189,9.045,261.189,16.2v.091c0,7.154,5.041,13,11.992,13s11.905-5.76,11.905-12.914" transform="translate(-8.879 0)"/>
        <path id="Path_8" data-name="Path 8" d="M303.12,2.339a1.768,1.768,0,0,1,1.7-1.8h8.864c9.558,0,16.162,6.8,16.162,15.658v.091c0,8.864-6.6,15.749-16.162,15.749h-8.864a1.768,1.768,0,0,1-1.7-1.8Zm10.559,26.414c7.69,0,12.6-5.4,12.6-12.374v-.09c0-6.974-4.909-12.464-12.6-12.464h-7.126V28.753Z" transform="translate(-10.447 0)"/>
        <path id="Path_9" data-name="Path 9" d="M344.162,30.239V2.34a1.768,1.768,0,0,1,1.695-1.8h18.9a1.587,1.587,0,0,1,1.564,1.62,1.586,1.586,0,0,1-1.564,1.621H347.595V14.535H362.8a1.615,1.615,0,0,1,1.563,1.619,1.586,1.586,0,0,1-1.563,1.62H347.595V28.8h17.379a1.621,1.621,0,0,1,0,3.24H345.857a1.768,1.768,0,0,1-1.695-1.8" transform="translate(-11.861 0)"/>
        <path id="Path_10" data-name="Path 10" d="M380.161,2.34a1.768,1.768,0,0,1,1.694-1.8h11.384c3.737,0,6.735,1.17,8.646,3.15a8.869,8.869,0,0,1,2.345,6.21v.09c0,5.175-3.389,8.189-8.125,9.135l7.56,10.079a1.963,1.963,0,0,1,.565,1.3,1.824,1.824,0,0,1-1.738,1.755,1.987,1.987,0,0,1-1.608-.944L392.327,19.8h-8.733V30.463a1.718,1.718,0,1,1-3.432,0ZM392.934,16.6c4.563,0,7.822-2.43,7.822-6.479v-.09c0-3.87-2.868-6.21-7.777-6.21h-9.385V16.6Z" transform="translate(-13.102 0)"/>
        <path id="Path_11" data-name="Path 11" d="M417.4,28.258a1.62,1.62,0,0,1-.653-1.35,1.692,1.692,0,0,1,1.652-1.754,1.489,1.489,0,0,1,1.043.405,13.562,13.562,0,0,0,9.6,3.734c4.084,0,6.778-2.25,6.778-5.354v-.09c0-2.925-1.521-4.59-7.908-5.986-6.994-1.574-10.211-3.914-10.211-9.088V8.684c0-4.949,4.216-8.593,9.993-8.593a15.148,15.148,0,0,1,9.689,3.1,1.845,1.845,0,0,1,.739,1.439,1.68,1.68,0,0,1-1.651,1.71,1.566,1.566,0,0,1-1-.314,12.429,12.429,0,0,0-7.864-2.745c-3.954,0-6.474,2.25-6.474,5.085v.09c0,2.969,1.565,4.634,8.256,6.119,6.777,1.53,9.905,4.095,9.905,8.909v.09c0,5.4-4.344,8.91-10.384,8.91a17.4,17.4,0,0,1-11.513-4.23" transform="translate(-14.363 0)"/>
        <path id="Path_12" data-name="Path 12" d="M474.625,15.09,455.081,7.531a1.491,1.491,0,0,0-1.908.913l-.033.1a1.561,1.561,0,0,0,.913,1.893l15.8,6.1-15.8,6.106a1.5,1.5,0,0,0-.836.8,1.594,1.594,0,0,0-.04,1.19,1.5,1.5,0,0,0,1.4.991v-.253l0,.253a1.421,1.421,0,0,0,.54-.109l19.548-7.56a1.565,1.565,0,0,0,.953-1.445,1.48,1.48,0,0,0-.99-1.427" transform="translate(-15.615 0)"/>
        <path id="Path_13" data-name="Path 13" d="M22.4,9.641a1.6,1.6,0,0,0,.043-1.2,1.5,1.5,0,0,0-1.918-.908L1.015,15.081A1.49,1.49,0,0,0,0,16.522a1.569,1.569,0,0,0,.964,1.445l19.519,7.549a1.431,1.431,0,0,0,.554.115l0-.5h0l0,.5a1.5,1.5,0,0,0,1.4-1,1.579,1.579,0,0,0-.042-1.18,1.506,1.506,0,0,0-.842-.808l-15.8-6.1,15.793-6.1a1.5,1.5,0,0,0,.842-.8" transform="translate(0 0)"/>
      </g>
    </g>
  </g>
</svg>
