<svg id="Vrstva_1" xmlns="http://www.w3.org/2000/svg" viewBox="0 0 30 30"><style>.st0{fill:#fff}.st1{fill:#000}</style><circle class="st0" cx="15" cy="15" r="15"/><path class="st1" d="M18.2 15c0-.2-.1-.4-.3-.5l-4.3-2.7c-.2-.1-.4-.1-.5 0-.2.1-.3.3-.3.5v5.4c0 .2.1.4.3.5.1 0 .2.1.3.1.1 0 .2 0 .3-.1l4.3-2.7c.1-.1.2-.3.2-.5zm4.3 0v1.3c0 .3 0 .7-.1 1.1 0 .5-.1.9-.2 1.2-.1.4-.3.8-.6 1s-.6.4-1 .5c-1.2.1-3.1.2-5.6.2s-4.4-.1-5.6-.2c-.4 0-.7-.2-1-.5-.3-.3-.5-.6-.6-1-.1-.4-.1-.8-.2-1.2 0-.5-.1-.8-.1-1.1V15v-1.3c0-.3 0-.7.1-1.1 0-.5.1-.9.2-1.2.1-.4.3-.8.6-1 .3-.3.6-.4 1-.5 1.2-.1 3.1-.2 5.6-.2s4.4.1 5.6.2c.4 0 .7.2 1 .5.3.3.5.6.6 1 .1.4.1.8.2 1.2 0 .5.1.8.1 1.1V15z"/></svg>