<?xml version="1.0" encoding="utf-8"?>
<!-- Generator: Adobe Illustrator 23.0.1, SVG Export Plug-In . SVG Version: 6.00 Build 0)  -->
<svg version="1.1" id="Vrstva_1" xmlns="http://www.w3.org/2000/svg" xmlns:xlink="http://www.w3.org/1999/xlink" x="0px" y="0px"
	 viewBox="0 0 94 72" enable-background="new 0 0 94 72" xml:space="preserve">
<path fill="#12BCCA" d="M5.2,68.1c-2.5,0.4-7.6,2.6-2.2,3.4c5.4,0.8,62-4.5,87.8-1.9c4.1,0.4,3.2-1-0.8-1.4
	C82.5,66.8,14.8,66.3,5.2,68.1z"/>
<path fill="#003E7E" d="M33.1,54.7C32.5,54.9,27.8,59,23,56c-2.3-1.4-2.9-3.4-3.7-6.4C36.4,26.8,38.1,12.4,36.8,5.4
	c-0.6-2.9-2-6.4-7.7-4.5c-5.9,2.2-12,11.2-14.3,27.4c-1.1,7.8,0.1,17,1.2,21.5c-4.9,4.9-9.7,5.7-9.7,5.7S3.9,56,4.3,58.4
	c0,0.1,0.2,3,9-3.2c1.2-0.9,2.4-1.7,3.6-2.9c3.6,8.5,13.8,6,16.9,4.9c0.2-0.1,0.5-0.2,0.6-0.4C35.4,55.8,34.1,54.2,33.1,54.7z
	 M18.7,47.6C14.4,32.2,27.3-0.4,33.4,4.1c2.4,1.7,2.8,12.1-3.1,25.2C28.5,33.2,21.2,44.6,18.7,47.6z M80.9,43.2
	c-4.8,7.2-11.2,9.2-11.2,9.2s-9.8,3.9-12.8,0.2c-3-3.7,1-10.1,1.7-11.2c0.7-1.1,3.6-4,3.6-2.1c0,1.7-0.7,5,1.3,4.1
	c0.4-0.2,1.1-0.9,1.4-1.7c0.7-1.6,1.4-4.3-1.1-5.9c-3.8-2.3-7.9,2.6-9,6.2c-0.8,2.6-2.2,7.5,0.4,10.5c6.4,7,18.6,4,27-2.7
	C88.6,44.3,85.7,36,80.9,43.2z"/>
<path fill="#003E7E" d="M51.6,54.8c-1.8-0.7-2.4-2.5-2.4-3.6c0.1-4.7,2.2-8.9,2.7-10c0.5-1.1-1.7-2.7-4.2-2.1s-4.5,3.8-4.9,4.4
	c-0.4,0.6-1.1,0.8-0.7-0.6c0-0.2,0.2-0.7,0.2-0.9c0.1-0.4,0.2-0.7-0.1-1.2c-0.4-0.6-3.2-1.1-4.9-0.1c-2.1,1.2-3.6,4.6-3.9,3.2
	c0-0.1-0.1-0.6-0.2-0.8c-0.2-0.4-1.4-0.6-2.4-0.1c-1.1,0.5-1.7,1.9-2,2.5c-0.1,0.1-0.2,0.3-0.2,0.5c-0.2,0.4-0.4,0.7-0.7,1.3
	c-0.4,0.5-1.4,2.7-1.6,3.2c-0.3,0.6-0.1,1.1,0.2,1.5c0.2,0.4,1.2,0.9,1.6,0.1c0.2-0.2,0.3-0.6,0.5-1v0.1l0.1-0.1
	c0.3-0.6,0.6-1.3,0.9-1.9c0-0.1,0.5-1.1,1-2.1c0.4-0.6,1.3-1,1.1,0.2c-0.1,0.7-0.5,1.9-0.7,2.7c-0.1,0.5,0.8,1.6,1.5-0.2
	c0.5-1.6,1.9-3.9,3.2-5.1c0.5-0.4,1.7-0.8,1.4,0.3c-0.4,2-0.2,4.9,0.2,7.5c0.5,2.6,2.6,2.9,3.7-0.6c0.7-2.1,2.4-6.1,3.9-8.2
	c1.1-1.6,3.1-2.1,2.3-0.3c-0.1,0.2-0.9,2.1-1.1,3.3c-0.4,1.9-1.1,5-0.2,7c1,2.3,5.3,3.8,6.1,2.9C52.3,55.9,52.3,55.1,51.6,54.8z"/>
</svg>
