<svg id="Vrstva_1" xmlns="http://www.w3.org/2000/svg" viewBox="0 0 30 30"><style>.st0{fill:#fff}.st1{fill:#000}</style><circle class="st0" cx="15" cy="15" r="15"/><path class="st1" d="M22.5 10.4c-.4.6-.9 1.2-1.5 1.6v.4c0 .8-.1 1.6-.4 2.5s-.6 1.6-1.1 2.4c-.5.8-1.1 1.4-1.8 2s-1.5 1-2.5 1.4c-1 .3-2 .5-3.1.5-1.7 0-3.3-.5-4.7-1.4h.7c1.4 0 2.7-.4 3.8-1.3-.7 0-1.3-.2-1.8-.6-.5-.4-.9-.9-1.1-1.5h.6c.3 0 .5 0 .8-.1-.7-.1-1.3-.5-1.8-1.1s-.7-1.2-.7-2c.4.2.9.4 1.4.4-.4-.3-.8-.6-1-1.1 0-.5-.2-1-.2-1.5 0-.6.1-1.1.4-1.6.8.9 1.7 1.7 2.8 2.3 1.1.6 2.3.9 3.5.9-.1-.2-.1-.5-.1-.7 0-.9.3-1.6.9-2.2.6-.6 1.3-.9 2.2-.9.9 0 1.6.3 2.2 1 .7-.1 1.3-.4 2-.7-.2.7-.7 1.3-1.4 1.7.7 0 1.3-.2 1.9-.4z"/></svg>