<svg xml:space="preserve" viewBox="0 0 61 61" xmlns="http://www.w3.org/2000/svg">
  <path fill="#00BAFF" d="M30.5.5c16.6 0 30 13.4 30 30s-13.4 30-30 30-30-13.4-30-30 13.4-30 30-30z"/>
  <path fill="#FFF" d="M26.5 20.8c-3.1 0-5.7 2.6-5.7 5.7v8c0 3.1 2.6 5.7 5.7 5.7h8c3.1 0 5.7-2.6 5.7-5.7v-8c0-3.1-2.6-5.7-5.7-5.7h-8zm0 1.8h8c2.2 0 3.9 1.8 3.9 3.9v8c0 2.2-1.8 3.9-3.9 3.9h-8c-2.2 0-3.9-1.8-3.9-3.9v-8c0-2.2 1.7-3.9 3.9-3.9zm9.2 1.9c-.4 0-.8.3-.8.8 0 .4.3.8.8.8s.8-.3.8-.8c.1-.4-.3-.8-.8-.8zm-5.2.8c-2.9 0-5.3 2.3-5.3 5.3 0 2.9 2.3 5.3 5.3 5.3s5.3-2.3 5.3-5.3-2.3-5.3-5.3-5.3zm0 1.7c1.9 0 3.5 1.6 3.5 3.5S32.4 34 30.5 34 27 32.5 27 30.5s1.6-3.5 3.5-3.5z"/>
</svg>
