<svg xml:space="preserve" viewBox="0 0 61 61" xmlns="http://www.w3.org/2000/svg">
  <path fill="#00BAFF" d="M30.5.5c16.6 0 30 13.4 30 30s-13.4 30-30 30-30-13.4-30-30 13.4-30 30-30z"/>
  <path fill="#FCFCFC" d="M38.3 21.4H22.7c-.7 0-1.4.6-1.4 1.4v15.6c0 .7.6 1.4 1.4 1.4h15.6c.7 0 1.4-.6 1.4-1.4V22.7c-.1-.7-.7-1.3-1.4-1.3zM26.8 36.9h-2.7v-8.7h2.7v8.7zM25.4 27c-.9 0-1.6-.7-1.6-1.6s.7-1.6 1.6-1.6c.9 0 1.6.7 1.6 1.6s-.7 1.6-1.6 1.6zm11.5 9.9h-2.7v-4.8c0-1.4-.6-1.8-1.4-1.8-.8 0-1.6.6-1.6 1.9v4.7h-2.7v-8.7h2.6v1.2c.3-.5 1.2-1.5 2.6-1.5 1.5 0 3.2.9 3.2 3.6v5.4z"/>
</svg>
