<svg xmlns="http://www.w3.org/2000/svg" viewBox="0 0 81.799 29.503">
  <g data-name="Group 93">
    <path fill="#fff" d="M27.752 2.682q0 .829.053 1.341h-.408a5.944 5.944 0 00-1.065-2.806 2.5 2.5 0 00-1.989-.812h-.586a2.622 2.622 0 00-.8.088.533.533 0 00-.337.345 2.719 2.719 0 00-.089.82v4.447h.621a1.643 1.643 0 001.429-.688 4.286 4.286 0 00.684-1.641h.408q-.053.74-.053 1.658v.847q0 .9.106 2.506h-.408q-.373-2.329-2.166-2.329h-.621v4.059a2.609 2.609 0 00.151 1.032.779.779 0 00.532.432 5.417 5.417 0 001.216.124v.388q-2.183-.053-3.249-.053-.887 0-2.237.036l-.568.017v-.353a3.107 3.107 0 00.861-.141.611.611 0 00.373-.406 3.423 3.423 0 00.1-.971V1.87a3.432 3.432 0 00-.1-.971.613.613 0 00-.373-.406 3.119 3.119 0 00-.861-.141V0q1.917.053 5.788.053 2.61 0 3.71-.053-.121 1.5-.122 2.682z" data-name="Path 24"/>
    <path fill="#fff" d="M36.026 3.599a1.7 1.7 0 01.408 1.147 1.516 1.516 0 01-.381 1.068 1.3 1.3 0 01-1 .415 1.409 1.409 0 01-.958-.309 1.033 1.033 0 01-.355-.82 1.6 1.6 0 01.781-1.376.95.95 0 00-.213-.018.915.915 0 00-.284.036 1.689 1.689 0 00-1.145.811A2.58 2.58 0 0032.409 6v4.676a1.371 1.371 0 00.4 1.13 2.045 2.045 0 001.27.317v.371a3.9 3.9 0 01-.408-.017q-1.811-.053-2.414-.053-.479 0-2.184.053a3 3 0 01-.355.017v-.371a1.166 1.166 0 00.888-.273 1.5 1.5 0 00.248-1V5.293a2.176 2.176 0 00-.248-1.182.991.991 0 00-.888-.37V3.37q.567.053 1.1.053a11.213 11.213 0 002.592-.247v1.641a2.99 2.99 0 01.977-1.226 2.375 2.375 0 011.438-.468 1.5 1.5 0 011.201.476z" data-name="Path 25"/>
    <path fill="#fff" d="M44.53 4.279a6.372 6.372 0 010 7.314 5.012 5.012 0 01-6.382 0 6.331 6.331 0 010-7.314 4.983 4.983 0 016.382 0zm-4.411.3a12.667 12.667 0 000 6.714q.452 1.094 1.216 1.094.781 0 1.225-1.085a12.865 12.865 0 00-.009-6.732q-.453-1.094-1.216-1.094t-1.217 1.103z" data-name="Path 26"/>
    <path fill="#fff" d="M55.341 3.811a1.925 1.925 0 01.426.865 6.541 6.541 0 01.124 1.429v4.747a1.464 1.464 0 00.258 1 1.168 1.168 0 00.879.273v.371q-1.775-.07-2.344-.07-.532 0-2.308.07v-.373a.892.892 0 00.746-.273 1.693 1.693 0 00.213-1V5.362a2.027 2.027 0 00-.24-1.094.946.946 0 00-.861-.371 1.591 1.591 0 00-1.243.591 2.137 2.137 0 00-.515 1.456v4.905a1.693 1.693 0 00.213 1 .891.891 0 00.746.273v.371q-1.634-.07-2.2-.07-.533 0-2.45.07v-.37a1.166 1.166 0 00.888-.273 1.5 1.5 0 00.249-1V5.293a2.173 2.173 0 00-.249-1.182.991.991 0 00-.888-.37V3.37q.568.053 1.1.053a11.219 11.219 0 002.593-.247v1.588a2.945 2.945 0 012.907-1.641 2.475 2.475 0 011.956.688z" data-name="Path 27"/>
    <path fill="#fff" d="M61.289 3.369h2.095v.353h-2.095v7.129a1.17 1.17 0 00.186.75.736.736 0 00.595.221q.764 0 1.207-1.059l.3.159a2.452 2.452 0 01-2.432 1.817 2.418 2.418 0 01-1.776-.6 1.906 1.906 0 01-.506-.926 6.889 6.889 0 01-.133-1.526V3.723h-1.487V3.37h1.491V1.041a5.464 5.464 0 002.557-.564z" data-name="Path 28"/>
    <path fill="#21ff43" d="M21.893 29.256q-1.208-.053-4.066-.053-3.871 0-5.788.053v-.353a3.109 3.109 0 00.861-.141.612.612 0 00.373-.406 3.444 3.444 0 00.1-.971v-8.752a3.45 3.45 0 00-.1-.97.611.611 0 00-.373-.406 3.094 3.094 0 00-.861-.141v-.353q1.917.053 5.788.053 2.609 0 3.71-.053-.124 1.464-.124 2.612a10.227 10.227 0 00.053 1.2h-.408a5.011 5.011 0 00-.959-2.647 2.51 2.51 0 00-1.953-.759h-.728a2.6 2.6 0 00-.8.088.529.529 0 00-.337.344 2.724 2.724 0 00-.089.821v4.376h.568a1.642 1.642 0 001.429-.688 4.288 4.288 0 00.683-1.641h.408q-.053.741-.053 1.659v.847q0 .9.107 2.505h-.409q-.372-2.329-2.166-2.329h-.568v4.446a2.723 2.723 0 00.089.821.53.53 0 00.337.344 2.608 2.608 0 00.8.088h.87a2.606 2.606 0 002.033-.856 5.678 5.678 0 001.092-2.9h.408q-.053.582-.053 1.482a23.675 23.675 0 00.126 2.68z" data-name="Path 29"/>
    <path fill="#21ff43" d="M31.676 20.574a1.924 1.924 0 01.426.865 6.5 6.5 0 01.125 1.429v4.747a1.467 1.467 0 00.257 1 1.168 1.168 0 00.878.274v.371q-1.774-.071-2.343-.071-.532 0-2.308.071v-.374a.892.892 0 00.745-.274 1.694 1.694 0 00.213-1v-5.487a2.032 2.032 0 00-.24-1.094.947.947 0 00-.861-.37 1.592 1.592 0 00-1.243.591 2.139 2.139 0 00-.515 1.456v4.905a1.694 1.694 0 00.213 1 .892.892 0 00.746.274v.371q-1.633-.071-2.2-.071-.532 0-2.45.071v-.372a1.167 1.167 0 00.888-.274 1.5 1.5 0 00.248-1v-5.558a2.176 2.176 0 00-.248-1.182.991.991 0 00-.888-.371v-.37q.569.053 1.1.053a11.213 11.213 0 002.592-.247v1.588a2.945 2.945 0 012.909-1.639 2.475 2.475 0 011.956.688z" data-name="Path 30"/>
    <path fill="#21ff43" d="M43.003 28.497a.99.99 0 00.887.371v.371q-.55-.053-1.1-.053a11.187 11.187 0 00-2.592.247v-1.518a2.273 2.273 0 01-2.308 1.588 3.247 3.247 0 01-2.655-1.209 5.62 5.62 0 01-.968-3.644 6.092 6.092 0 01.506-2.62 3.615 3.615 0 011.4-1.605 3.9 3.9 0 012.051-.538 2.682 2.682 0 011.971.671v-3a2.109 2.109 0 00-.258-1.182.993.993 0 00-.878-.371v-.371q.568.053 1.1.053a11.47 11.47 0 002.592-.247v11.875a2.172 2.172 0 00.252 1.182zm-3.346-.176a1.812 1.812 0 00.542-1.147v-6.176a1.512 1.512 0 00-1.3-.6 1.6 1.6 0 00-1.456 1.076 7.588 7.588 0 00-.5 3.212 7.885 7.885 0 00.417 3.105 1.367 1.367 0 001.252.953 1.478 1.478 0 001.044-.424z" data-name="Path 31"/>
    <path fill="#21ff43" d="M48.328 27.615a1.464 1.464 0 00.258 1 1.167 1.167 0 00.879.273v.371q-1.776-.071-2.362-.071-.55 0-2.468.071v-.378a1.166 1.166 0 00.888-.273 1.5 1.5 0 00.248-1V22.05a2.176 2.176 0 00-.248-1.182.991.991 0 00-.888-.37v-.371c.379.035.745.053 1.1.053a11.2 11.2 0 002.592-.247zm-.2-11.672a1.359 1.359 0 010 1.994 2.106 2.106 0 01-2.361 0 1.359 1.359 0 010-1.994 2.106 2.106 0 012.361 0z" data-name="Path 32"/>
    <path fill="#21ff43" d="M54.986 20.054a3.045 3.045 0 01.87.379.576.576 0 00.319.124.332.332 0 00.276-.168 1.074 1.074 0 00.15-.485h.373q-.071.9-.07 3.106h-.373a4.459 4.459 0 00-.7-1.95 1.792 1.792 0 00-1.572-.785 1.3 1.3 0 00-.879.3 1.041 1.041 0 00-.346.829 1.452 1.452 0 00.408 1.032 8.9 8.9 0 001.279 1.05l.514.371a9.171 9.171 0 011.6 1.447 2.443 2.443 0 01.515 1.588 2.223 2.223 0 01-.453 1.376 2.859 2.859 0 01-1.216.917 4.345 4.345 0 01-1.687.318 3.5 3.5 0 01-1.669-.371 8.672 8.672 0 00-.817-.37.274.274 0 00-.311.115 1.222 1.222 0 00-.2.5h-.373q.071-1.005.071-3.529h.373q.354 3.247 2.4 3.247a1.312 1.312 0 00.879-.309 1.17 1.17 0 00.364-.944 1.75 1.75 0 00-.221-.882 2.738 2.738 0 00-.56-.688q-.337-.3-1.012-.829-.8-.635-1.216-1.023a3.679 3.679 0 01-.71-.918 2.4 2.4 0 01-.292-1.182 2.094 2.094 0 01.888-1.782 3.554 3.554 0 012.166-.653 4.373 4.373 0 011.232.169z" data-name="Path 33"/>
    <path fill="#21ff43" d="M62.033 20.133h2.095v.353h-2.095v7.129a1.171 1.171 0 00.187.75.736.736 0 00.594.22q.764 0 1.207-1.058l.3.158a2.452 2.452 0 01-2.432 1.818 2.415 2.415 0 01-1.775-.6 1.891 1.891 0 01-.506-.926 6.853 6.853 0 01-.133-1.526v-5.964h-1.492v-.353h1.492v-2.329a5.453 5.453 0 002.556-.565z" data-name="Path 34"/>
    <path fill="#21ff43" d="M68.373 27.615a1.467 1.467 0 00.257 1 1.169 1.169 0 00.879.273v.371q-1.775-.071-2.361-.071-.55 0-2.468.071v-.378a1.168 1.168 0 00.888-.273 1.508 1.508 0 00.248-1V22.05a2.183 2.183 0 00-.248-1.182.993.993 0 00-.888-.37v-.371q.568.052 1.1.053a11.213 11.213 0 002.592-.247zm-.2-11.672a1.361 1.361 0 010 1.994 2.107 2.107 0 01-2.362 0 1.361 1.361 0 010-1.994 2.107 2.107 0 012.362 0z" data-name="Path 35"/>
    <path fill="#fff" d="M0 14.434v.282h.142a1.8 1.8 0 011.335.691 4.466 4.466 0 01.639 2.033 34.6 34.6 0 01.185 4.136 10.883 10.883 0 00.6 4.037 3.6 3.6 0 001.917 2.019 9.413 9.413 0 003.679.579v-.536a2.051 2.051 0 01-1.349-.41 2.808 2.808 0 01-.582-1.623 33.745 33.745 0 01-.17-4.066q0-3.444-1.506-5a7.878 7.878 0 00-4.091-2.118c.039-.008.075-.019.114-.028z" data-name="Path 36"/>
    <path fill="#21ff43" d="M80.889 14.434c.039.009.075.02.114.028a7.872 7.872 0 00-4.09 2.118q-1.507 1.553-1.505 5a33.467 33.467 0 01-.171 4.066 2.812 2.812 0 01-.582 1.623 2.05 2.05 0 01-1.349.41v.536a9.413 9.413 0 003.678-.579 3.6 3.6 0 001.917-2.019 10.882 10.882 0 00.6-4.037 34.478 34.478 0 01.185-4.136 4.453 4.453 0 01.639-2.033 1.794 1.794 0 011.335-.691h.142v-.286z" data-name="Path 37"/>
    <path fill="#fff" d="M8.223 3.437a10.244 10.244 0 00-.6 3.91 35.049 35.049 0 01-.185 4.164 4.463 4.463 0 01-.639 2.033 1.708 1.708 0 01-1.335.663h-.142v.226h.909a7.866 7.866 0 003.977-2.075q1.505-1.538 1.505-5.011a32.023 32.023 0 01.17-3.938 2.8 2.8 0 01.6-1.623 2.011 2.011 0 011.335-.423V.827a9.035 9.035 0 00-3.665.607 3.722 3.722 0 00-1.93 2.003z" data-name="Path 38"/>
    <path fill="#21ff43" d="M74.999 13.546a4.445 4.445 0 01-.639-2.033 34.729 34.729 0 01-.185-4.164 10.255 10.255 0 00-.6-3.91 3.727 3.727 0 00-1.931-2 9.041 9.041 0 00-3.665-.607v.536a2.014 2.014 0 011.335.423 2.8 2.8 0 01.6 1.623 31.826 31.826 0 01.171 3.938q0 3.473 1.505 5.011a7.863 7.863 0 003.977 2.075h.909v-.226h-.142a1.707 1.707 0 01-1.335-.666z" data-name="Path 39"/>
  </g>
</svg>
