<svg xmlns="http://www.w3.org/2000/svg" viewBox="0 0 61 61">
  <path fill="#00BAFF" d="M30.5.5c16.6 0 30 13.4 30 30s-13.4 30-30 30-30-13.4-30-30 13.4-30 30-30z"/>
  <path fill="#FFF" d="M32.7 23.4c-1.6.5-2.6 2-2.5 3.7v.6l-.6-.1c-2.3-.3-4.4-1.3-6.1-3l-.8-.8-.2.6c-.5 1.3-.2 2.8.8 3.8.5.5.4.6-.5.3-.2-.1-.4-.1-.6-.1 0 .6.2 1.2.5 1.7.4.7 1 1.3 1.7 1.6l.6.3h-.7c-.7 0-.7 0-.7.3.5 1 1.3 1.8 2.4 2.1l.8.3-.7.4c-1 .6-2.2.9-3.4 1-.4 0-.7 0-1 .1.8.5 1.6.9 2.5 1.1 2.8.8 5.8.5 8.4-1 1.9-1.2 3.4-2.9 4.2-5 .5-1.2.8-2.5.9-3.9 0-.6 0-.7.8-1.4.3-.3.6-.6.9-1 .1-.2.1-.2-.5 0-1.1.4-1.2.3-.7-.2.4-.4.7-.9.9-1.4 0 0-.2 0-.4.1-.4.2-.7.3-1.1.4l-.7.2-.9-.2c-.3-.2-.7-.4-1.1-.6-.7-.1-1.4-.1-2.2.1z"/>
</svg>
