<svg xmlns="http://www.w3.org/2000/svg" xmlns:xlink="http://www.w3.org/1999/xlink" viewBox="24 71 452 58" preserveAspectRatio="xMidYMid meet">
	<path fill="#FFFFFF" d="M42,71.3c-9.5,0-12.9,3.3-12.9,13.7c0,11.1-0.9,14.1-4.5,14.3h-0.3v1.1h0.3c3.6,0.3,4.5,3.3,4.5,14.4
		c0,10.9,3.4,13.9,12.9,13.9v-1.1c-3.5-0.1-4.4-1.1-4.4-12.8c0-10.6-5.6-13.6-11.6-14.9c6-1.3,11.6-4.3,11.6-14.9
		c0-11.2,0.8-12.4,4.4-12.6V71.3z"/>
	<path fill="#FFFFFF" d="M78.9,75.7c-3.6,0.2-8.7,0.2-12.4,0.2c-4,0-12.8,0-19.3-0.2v1.2c3.7,0.2,4.4,0.8,4.4,5.1v29.3
		c0,4.3-0.7,4.9-4.4,5.1v1.2c2.6-0.1,6-0.2,9.4-0.2c4.2,0,8.3,0.1,10.8,0.2v-1.3c-5.3-0.1-6.3-0.7-6.3-5.3V97.4h2.1
		c4.7,0,6.6,3.7,7.2,7.8h1.4c-0.3-4.5-0.4-6.4-0.4-8.4c0-0.8,0-1.6,0-2.7c0-1.4,0.1-3.1,0.2-5.7h-1.4c-0.6,3.2-2.3,7.8-7,7.8h-2.1
		V81.3c0-3.7,0.6-4.2,4.1-4.2h2c5.5,0,8.6,2.9,10.2,12.1h1.4c-0.1-1.1-0.2-2.7-0.2-4.5C78.5,82.9,78.6,79.3,78.9,75.7z"/>
	<path fill="#FFFFFF" d="M102,86.2c-3.7,0-6.6,2.5-8,5.7v-5.5c-2.5,0.6-5.3,0.8-8.6,0.8c-1.2,0-2.4-0.1-3.7-0.2v1.2
		c2.9,0,3.8,1.7,3.8,5.2v18.6c0,3.3-1,4.2-3.8,4.2v1.2c1.6-0.1,5.2-0.2,8.5-0.2c3.7,0,7.6,0.2,9.4,0.2v-1.2c-3.7,0-5.5-1-5.5-4.8
		V95.8c0-3.2,2.2-7.1,5.4-7.6c0.3-0.1,0.6-0.1,0.8-0.1c0.3,0,0.5,0.1,0.8,0.1c-1.5,1-2.6,2.4-2.6,4.6c0,2.3,1.6,3.8,4.4,3.8
		c2.8,0,4.6-2,4.6-5C107.4,89,105.9,86.2,102,86.2z"/>
	<path fill="#FFFFFF" d="M123.8,86.2c-8.5,0-14.5,4.4-14.5,16.1c0,11.7,6,16.1,14.5,16.1c8.5,0,14.5-4.4,14.5-16.1
		C138.2,90.6,132.3,86.2,123.8,86.2z M123.8,87.4c3.2,0,5.6,4.4,5.6,15c0,10.6-2.3,14.9-5.6,14.9c-3.2,0-5.5-4.3-5.5-14.9
		C118.2,91.7,120.5,87.4,123.8,87.4z"/>
	<path fill="#FFFFFF" d="M163.8,86.2c-4.2,0-7.7,1.5-9.6,5.5v-5.3c-2.5,0.6-5.3,0.8-8.6,0.8c-1.2,0-2.4-0.1-3.7-0.2v1.2
		c2.9,0,3.8,1.7,3.8,5.2v18.6c0,3.3-1,4.2-3.8,4.2v1.2c1.6-0.1,5.1-0.2,8.1-0.2c2.9,0,5.9,0.2,7.3,0.2v-1.2c-2.3,0-3.2-1-3.2-4.2
		V95.6c0-3.9,2.5-6.8,5.9-6.8c2.9,0,3.6,2,3.6,4.9v18.4c0,3.3-0.8,4.2-3.2,4.2v1.2c1.4-0.1,4.6-0.2,7.7-0.2c2.9,0,6.3,0.2,7.8,0.2
		v-1.2c-2.7,0-3.8-1-3.8-4.2V96.2c0-4-0.5-6.2-1.8-7.7C169.2,87.1,167.2,86.2,163.8,86.2z"/>
	<path fill="#FFFFFF" d="M190.2,87v-9.7c-2.5,1.3-5.2,1.9-8.5,1.9V87h-5v1.2h5v19.9c0,4.1,0.4,6.5,2.1,8.3c1.3,1.3,3.3,2,5.9,2
		c4.4,0,6.8-2.5,8.1-6.1l-1-0.5c-1.2,2.6-2.6,3.6-4,3.6c-1.7,0-2.6-0.9-2.6-3.3V88.2h7V87H190.2z"/>
	<path fill="#FFFFFF" d="M216.1,113.5c-3.8,0-7.7-3.2-7.7-11.4c0-1,0-1.9,0.1-2.8h16.5c0-9.3-4.2-13.1-11.1-13.1
		c-8.4,0-14.5,5.5-14.5,16.4c0,10.8,5.7,15.8,13.6,15.8c6.6,0,10.4-4.8,11.8-9.2l-1.1-0.4C221.5,112.7,218.5,113.5,216.1,113.5z
		 M213.6,87.4c2.9,0,4.1,5,4,10.7h-9.3C208.8,90.5,210.9,87.4,213.6,87.4z"/>
	<path fill="#FFFFFF" d="M250.1,86.2c-4.2,0-7.7,1.5-9.6,5.5v-5.3c-2.5,0.6-5.3,0.8-8.6,0.8c-1.2,0-2.4-0.1-3.7-0.2v1.2
		c2.9,0,3.8,1.7,3.8,5.2v18.6c0,3.3-1,4.2-3.8,4.2v1.2c1.6-0.1,5.1-0.2,8.1-0.2c2.9,0,5.9,0.2,7.3,0.2v-1.2c-2.3,0-3.2-1-3.2-4.2
		V95.6c0-3.9,2.5-6.8,5.9-6.8c2.9,0,3.6,2,3.6,4.9v18.4c0,3.3-0.8,4.2-3.2,4.2v1.2c1.4-0.1,4.6-0.2,7.7-0.2c2.9,0,6.3,0.2,7.8,0.2
		v-1.2c-2.7,0-3.8-1-3.8-4.2V96.2c0-4-0.5-6.2-1.8-7.7C255.5,87.1,253.5,86.2,250.1,86.2z"/>
	<path fill="#FFFFFF" d="M293.5,71.3c-2.5,0.6-5.3,0.8-8.6,0.8c-1.2,0-2.4-0.1-3.7-0.2v1.2c2.9,0,3.8,1.7,3.8,5.2v10
		c-1.6-1.6-3.8-2.2-6.5-2.2c-7.6,0-13.2,5.3-13.2,16c0,11.3,5,16.2,12.1,16.2c3.8,0,6.3-1.8,7.7-5.2v5c2.5-0.6,5.3-0.8,8.6-0.8
		c1.2,0,2.4,0.1,3.7,0.2v-1.2c-2.9,0-3.8-1.7-3.8-5.2V71.3z M279.8,115.8c-3.4,0-5.6-3.5-5.6-13.6c0-9.8,2.4-14.4,6.5-14.4
		c1.7,0,3.2,0.6,4.3,2v21C284.5,114,282.2,115.8,279.8,115.8z"/>
	<path fill="#FFFFFF" d="M307.5,71.7c-3.3,0-5.4,1.7-5.4,4.6c0,2.9,2.1,4.6,5.4,4.6c3.3,0,5.4-1.7,5.4-4.6
		C312.8,73.5,310.7,71.7,307.5,71.7z M312.1,86.3c-2.5,0.6-5.3,0.8-8.6,0.8c-1.2,0-2.4-0.1-3.7-0.2v1.2c2.9,0,3.8,1.7,3.8,5.2v18.6
		c0,3.3-1,4.2-3.8,4.2v1.2c1.6-0.1,5.1-0.2,8.2-0.2c3.1,0,6.4,0.2,7.9,0.2v-1.2c-2.8,0-3.8-1-3.8-4.2V86.3z"/>
	<path fill="#FFFFFF" d="M330.1,86.2c-5.4,0-10.2,2.9-10.2,8.1c0,4.8,3.6,7.4,7.4,10.5c3.4,2.7,6,4.6,6,8.1c0,3-2.1,4.2-4.2,4.2
		c-5,0-7.2-4.5-8-10.9h-1.3c0,6-0.1,9.3-0.2,11.8h1.2c0.3-1.3,0.8-2.1,1.4-2.1c0.1,0,0.2,0,0.3,0.1c0.8,0.3,1.7,0.7,2.7,1.2
		c1.3,0.7,3.2,1.2,5.5,1.2c6.1,0,11.2-3.4,11.2-8.8c0-4.7-3.1-7.2-7.1-10.1c-3.6-2.7-7.3-4.7-7.3-8.2c0-2.4,1.7-3.8,4-3.8
		c5.1,0,7,4.8,7.6,9.1h1.2c0-5.3,0.1-8.1,0.3-10.4h-1.3c-0.2,1.5-0.7,2.2-1.4,2.2c-0.3,0-0.7-0.1-1.1-0.4
		C336,87.2,333.4,86.2,330.1,86.2z"/>
	<path fill="#FFFFFF" d="M357.7,87v-9.7c-2.5,1.3-5.2,1.9-8.5,1.9V87h-5v1.2h5v19.9c0,4.1,0.4,6.5,2.1,8.3c1.3,1.3,3.3,2,5.9,2
		c4.4,0,6.8-2.5,8.1-6.1l-1-0.5c-1.2,2.6-2.6,3.6-4,3.6c-1.7,0-2.6-0.9-2.6-3.3V88.2h7V87H357.7z"/>
	<path fill="#FFFFFF" d="M374.2,71.7c-3.3,0-5.4,1.7-5.4,4.6c0,2.9,2.1,4.6,5.4,4.6c3.3,0,5.4-1.7,5.4-4.6
		C379.5,73.5,377.4,71.7,374.2,71.7z M378.8,86.3c-2.5,0.6-5.3,0.8-8.6,0.8c-1.2,0-2.4-0.1-3.7-0.2v1.2c2.9,0,3.8,1.7,3.8,5.2v18.6
		c0,3.3-1,4.2-3.8,4.2v1.2c1.6-0.1,5.1-0.2,8.2-0.2c3.1,0,6.4,0.2,7.9,0.2v-1.2c-2.8,0-3.8-1-3.8-4.2V86.3z"/>
	<path fill="#FFFFFF" d="M391.7,109.3c-3.1,0-5,1.7-5,4.6c0,2.8,1.9,4.6,5,4.6s5.1-1.7,5.1-4.6C396.7,111,394.8,109.3,391.7,109.3z"
		/>
	<path fill="#FFFFFF" d="M416.5,86.2c-8.4,0-14.6,5.6-14.6,16.3c0,11.1,6.1,16,13.8,16c6.8,0,10.4-4.9,11.7-9.3l-1-0.4
		c-2.4,4-5.5,4.8-7.7,4.8c-3.9,0-7.8-2.7-7.8-11.9c0-8,2.6-14,7.5-14c1.6,0,2.9,0.6,3.5,1.4c-2.1,0.6-3.9,2.4-3.9,4.8
		c0,2.7,1.8,4.4,4.6,4.4c2.7,0,4.7-2,4.7-4.8c0-2.3-1.3-4.3-3.3-5.5C422.2,86.9,419.5,86.2,416.5,86.2z"/>
	<path fill="#FFFFFF" d="M440.5,116.7l14.8-30C451.4,86.9,447,87,443,87c-3.8,0-7.8-0.1-11.3-0.3c0.2,2.5,0.2,5.9,0.2,11.7h1.2
		c0.6-8,4.4-10.6,9.2-10.6h3.3l-14.8,30c3.9-0.2,8.2-0.3,12.3-0.3c3.8,0,7.8,0.1,11.3,0.2c-0.2-2.5-0.2-5.9-0.2-11.7H453
		c-0.6,8-4.9,10.6-9.4,10.6H440.5z"/>
	<path fill="#FFFFFF" d="M458,72.5c3.6,0.1,4.4,1.4,4.4,12.6c0,10.6,5.6,13.6,11.6,14.9c-6,1.3-11.6,4.3-11.6,14.9
		c0,11.6-0.8,12.7-4.4,12.8v1.1c9.5,0,12.9-3,12.9-13.9c0-11.1,0.9-14.1,4.5-14.4h0.3v-1.1h-0.3c-3.6-0.2-4.5-3.2-4.5-14.3
		c0-10.4-3.4-13.7-12.9-13.7V72.5z"/>
</svg>
