<svg xmlns="http://www.w3.org/2000/svg" viewBox="0 0 451.4 57.4">
	<path
		d="M18,.3C8.5.3,5.1,3.6,5.1,14S4.2,28.1.6,28.4H.3v1H.6c3.6.3,4.5,3.4,4.5,14.4S8.5,57.7,18,57.7V56.6c-3.6-.1-4.4-1.2-4.4-12.8S8,30.2,2,28.9C8,27.6,13.6,24.6,13.6,14S14.4,1.6,18,1.5Z"
		transform="translate(-0.3 -0.3)" fill="#fff" />
	<path
		d="M54.9,4.7c-3.6.2-8.7.2-12.4.2s-12.8,0-19.2-.2V5.9c3.7.2,4.4.8,4.4,5.1V40.3c0,4.3-.7,4.9-4.4,5.1v1.2l9.4-.2,10.7.2V45.3c-5.2-.1-6.3-.7-6.3-5.3V26.4h2.1c4.7,0,6.6,3.6,7.2,7.8h1.4c-.3-4.5-.4-6.5-.4-8.4V23.1c0-1.4,0-3.1.2-5.7H46.2c-.6,3.2-2.3,7.8-7,7.8H37.1V10.3c0-3.7.7-4.2,4.1-4.2h1.9c5.6,0,8.7,2.9,10.2,12.1h1.4c-.1-1.1-.2-2.7-.2-4.5S54.6,8.3,54.9,4.7Z"
		transform="translate(-0.3 -0.3)" fill="#fff" />
	<path
		d="M78,15.2c-3.7,0-6.5,2.5-7.9,5.7V15.3a37.5,37.5,0,0,1-8.7.9L57.8,16v1.2c2.8,0,3.7,1.7,3.7,5.2V41.1c0,3.3-1,4.2-3.7,4.2v1.3c1.6-.1,5.2-.3,8.4-.3s7.6.2,9.4.3V45.3c-3.7,0-5.5-1-5.5-4.8V24.8c0-3.1,2.2-7.1,5.3-7.6H77a5.5,5.5,0,0,0-2.6,4.6c0,2.3,1.7,3.8,4.5,3.8s4.5-2.1,4.5-5A5.1,5.1,0,0,0,78,15.2Z"
		transform="translate(-0.3 -0.3)" fill="#fff" />
	<path
		d="M99.8,15.2c-8.5,0-14.5,4.4-14.5,16.1s6,16.1,14.5,16.1,14.4-4.4,14.4-16.1S108.3,15.2,99.8,15.2Zm0,1.2c3.2,0,5.5,4.3,5.5,14.9S103,46.2,99.8,46.2s-5.6-4.3-5.6-14.9S96.5,16.4,99.8,16.4Z"
		transform="translate(-0.3 -0.3)" fill="#fff" />
	<path
		d="M139.8,15.2c-4.1,0-7.6,1.5-9.6,5.5V15.3a36.6,36.6,0,0,1-8.6.9l-3.7-.2v1.2c2.9,0,3.8,1.7,3.8,5.2V41.1c0,3.3-1.1,4.2-3.8,4.2v1.3c1.6-.1,5.1-.3,8.1-.3s6,.2,7.4.3V45.3c-2.4,0-3.2-.9-3.2-4.2V24.6c0-3.9,2.5-6.8,5.9-6.8s3.6,2,3.6,4.9V41.1c0,3.3-.8,4.2-3.2,4.2v1.3c1.5-.1,4.7-.3,7.7-.3s6.3.2,7.8.3V45.3c-2.7,0-3.8-.9-3.8-4.2V25.2c0-4.1-.5-6.2-1.8-7.7S143.2,15.2,139.8,15.2Z"
		transform="translate(-0.3 -0.3)" fill="#fff" />
	<path
		d="M166.2,16V6.3a17.8,17.8,0,0,1-8.5,1.9V16h-5v1.2h5v20c0,4.1.4,6.5,2.1,8.2s3.2,2,5.9,2c4.4,0,6.8-2.5,8.1-6l-1-.6c-1.1,2.6-2.6,3.6-4,3.6s-2.6-.9-2.6-3.3V17.2h7V16Z"
		transform="translate(-0.3 -0.3)" fill="#fff" />
	<path
		d="M192.1,42.5c-3.7,0-7.7-3.2-7.7-11.4a26.2,26.2,0,0,1,.1-2.8h16.6c0-9.3-4.3-13.1-11.2-13.1s-14.4,5.4-14.4,16.4,5.6,15.8,13.6,15.8,10.4-4.7,11.8-9.2l-1-.4C197.5,41.7,194.5,42.5,192.1,42.5Zm-2.5-26.1c2.9,0,4.1,5,4,10.8h-9.2C184.8,19.5,186.9,16.4,189.6,16.4Z"
		transform="translate(-0.3 -0.3)" fill="#fff" />
	<path
		d="M226.1,15.2c-4.1,0-7.6,1.5-9.6,5.5V15.3a36.6,36.6,0,0,1-8.6.9l-3.7-.2v1.2c2.9,0,3.8,1.7,3.8,5.2V41.1c0,3.3-1,4.2-3.8,4.2v1.3c1.6-.1,5.1-.3,8.1-.3s6,.2,7.4.3V45.3c-2.4,0-3.2-.9-3.2-4.2V24.6c0-3.9,2.5-6.8,5.9-6.8s3.6,2,3.6,4.9V41.1c0,3.3-.8,4.2-3.2,4.2v1.3c1.5-.1,4.7-.3,7.7-.3s6.3.2,7.8.3V45.3c-2.7,0-3.8-.9-3.8-4.2V25.2c0-4.1-.5-6.2-1.8-7.7S229.5,15.2,226.1,15.2Z"
		transform="translate(-0.3 -0.3)" fill="#fff" />
	<path
		d="M269.5.3a36.5,36.5,0,0,1-8.6.8,23.6,23.6,0,0,1-3.7-.2V2.2c2.9,0,3.8,1.7,3.8,5.2v10c-1.6-1.6-3.8-2.2-6.5-2.2-7.6,0-13.2,5.3-13.2,16s5,16.2,12,16.2c3.9,0,6.4-1.8,7.7-5.2v5a37.6,37.6,0,0,1,8.6-.8h3.7V45.3c-2.8,0-3.8-1.7-3.8-5.2ZM255.8,44.8c-3.4,0-5.6-3.4-5.6-13.5s2.4-14.4,6.5-14.4a5.2,5.2,0,0,1,4.3,2v21A5.4,5.4,0,0,1,255.8,44.8Z"
		transform="translate(-0.3 -0.3)" fill="#fff" />
	<path
		d="M283.5.7c-3.4,0-5.4,1.8-5.4,4.6s2,4.6,5.4,4.6,5.3-1.7,5.3-4.6S286.7.7,283.5.7Zm4.6,14.6a36.6,36.6,0,0,1-8.6.9l-3.7-.2v1.2c2.9,0,3.8,1.7,3.8,5.2V41.1c0,3.3-1,4.2-3.8,4.2v1.3c1.6-.1,5.1-.3,8.2-.3s6.4.2,7.9.3V45.3c-2.8,0-3.8-.9-3.8-4.2Z"
		transform="translate(-0.3 -0.3)" fill="#fff" />
	<path
		d="M306.1,15.2c-5.4,0-10.2,2.9-10.2,8.1s3.6,7.5,7.5,10.5,5.9,4.6,5.9,8a3.9,3.9,0,0,1-4.1,4.3c-5,0-7.3-4.5-8-10.9h-1.3c0,6,0,9.2-.2,11.8h1.2c.3-1.3.8-2.1,1.5-2.1h.3l2.7,1.3a11.8,11.8,0,0,0,5.5,1.2c6.1,0,11.2-3.4,11.2-8.8s-3.1-7.2-7-10.1-7.3-4.7-7.3-8.2a3.7,3.7,0,0,1,4-3.8c5.1,0,7,4.8,7.6,9.1h1.2c0-5.2.1-8.1.3-10.4h-1.3c-.2,1.5-.7,2.2-1.4,2.2a1.6,1.6,0,0,1-1-.4A13.6,13.6,0,0,0,306.1,15.2Z"
		transform="translate(-0.3 -0.3)" fill="#fff" />
	<path
		d="M333.7,16V6.3a17.5,17.5,0,0,1-8.5,1.9V16h-5v1.2h5v20c0,4.1.4,6.5,2.1,8.2s3.3,2,6,2c4.3,0,6.7-2.5,8-6l-.9-.6c-1.2,2.6-2.6,3.6-4.1,3.6s-2.6-.9-2.6-3.3V17.2h7V16Z"
		transform="translate(-0.3 -0.3)" fill="#fff" />
	<path
		d="M350.2.7c-3.3,0-5.4,1.8-5.4,4.6s2.1,4.6,5.4,4.6,5.3-1.7,5.3-4.6S353.4.7,350.2.7Zm4.6,14.6a36.6,36.6,0,0,1-8.6.9l-3.7-.2v1.2c2.9,0,3.8,1.7,3.8,5.2V41.1c0,3.3-1,4.2-3.8,4.2v1.3c1.6-.1,5.1-.3,8.2-.3s6.4.2,7.9.3V45.3c-2.8,0-3.8-.9-3.8-4.2Z"
		transform="translate(-0.3 -0.3)" fill="#fff" />
	<path d="M367.7,38.3c-3.1,0-5,1.7-5,4.6s1.9,4.5,5,4.5,5-1.7,5-4.5S370.8,38.3,367.7,38.3Z"
		transform="translate(-0.3 -0.3)" fill="#fff" />
	<path
		d="M392.5,15.2c-8.4,0-14.6,5.6-14.6,16.3s6,15.9,13.7,15.9,10.4-4.9,11.8-9.3l-1.1-.4c-2.4,4-5.5,4.8-7.7,4.8-3.9,0-7.8-2.7-7.8-11.9s2.5-14,7.4-14a4.6,4.6,0,0,1,3.6,1.4,5.2,5.2,0,0,0-3.9,4.9,4.3,4.3,0,0,0,4.6,4.4,4.5,4.5,0,0,0,4.6-4.8,6.3,6.3,0,0,0-3.2-5.5A14.2,14.2,0,0,0,392.5,15.2Z"
		transform="translate(-0.3 -0.3)" fill="#fff" />
	<path
		d="M416.5,45.7l14.7-30c-3.8.2-8.2.3-12.2.3s-7.8,0-11.4-.2c.2,2.5.2,5.9.2,11.7h1.3c.6-8,4.4-10.6,9.2-10.6h3.3l-14.8,30c3.9-.2,8.3-.3,12.3-.3s7.8,0,11.4.2c-.2-2.4-.3-5.9-.3-11.7H429c-.6,8-4.9,10.6-9.4,10.6Z"
		transform="translate(-0.3 -0.3)" fill="#fff" />
	<path
		d="M434,1.5c3.6.1,4.4,1.3,4.4,12.5S444,27.6,450,28.9c-6,1.3-11.6,4.3-11.6,14.9s-.8,12.7-4.4,12.8v1.1c9.5,0,12.9-3,12.9-13.9s.9-14.1,4.5-14.4h.3v-1h-.3c-3.6-.3-4.5-3.3-4.5-14.4S443.5.3,434,.3Z"
		transform="translate(-0.3 -0.3)" fill="#fff" /></svg>
