<?xml version="1.0" standalone="no"?>
<!DOCTYPE svg PUBLIC "-//W3C//DTD SVG 20010904//EN"
 "http://www.w3.org/TR/2001/REC-SVG-20010904/DTD/svg10.dtd">
<svg version="1.0" xmlns="http://www.w3.org/2000/svg"
 width="880.000000pt" height="880.000000pt" viewBox="0 0 880.000000 880.000000"
 preserveAspectRatio="xMidYMid meet">
<metadata>
Created by potrace 1.11, written by Peter Selinger 2001-2013
</metadata>
<g transform="translate(0.000000,880.000000) scale(0.100000,-0.100000)"
fill="#000000" stroke="none">
<path d="M0 4395 l0 -2815 4400 0 4400 0 0 2815 0 2815 -4400 0 -4400 0 0
-2815z m7220 2534 c425 -49 661 -231 764 -591 46 -160 57 -270 66 -668 17
-708 61 -978 179 -1113 40 -45 138 -94 209 -102 l53 -7 -3 -42 -3 -41 -57 -7
c-67 -8 -124 -35 -178 -84 -53 -48 -74 -84 -109 -189 -56 -169 -78 -397 -91
-961 -10 -420 -24 -548 -81 -718 -48 -144 -94 -221 -184 -311 -63 -64 -98 -90
-165 -122 -149 -74 -320 -110 -562 -120 l-148 -6 0 46 0 46 48 6 c175 24 243
85 286 256 26 106 46 389 56 784 9 391 18 475 65 640 51 178 126 306 247 421
151 144 330 246 552 315 72 23 140 44 150 48 14 5 -7 14 -70 31 -409 107 -713
336 -835 628 -35 86 -72 223 -89 333 -6 41 -15 236 -20 434 -19 756 -56 921
-222 995 -25 11 -74 23 -107 26 l-61 7 0 45 0 44 113 -7 c61 -3 150 -11 197
-16z m-5320 -33 l0 -44 -67 -8 c-99 -10 -179 -55 -219 -122 -39 -64 -69 -183
-83 -322 -15 -147 -31 -494 -31 -692 0 -437 -94 -733 -296 -933 -162 -161
-427 -302 -667 -355 -32 -8 -54 -16 -50 -20 4 -4 40 -15 78 -25 256 -66 490
-199 655 -371 78 -82 98 -111 145 -207 104 -214 131 -382 139 -872 6 -336 25
-611 51 -721 43 -184 110 -246 293 -269 l52 -7 0 -44 c0 -31 -5 -46 -16 -51
-8 -3 -88 0 -177 6 -560 39 -803 215 -905 656 -40 171 -52 317 -62 730 -13
550 -41 781 -116 934 -50 101 -148 173 -257 187 l-48 7 3 46 3 46 55 6 c74 8
120 29 175 80 138 127 178 351 195 1069 10 418 20 538 61 695 77 299 241 481
514 569 132 42 326 71 508 75 l67 1 0 -44z m3866 -731 c-26 -259 -39 -928 -22
-1072 l8 -63 -60 0 -61 0 -11 58 c-116 581 -286 862 -589 972 -119 44 -201 52
-441 47 -236 -4 -273 -11 -327 -60 -68 -63 -67 -53 -71 -889 l-3 -748 133 0
c271 0 395 65 517 268 55 92 120 249 147 355 l16 67 57 0 56 0 -4 -447 c-2
-279 1 -548 9 -713 8 -146 14 -281 14 -300 l1 -35 -57 -3 c-63 -3 -58 -9 -78
91 -49 247 -181 458 -337 540 -103 54 -169 67 -332 67 l-142 0 3 -707 c3 -654
5 -712 22 -765 48 -149 131 -186 471 -208 193 -12 272 -5 392 36 249 83 417
275 531 604 36 106 90 321 107 428 l7 42 60 0 60 0 -6 -52 c-19 -150 -5 -916
20 -1127 l7 -54 -304 7 c-450 10 -2108 11 -2376 2 l-233 -9 0 51 0 51 58 6
c100 11 213 43 250 71 44 34 68 88 82 189 17 121 9 3002 -9 3067 -32 121 -108
167 -309 186 l-67 7 -3 50 -3 50 1411 0 1412 0 -6 -60z"/>
</g>
</svg>
