<?xml version="1.0" encoding="utf-8"?>
<!-- Generator: Adobe Illustrator 23.0.1, SVG Export Plug-In . SVG Version: 6.00 Build 0)  -->
<svg version="1.1" id="Vrstva_1" xmlns="http://www.w3.org/2000/svg" xmlns:xlink="http://www.w3.org/1999/xlink" x="0px" y="0px"
	 viewBox="0 0 22 14" enable-background="new 0 0 22 14" xml:space="preserve">
<g>
	<path fill="#FFFFFF" d="M20.7,4.4c0,0.1,0,0.1,0,0.2l-1.3,5.1c-0.1,0.3-0.3,0.4-0.6,0.4l-7.8,0H3.2C3,10.2,2.7,10,2.7,9.7L1.4,4.6
		c0-0.1,0-0.1,0-0.2C0.9,4.3,0.5,3.8,0.5,3.2C0.5,2.6,1.1,2,1.7,2C2.4,2,3,2.6,3,3.2C3,3.6,2.8,4,2.5,4.2l1.6,1.6
		c0.4,0.4,1,0.6,1.6,0.6c0.7,0,1.3-0.3,1.8-0.9l2.7-3.5C9.9,1.9,9.8,1.6,9.8,1.2C9.8,0.6,10.3,0,11,0s1.2,0.6,1.2,1.2
		c0,0.3-0.1,0.6-0.3,0.8c0,0,0,0,0,0l2.6,3.5c0.4,0.5,1.1,0.9,1.8,0.9c0.6,0,1.1-0.2,1.6-0.6l1.6-1.6C19.2,4,19,3.6,19,3.2
		C19,2.6,19.6,2,20.3,2s1.2,0.5,1.2,1.2C21.5,3.8,21.2,4.2,20.7,4.4L20.7,4.4z M19.2,12c0-0.3-0.3-0.6-0.6-0.6H3.4
		c-0.3,0-0.6,0.3-0.6,0.6v1.4c0,0.3,0.3,0.6,0.6,0.6h15.2c0.3,0,0.6-0.3,0.6-0.6V12z"/>
</g>
</svg>
