<svg xmlns="http://www.w3.org/2000/svg" viewBox="0 0 24 24">
  <path d="M5.503 13a2.502 2.502 0 01-2.5-2.5v-8c0-1.379 1.121-2.5 2.5-2.5h13c1.378 0 2.5 1.121 2.5 2.5v8c0 1.379-1.122 2.5-2.5 2.5h-13zm0-12c-.827 0-1.5.673-1.5 1.5v8c0 .827.673 1.5 1.5 1.5h13c.827 0 1.5-.673 1.5-1.5v-8c0-.827-.673-1.5-1.5-1.5h-13z"/>
  <path d="M16.7 11.026a.498.498 0 01-.42-.229c-.265-.411-1.418-.834-2.638-1.283l-.388-.143c-.208-.078-.48-.274-.602-.771-.109-.448-.091-1.255.226-1.606a2.845 2.845 0 00.743-2.207.511.511 0 01-.002-.079 1.616 1.616 0 00-.4-1.18 1.613 1.613 0 00-1.115-.55c-.036-.002-.072-.004-.107-.004a1.628 1.628 0 00-1.62 1.731.56.56 0 01-.001.082 2.847 2.847 0 00.74 2.203c.318.352.338 1.156.23 1.602-.12.499-.392.698-.598.776l-.44.164c-1.198.445-2.328.864-2.588 1.266a.5.5 0 11-.839-.544c.441-.681 1.547-1.091 3.077-1.658l.384-.143a.487.487 0 00.021-.058c.081-.273.026-.654-.011-.756a3.84 3.84 0 01-.976-2.909 2.63 2.63 0 012.793-2.748 2.633 2.633 0 012.451 2.749 3.841 3.841 0 01-.986 2.92c-.024.072-.083.474 0 .748a.301.301 0 00.02.054l.334.123c1.56.574 2.688.988 3.134 1.679a.501.501 0 01-.422.771zM16.471 23.999a.342.342 0 01-.048-.008.46.46 0 01-.132-.037l-.025-.013a.477.477 0 01-.249-.335.314.314 0 01-.015-.088 3.449 3.449 0 00-.342-1.386c-.162-.323-1.267-.729-2.243-1.088l-.355-.131c-.161-.06-.45-.23-.567-.704-.104-.42-.05-1.055.216-1.348.463-.502.69-1.177.624-1.853a.515.515 0 01-.002-.079 1.326 1.326 0 00-.328-.97 1.327 1.327 0 00-1.009-.456 1.336 1.336 0 00-1.327 1.424.561.561 0 01-.001.082c-.066.676.16 1.351.621 1.85.266.294.321.926.22 1.343-.115.477-.404.65-.566.711l-.36.133c-1.023.377-2.08.766-2.244 1.094A3.392 3.392 0 008 23.517c-.001.043-.012.076-.017.093-.003.016-.008.048-.023.083-.016.039-.037.067-.049.084-.013.02-.029.046-.056.073-.029.03-.06.049-.078.061-.019.013-.043.031-.078.047-.042.019-.082.025-.105.029-.004.001-.035.011-.076.013l-.049-.001a.272.272 0 01-.073-.015.351.351 0 01-.097-.027c-.033-.015-.058-.033-.071-.042a.416.416 0 01-.084-.065c-.026-.026-.042-.052-.051-.066-.016-.023-.037-.051-.053-.091-.015-.035-.02-.067-.023-.083A.368.368 0 017 23.516a3.424 3.424 0 00-.342-1.386c-.161-.323-1.267-.729-2.242-1.088l-.356-.131c-.161-.059-.45-.23-.567-.704-.103-.42-.05-1.055.216-1.349.463-.502.69-1.177.624-1.854a.503.503 0 010-.095 1.284 1.284 0 00-.292-.943 1.274 1.274 0 00-.993-.467h-.097a1.283 1.283 0 00-1.285 1.411.503.503 0 010 .095c-.066.676.16 1.35.621 1.85.266.294.321.926.22 1.343-.115.477-.404.65-.566.711l-.39.144c-.313.115-.604.222-.87.327a.497.497 0 01-.647-.283.498.498 0 01.283-.648c.274-.107.572-.217.889-.334l.32-.118.003-.009a1.01 1.01 0 00-.007-.488 3.384 3.384 0 01-.855-2.546A2.304 2.304 0 012.948 14.5h.108a2.298 2.298 0 012.276 2.455 3.395 3.395 0 01-.858 2.549c-.025.082-.056.32-.004.489l.002.006.288.106c1.354.499 2.35.865 2.739 1.487.393-.623 1.386-.989 2.734-1.485l.292-.108.003-.009a1.01 1.01 0 00-.007-.488 3.385 3.385 0 01-.855-2.553 2.344 2.344 0 012.485-2.442 2.32 2.32 0 011.603.792c.401.458.605 1.044.576 1.651a3.39 3.39 0 01-.865 2.564c-.013.05-.051.303.004.48l.002.006.288.106c1.354.498 2.35.865 2.739 1.487.392-.624 1.387-.99 2.736-1.486l.29-.107.003-.009a1.01 1.01 0 00-.007-.488 3.387 3.387 0 01-.855-2.553 2.32 2.32 0 01.794-1.869 2.33 2.33 0 013.295.218c.401.458.605 1.044.576 1.651a3.39 3.39 0 01-.865 2.564c-.013.05-.051.303.004.48l.002.006.485.18c.266.098.503.185.724.272a.501.501 0 01.283.648.496.496 0 01-.466.317.498.498 0 01-.182-.034 35.919 35.919 0 00-.697-.261c-.187-.069-.373-.137-.564-.209-.159-.059-.447-.229-.563-.703-.104-.42-.05-1.055.216-1.348.463-.502.69-1.177.624-1.853a.515.515 0 01-.002-.079 1.326 1.326 0 00-.328-.97 1.327 1.327 0 00-1.009-.456 1.336 1.336 0 00-1.327 1.423.579.579 0 01-.002.084 2.39 2.39 0 00.621 1.848c.266.293.321.925.22 1.343-.115.477-.404.65-.565.711l-.361.133c-.975.359-2.08.765-2.243 1.093a3.423 3.423 0 00-.339 1.381c-.001.043-.012.076-.017.093a.356.356 0 01-.023.083c-.017.039-.038.068-.05.086a.374.374 0 01-.132.132c-.018.013-.043.032-.078.047-.042.019-.082.025-.106.029a.28.28 0 01-.076.013h-.018c-.003-.003-.019-.003-.025-.004z"/>
</svg>
