<?xml version="1.0" encoding="utf-8"?>
<!-- Generator: Adobe Illustrator 23.0.1, SVG Export Plug-In . SVG Version: 6.00 Build 0)  -->
<svg version="1.1" id="Vrstva_1" xmlns="http://www.w3.org/2000/svg" xmlns:xlink="http://www.w3.org/1999/xlink" x="0px" y="0px"
	 viewBox="0 0 90 90" enable-background="new 0 0 90 90" xml:space="preserve">
<g>
	<path d="M76.1,10H13.9c-2.1,0-3.9,1.7-3.9,3.9v62.3c0,2.1,1.7,3.9,3.9,3.9h33.5V52.9h-9.1V42.3h9.1v-7.8c0-9,5.5-14,13.6-14
		c3.9,0,7.2,0.3,8.2,0.4v9.4l-5.6,0c-4.4,0-5.2,2.1-5.2,5.1v6.7h10.5l-1.4,10.6h-9.1V80h17.8c2.1,0,3.9-1.7,3.9-3.9V13.9
		C80,11.7,78.3,10,76.1,10z"/>
</g>
</svg>
