<?xml version="1.0" encoding="utf-8"?>
<!-- Generator: Adobe Illustrator 23.0.1, SVG Export Plug-In . SVG Version: 6.00 Build 0)  -->
<svg version="1.1" id="Vrstva_1" xmlns="http://www.w3.org/2000/svg" xmlns:xlink="http://www.w3.org/1999/xlink" x="0px" y="0px"
	 viewBox="0 0 90 90" enable-background="new 0 0 90 90" xml:space="preserve">
<g>
	<path d="M20.7,24.1h8.1c0.5,0,1-0.4,1-1c0-0.5-0.4-1-1-1h-8.1c-0.5,0-1,0.4-1,1C19.7,23.6,20.2,24.1,20.7,24.1z"/>
	<path d="M20.7,20.2h8.1c0.5,0,1-0.4,1-1c0-0.5-0.4-1-1-1h-8.1c-0.5,0-1,0.4-1,1C19.7,19.8,20.2,20.2,20.7,20.2z"/>
	<ellipse cx="32.9" cy="19.2" rx="1" ry="1"/>
	<ellipse cx="32.9" cy="23.1" rx="1" ry="1"/>
	<path d="M42.9,37.9h-12c-0.5,0-1,0.4-1,1c0,0.5,0.4,1,1,1h12c0.5,0,1-0.4,1-1C43.9,38.3,43.5,37.9,42.9,37.9z"/>
	<path d="M86.8,33H63.6c0-0.7,0.1-1.3,0.1-2C63.7,13.9,49.5,0,31.8,0S0,13.9,0,31.1c0,17,14.1,30.9,31.6,31.1v24.7
		c0,1.8,1.4,3.2,3.2,3.2h28V67.9h-7.7v-8.6h7.6V53c0-7.3,4.7-11.4,11.3-11.4c3.2,0,6,0.2,6.8,0.3v7.7h-4.7c-3.6,0-4.4,1.7-4.4,4.2
		v5.5h8.7l-1.1,8.6h-7.6V90h14.9c1.8,0,3.2-1.4,3.2-3.2V36.2C90,34.4,88.6,33,86.8,33z M19.2,35.8c-0.3-0.2-0.5-0.5-0.5-0.9v-3h-1
		c-1.6,0-3-1.3-3-3V17.3c0-1.6,1.3-3,3-3h18.2c1.6,0,3,1.3,3,3v11.8c0,1.6-1.3,3-3,3h-9.7l-5.9,3.8C20,35.9,19.6,35.9,19.2,35.8z
		 M49,40.7c0,1.6-1.4,3-3,3h-1v3.1c0,0.4-0.2,0.7-0.5,0.9s-0.7,0.2-1,0l-5.8-3.9h-9.9c-1.6,0-3-1.3-3-3v-5.6l1.9-1.3h9.1
		c2.7,0,5.1-2.2,5.1-4.9v-3h5.1c1.6,0,3,1.3,3,3L49,40.7L49,40.7z"/>
	<path d="M33.9,27.1c0-0.5-0.4-1-1-1H20.7c-0.5,0-1,0.4-1,1s0.4,1,1,1h12.1C33.4,28.1,33.9,27.6,33.9,27.1z"/>
</g>
</svg>
