<?xml version="1.0" encoding="utf-8"?>
<!-- Generator: Adobe Illustrator 23.0.1, SVG Export Plug-In . SVG Version: 6.00 Build 0)  -->
<svg version="1.1" id="Vrstva_1" xmlns="http://www.w3.org/2000/svg" xmlns:xlink="http://www.w3.org/1999/xlink" x="0px" y="0px"
	 viewBox="0 0 90 90" enable-background="new 0 0 90 90" xml:space="preserve">
<path d="M67.8,26.3c0,2.3-1.9,4.2-4.2,4.2s-4.2-1.9-4.2-4.2s1.9-4.2,4.2-4.2l0,0C66,22.1,67.8,24,67.8,26.3z M81,45L81,45l-0.2,15.1
	c-0.1,11.3-9.2,20.5-20.6,20.6L45,81l0,0l-15.1-0.2C18.6,80.7,9.4,71.6,9.3,60.2L9,45l0,0l0.2-15.1C9.3,18.6,18.4,9.4,29.8,9.3L45,9
	l0,0l15.1,0.2c11.3,0.1,20.5,9.2,20.6,20.6L81,45z M74.4,45l-0.2-15c-0.1-7.7-6.4-13.9-14-14l-15-0.2l-15,0.2
	c-7.7,0.1-13.9,6.4-14,14L16,45l0.2,15c0.1,7.7,6.4,13.9,14,14l15,0.2l15-0.2c7.7-0.1,13.9-6.4,14-14L74.4,45z M63.5,45
	c0,10.2-8.3,18.5-18.5,18.5S26.5,55.2,26.5,45S34.8,26.5,45,26.5l0,0C55.2,26.5,63.5,34.8,63.5,45z M56.9,45
	c0-6.5-5.3-11.8-11.8-11.8S33.3,38.5,33.3,45s5.3,11.8,11.8,11.8l0,0C51.6,56.9,56.9,51.6,56.9,45L56.9,45z"/>
</svg>
