<?xml version="1.0" encoding="utf-8"?>
<!-- Generator: Adobe Illustrator 23.0.1, SVG Export Plug-In . SVG Version: 6.00 Build 0)  -->
<svg version="1.1" id="Google_alt" xmlns="http://www.w3.org/2000/svg" xmlns:xlink="http://www.w3.org/1999/xlink" x="0px" y="0px"
	 viewBox="0 0 230 120" enable-background="new 0 0 230 120" xml:space="preserve">
<path d="M137.8,41.3c0,2.3-1.9,4.2-4.2,4.2c-2.3,0-4.2-1.9-4.2-4.2s1.9-4.2,4.2-4.2l0,0C136,37.1,137.8,39,137.8,41.3z M151,60
	L151,60l-0.2,15.1c-0.1,11.3-9.2,20.5-20.6,20.6L115,96l0,0l-15.1-0.2c-11.3-0.1-20.5-9.2-20.6-20.6L79,60l0,0l0.2-15.1
	c0.1-11.3,9.2-20.5,20.6-20.6L115,24l0,0l15.1,0.2c11.3,0.1,20.5,9.2,20.6,20.6L151,60z M144.4,60l-0.2-15c-0.1-7.7-6.4-13.9-14-14
	l-15-0.2l-15,0.2c-7.7,0.1-13.9,6.4-14,14l-0.2,15l0.2,15c0.1,7.7,6.4,13.9,14,14l15,0.2l15-0.2c7.7-0.1,13.9-6.4,14-14L144.4,60z
	 M133.5,60c0,10.2-8.3,18.5-18.5,18.5S96.5,70.2,96.5,60s8.3-18.5,18.5-18.5l0,0C125.2,41.5,133.5,49.8,133.5,60z M126.9,60
	c0-6.5-5.3-11.8-11.8-11.8c-6.5,0-11.8,5.3-11.8,11.8s5.3,11.8,11.8,11.8l0,0C121.6,71.9,126.9,66.6,126.9,60L126.9,60z"/>
</svg>
