<svg xmlns="http://www.w3.org/2000/svg" viewBox="0 0 24 24">
  <path d="M6 14.1a2.503 2.503 0 01-2.5-2.5v-9C3.5 1.221 4.621.1 6 .1h13c1.378 0 2.5 1.121 2.5 2.5v2.957a.249.249 0 01-.001.093l.001 5.95c0 1.379-1.122 2.5-2.5 2.5H6zm-1.5-2.5c0 .827.673 1.5 1.5 1.5h13c.827 0 1.5-.673 1.5-1.5V6.1h-16v5.5zm16-6.5V2.6c0-.827-.673-1.5-1.5-1.5H6c-.827 0-1.5.673-1.5 1.5v2.5h16z"/>
  <circle cx="7.754" cy="2.85" r=".75"/>
  <circle cx="10.754" cy="2.85" r=".75"/>
  <path d="M12.09 21.1c-1.572 0-2.85-1.279-2.85-2.85s1.278-2.85 2.85-2.85c1.571 0 2.85 1.279 2.85 2.85s-1.279 2.85-2.85 2.85zm0-4.7c-1.02 0-1.85.83-1.85 1.85s.83 1.85 1.85 1.85 1.85-.83 1.85-1.85-.83-1.85-1.85-1.85zM4.698 21.1c-1.572 0-2.85-1.279-2.85-2.85s1.278-2.85 2.85-2.85 2.85 1.279 2.85 2.85-1.279 2.85-2.85 2.85zm0-4.7c-1.02 0-1.85.83-1.85 1.85s.83 1.85 1.85 1.85 1.85-.83 1.85-1.85-.83-1.85-1.85-1.85zM19.318 21.1c-1.572 0-2.85-1.279-2.85-2.85s1.279-2.85 2.85-2.85 2.85 1.279 2.85 2.85-1.278 2.85-2.85 2.85zm0-4.7c-1.02 0-1.85.83-1.85 1.85s.83 1.85 1.85 1.85 1.85-.83 1.85-1.85-.83-1.85-1.85-1.85zM8.283 23.9a.493.493 0 01-.38-.186 4.188 4.188 0 00-6.513 0 .5.5 0 01-.779-.628 5.166 5.166 0 014.04-1.928 5.192 5.192 0 013.647 1.503 5.381 5.381 0 013.7-1.501 5.388 5.388 0 013.704 1.501 5.192 5.192 0 013.647-1.503c1.58 0 3.052.703 4.04 1.928a.501.501 0 01-.779.628 4.168 4.168 0 00-3.261-1.556 4.193 4.193 0 00-3.253 1.556.495.495 0 01-.384.186.504.504 0 01-.388-.178 4.357 4.357 0 00-3.326-1.562 4.352 4.352 0 00-3.324 1.561.499.499 0 01-.379.179h-.012z"/>
</svg>
