<svg xmlns="http://www.w3.org/2000/svg" xmlns:xlink="http://www.w3.org/1999/xlink" viewBox="0 0 512 512" preserveAspectRatio="xMidYMid meet">
	<path d="M165.5,161h43.6c-5.5-21.3-22.3-38.2-43.6-43.6V161z"/>
	<path d="M135.5,191v-73.6C109.4,124.1,90,147.8,90,176c0,33.4,27.1,60.5,60.5,60.5c28.2,0,51.9-19.4,58.6-45.5H135.5z"/>
	<path d="M512,352V0H0v352h241v40.7l-115.4,96.2l19.2,23l96.2-80.2V512h30v-80.2l96.2,80.2l19.2-23L271,392.7V352H512z M271,191v-30
		h181v30H271z M452,221.1v30H271v-30H452z M271,131v-30h181v30H271z M241,176c0,49.9-40.6,90.5-90.5,90.5
		c-49.9,0-90.5-40.6-90.5-90.5c0-49.9,40.6-90.5,90.5-90.5C200.4,85.5,241,126.1,241,176z"/>
</svg>
