<?xml version="1.0" encoding="utf-8"?>
<!-- Generator: Adobe Illustrator 23.0.1, SVG Export Plug-In . SVG Version: 6.00 Build 0)  -->
<svg version="1.1" id="Capa_1" xmlns="http://www.w3.org/2000/svg" xmlns:xlink="http://www.w3.org/1999/xlink" x="0px" y="0px"
	 viewBox="0 0 98 98" enable-background="new 0 0 98 98" xml:space="preserve">
<path d="M93.3,46.7c-0.4,0.3-0.8,0.5-1.1,0.8V9.5c0-5.3-4-9.5-8.8-9.5H14.7C9.9,0,5.9,4.3,5.9,9.5v38c-0.4-0.3-0.8-0.5-1.2-0.8
	c-2.9-2-4.8,0.7-3,3.4c3.5,4.3,10.1,9.6,20.3,13.8c-10.8,36.7,26.3,42.5,25.7,23.7c0,0.3,0-10.7,0-18.5c1,0.2,1.8,0.5,2.6,0.6
	c0,7.8,0,18.2,0,17.9c-0.6,18.8,36.5,13,25.7-23.7c10.2-4.2,16.8-9.5,20.3-13.8C98.1,47.4,96.2,44.6,93.3,46.7z M56.7,56
	c-4.5-0.2-6.2,1.7-6.4,4.7C49.2,60,48.1,59,47,58c-0.2-0.2-0.4-0.3-0.5-0.5c-1-1-2.6-1.6-5.2-1.5c-6.1,0.2-17.2,1.4-30.1-5.4V13.8
	c0-6.7,1.7-8.8,7.8-8.8h60.7c5.8,0,7.8,2.5,7.8,8.8v36.5C74.3,57.5,62.9,56.2,56.7,56z"/>
<path d="M63.4,29.4c-6.5,0-11.8,4.9-11.8,11s5.3,11,11.8,11c6.5,0,11.8-4.9,11.8-11S69.9,29.4,63.4,29.4z"/>
<ellipse cx="35.9" cy="40.5" rx="11.8" ry="11"/>
</svg>
