<svg xmlns="http://www.w3.org/2000/svg" viewBox="0 0 77.2 63">
  <path d="M69.1 15.6l.1 2.1c0 21.1-15.9 45.3-45 45.3C15.3 63 7 60.4 0 55.9c1.2.2 2.5.2 3.8.2 7.4 0 14.2-2.5 19.6-6.8-6.9-.2-12.8-4.7-14.8-11.1 1 .2 1.9.3 3 .3 1.5 0 2.8-.2 4.2-.5-7.2-1.5-12.7-8-12.7-15.7v-.2c2.2 1.2 4.5 1.9 7.2 2-4.2-2.8-7-7.8-7-13.2 0-2.9.8-5.6 2.2-8 7.7 9.6 19.4 15.9 32.5 16.6-.2-1.2-.4-2.4-.4-3.6C37.6 7.1 44.7 0 53.4 0 57.9 0 62 1.9 65 5.1c3.6-.7 7-2.1 10-3.8-1.2 3.7-3.7 6.8-6.9 8.8 3.2-.4 6.2-1.2 9.1-2.5-2.4 3-5.1 5.7-8.1 8z"/>
</svg>
