<?xml version="1.0" encoding="utf-8"?>
<!-- Generator: Adobe Illustrator 23.0.1, SVG Export Plug-In . SVG Version: 6.00 Build 0)  -->
<svg version="1.1" id="Vrstva_1" xmlns="http://www.w3.org/2000/svg" xmlns:xlink="http://www.w3.org/1999/xlink" x="0px" y="0px"
	 viewBox="0 0 230 120" enable-background="new 0 0 230 120" xml:space="preserve">
<path d="M145.6,44.2l0.1,2.1c0,21.1-15.9,45.3-45,45.3c-8.9,0-17.2-2.6-24.2-7.1c1.2,0.2,2.5,0.2,3.8,0.2c7.4,0,14.2-2.5,19.6-6.8
	c-6.9-0.2-12.8-4.7-14.8-11.1c1,0.2,1.9,0.3,3,0.3c1.5,0,2.8-0.2,4.2-0.5c-7.2-1.5-12.7-8-12.7-15.7v-0.2c2.2,1.2,4.5,1.9,7.2,2
	c-4.2-2.8-7-7.8-7-13.2c0-2.9,0.8-5.6,2.2-8c7.7,9.6,19.4,15.9,32.5,16.6c-0.2-1.2-0.4-2.4-0.4-3.6c0-8.8,7.1-15.9,15.8-15.9
	c4.5,0,8.6,1.9,11.6,5.1c3.6-0.7,7-2.1,10-3.8c-1.2,3.7-3.7,6.8-6.9,8.8c3.2-0.4,6.2-1.2,9.1-2.5C151.3,39.2,148.6,41.9,145.6,44.2z
	"/>
</svg>
