<svg xmlns="http://www.w3.org/2000/svg" xmlns:xlink="http://www.w3.org/1999/xlink" viewBox="0 0 512 512" preserveAspectRatio="xMidYMid meet">
	<path d="M498.2,130.9c-6-22.5-23.2-39.7-44.3-45.7C414.2,74.6,256,74.6,256,74.6s-158.2,0-197.2,10.6c-21.8,6-38.4,23.8-44.3,46.3
		c-9.9,40.4-9.9,125.1-9.9,125.1s0,84.7,9.9,125.1c6,22.5,23.2,39.7,44.3,45.7c39,9.9,197.2,9.9,197.2,9.9s158.2,0,197.2-10.6
		c21.8-6,38.4-23.8,44.3-45.7c9.9-40.4,9.9-125.1,9.9-125.1S508.2,171.3,498.2,130.9z M205.7,334.1V177.9l131,78.1L205.7,334.1z" />
</svg>