<svg version="1" xmlns="http://www.w3.org/2000/svg" width="1322.667" height="1322.667" viewBox="0 0 992.000000 992.000000"><path d="M232.7 115.6c-.3.3-6.1.7-12.9.9-6.7.3-14.3.7-16.8.9-13.9 1.5-16.7 1.9-18.5 2.2-1.1.3-3.6.6-5.5.9-1.9.3-4.6.7-6 1-1.4.4-3.6.8-5 1.1-46.3 9.3-76.4 35.4-90.1 78.4-1.2 3.6-2.4 7.2-2.7 8-.7 2.1-1 3.2-1.6 6-.3 1.4-.8 3.6-1.1 5-.4 1.4-.8 3.6-1.1 5-2.6 13.9-2.9 16-3.9 25-.3 3-.8 7.3-1 9.5-.6 5.7-1.5 37.2-2 70-.7 42.3-2.1 67.4-5 89.5-1.2 8.9-1.5 10.6-2.5 15.5-.6 2.7-1.3 6.3-1.6 8-.8 4-6.3 20.3-8 23.7-.8 1.5-1.4 3-1.4 3.3 0 .3-.4 1.1-1 1.8-.5.6-2.5 3.2-4.3 5.7-8 10.8-21.6 17.2-38 17.9l-2.8.1.3 7.2.3 7.1 3.5.2c6.4.5 12.2 1.5 14.4 2.7 1.1.6 2.2 1 2.4.9.5-.4 9.6 4.2 10.9 5.5.7.7 2.3 2.1 3.6 3.1 7.9 6.2 17.6 25.5 20.1 40.3.3 1.4.5 2.5.6 2.5.3 0 .8 3.1 2.4 13 2.3 15.4 2.6 17.5 3.1 25 .3 3.8.7 9.9 1 13.5 1.1 13.5 1.6 31.4 2 60 .4 29.5 1.3 62.4 1.9 69 1.5 15.7 2.3 21.4 4.2 32 .8 4.7 1.7 9.8 2 11.5.3 1.6 1 4.3 1.6 5.8.6 1.5 1.2 3.6 1.3 4.5.1.9.4 2.4.7 3.2.3.8 1.6 4.4 2.8 8 9.6 27.9 26.8 48.6 51.3 61.9 5.2 2.7 21.2 8.7 26 9.6.9.2 2.1.6 2.6 1 .5.3 2.2.7 3.8 1 1.5.2 5.1.9 7.8 1.5 2.8.6 6.5 1.3 8.4 1.6 1.8.3 4.2.7 5.3.9 1.1.2 4.9.7 8.6 1.1 3.7.3 8.3.8 10.2 1 1.9.2 10.8.6 19.7 1l16.3.6-.1-7.6c-.1-4.2-.4-7.6-.7-7.7-.4 0-3.2-.3-6.2-.5-18.6-1.3-30-7.2-36.6-18.9-7-12.6-10.9-31.5-12.9-63-.3-4.4-.7-10.7-1-14-.4-4.7-1.8-64.5-1.6-69v-5c.1-4.3.1-6.8.1-8.8.2-6.3-1.2-25.5-2.6-36.7-1.3-9.9-4.4-26.3-6.3-32.7-.5-1.7-.7-3.4-.3-3.7.3-.3 0-.6-.6-.6-.7 0-1.2-.8-1.2-1.7 0-5.4-16.2-40.8-19.2-42.1-.5-.2-.8-.9-.8-1.6 0-.7-.9-2.1-2-3.1s-2-2.4-2-3.2c0-.7-.4-1.3-.8-1.3s-1.6-1.4-2.6-3c-3.4-5.8-22.9-24.6-29.8-28.8-1.6-.9-2.8-2-2.8-2.4 0-.4-.5-.8-1.1-.8-.6 0-2.3-.8-3.7-1.8-10.6-7.4-45.3-22.2-60.5-25.8-.9-.2-2.5-.6-3.5-.9-.9-.3-5.1-1.3-9.2-2.4-7-1.7-7.3-1.9-4.8-2.9 1.4-.6 3.5-1.1 4.5-1.1 1.6.1 20.6-5.3 24.3-6.8.8-.3 2.2-.7 3-.9 7.7-1.6 44.4-19 48.8-23.2.7-.6 1.7-1.2 2.1-1.2 1.2 0 12.8-9.3 19-15.3 8.6-8.3 19.7-22.7 26.2-34.2 5.2-9.3 13-26.9 14.5-33 .6-2.5.8-3 2.3-8.5.8-2.5 1.5-5.2 1.6-6 .2-.8.4-1.5.5-1.5.2 0 .6-1.9 1.4-6.5.3-1.9.8-4.6 1.1-6 .3-1.4.7-4.5 1-7 .3-2.5.8-5.6 1-7 .7-3.9 1.5-14.6 1.9-24.7.2-5 .7-9.6 1-10.2.4-.5.3-1.2-.2-1.5-.9-.5-.7-7 .3-8.6.3-.6 0-1-.7-1-.8 0-.9-.3-.3-.8.6-.4 1-10.5 1.1-26.2.2-34.6 1.5-62.1 3.9-78 .2-1.4.6-4.6.9-7.1 1.8-14.4 6.5-29.2 11.8-37 6.3-9.3 18.5-15.1 34.8-16.3 2.5-.2 5.1-.4 5.8-.5.8-.1 1.2-2.4 1.2-7.8 0-4.2-.3-7.4-.6-7-.3.3-1.6.2-2.9-.3-1.3-.5-2.5-.6-2.8-.4zM736.2 116.5c-.8 1.3-.8 4.8.1 6.2.4.6.4 1.4-.1 1.7-1.2.7-.2 6.3 1.1 6.3 2.9.2 11.5 1.3 14.2 1.8 4.9.9 15.5 4.8 15.5 5.7 0 .4.5.8 1.1.8 1.6 0 9 7.8 11.1 11.6 6.9 12.4 11.3 34.1 13.4 65.4 1 15.6 1.2 22.3 1.9 60 1 56.1 1.7 66.8 5.9 87 .3 1.4.8 3.8 1.1 5.5.9 4.2 4.2 15.8 6.7 23 2.7 8 12.6 28.4 15 30.9 1 1.1 1.8 2.5 1.8 3.1 0 .6 1.3 2.6 3 4.5 1.6 1.9 2.9 4 3 4.7 0 .6.3 1.3.8 1.5.4.1 3.2 3.2 6.2 6.8 5.5 6.5 6.5 7.5 13.6 14 5.9 5.3 14.9 12 16.2 12 .7 0 1.2.4 1.2.9s1.2 1.5 2.8 2.3c1.5.7 6.4 3.3 10.9 5.6 4.6 2.3 8.4 4.1 8.6 4 .2-.2 1.1.3 2 1.1 1 .7 1.7 1 1.7.5s.4-.4.8.2c.4.5 3.4 2.1 6.7 3.3 3.3 1.3 6.9 2.7 8 3.1 6.6 2.8 29.3 9.5 36 10.6 1.7.3 3.3 1 3.8 1.5.4.5.4.7.1.4-.4-.3-1.3 0-2.1.6-.7.6-1.3.9-1.3.6 0-.3-2 0-4.5.7-2.5.8-4.5 1.2-4.5.9 0-.3-.6 0-1.3.6-.8.6-1.7.8-2 .5-.3-.3-1.2-.2-1.9.2-.7.5-1.7.9-2.3 1-.5.1-4.1 1.2-8 2.5-3.8 1.3-7.2 2.4-7.5 2.4-.3.1-1.4.5-2.5 1-1.1.4-4.9 1.8-8.5 3.2-8.5 3.2-29.1 13.2-30.8 15-.7.7-1.8 1.3-2.3 1.3-2 0-17.4 11.7-24.4 18.5-2.8 2.7-12.8 14.5-15.8 18.6-3.6 4.7-5.7 7.9-5.7 8.3 0 .3-1.5 2.9-3.3 5.8-1.8 2.9-4.6 8-6.1 11.3-1.6 3.3-3.3 6.9-3.8 7.9-1.1 2.1-4.7 12.1-5.3 14.6-.2.8-1 3.6-1.9 6.2-.9 2.6-2.5 8.9-3.6 14-2.2 11-2.4 12.3-4.5 29.3-1 7.9-1.6 24.6-2 59.5-.6 41.1-1.5 64.4-3 77.5-.2 2.2-.7 6.5-1 9.5-1.1 9.9-1.6 12.4-4.2 23-4.4 18.2-10.2 27.4-20.6 32.6-5.3 2.7-16.2 5.4-24.1 5.8-4.8.3-8 2.6-5.6 4.1.6.4.7 1.1.3 1.8-.3.6-.7 3.1-.7 5.5l-.1 4.5 16.5-.7c15.8-.6 21.7-1 30.5-2 3.6-.4 5.8-.7 15-2.2 20.5-3.3 45.2-11.8 53.5-18.4 1.4-1.1 2.9-2 3.4-2 1.1 0 11-8.2 15.8-13.1 10.9-11.1 21.8-29.9 27-46.4 2.2-7.1 6.9-26.3 7.3-30 .2-2.2.7-5.1 1-6.5.3-1.4.7-4.3.9-6.5.3-2.2.7-7.2 1.1-11 .4-3.9.9-8.1 1.1-9.5.3-1.4.7-14.9.9-30 .7-38.8 1.6-75.5 2-82 .7-11.4 1.7-25.6 2-29 1.6-17.8 1.9-20.2 2.8-24 .4-1.4.8-4.1 1.1-6 .5-3.9.7-4.8 3.1-14 1.8-7.4 5.2-17 6.5-18.5.5-.5.9-1.5 1-2 1.2-6.2 12.5-18.7 20.5-22.6 7.1-3.6 15.3-5.7 22.7-5.8l3.7-.1v-7c-.1-7.6-.1-7.6-6.9-7.9-5.3-.3-14.7-2.9-20.1-5.8-4.4-2.2-12.2-9-15.7-13.6-5.1-6.8-13-28.3-14.8-41-.2-1.5-.6-4.2-.9-6-.5-3.3-2.1-15.6-3.1-23.8-.5-4.3-.8-9.3-1.9-25.9-.4-7.1-1.3-45.1-2-84-.5-28-.8-32.4-3-50-.2-1.4-.6-5-1-8-.3-3-.8-6.1-1.1-6.9-.2-.7-1.1-4.8-2-9-2.6-12.5-10.5-35.7-12.7-37.2-.5-.3-.9-1-.9-1.5s-1-2.6-2.2-4.8c-6.5-11.8-16.5-23.7-25.6-30.5-1.9-1.4-3.7-2.9-4-3.2-2.2-2.6-25.2-14.2-30.5-15.4-.5-.1-1.7-.5-2.5-.8-1.3-.4-6.3-1.8-8-2.1-.3-.1-1.1-.5-1.7-.9-.7-.5-1.3-.6-1.3-.4 0 .3-1.7.1-3.7-.4-2.1-.5-4.7-1.2-5.8-1.4-1.1-.3-3.3-.7-5-1-1.6-.2-3.9-.6-5-.8-1.1-.3-4.9-.8-8.5-1.2-3.6-.3-7.8-.9-9.4-1.1-1.7-.3-7.3-.7-12.5-.9-5.3-.2-9.6-.5-9.6-.5 0-.7-16.9-.2-17.3.5zM287.9 223.3c0 .1-.2 3.3-.2 7-.1 4.6.2 7.2 1.1 8 1.2.9 5.6 1.5 15.9 2 1.8.1 3.3.4 3.3.7 0 .3 1.2.6 2.8.7 7.6.5 18.6 4.7 23.8 9.1 4.6 3.9 8.7 13.2 9.9 22.2.2 1.4.4 2.5.5 2.5 1.6 0 2.3 443.1.8 456-1.8 14.2-3.8 20.6-8.6 26.9-3.7 5-11.7 10-17.5 11-1.5.3-3.6.7-4.6 1.1-2.7.8-8.2 1.5-17.1 2.1-10.3.8-10.5.9-10.3 8.6.1 3.4.2 6.8.2 7.4.1.6 3.4.9 9.4.8 40.2-1.2 72.2-1.6 122.2-1.7 31.9 0 59.4.1 61 .2 1.7 0 3.7.1 4.5.1 1.3-.1 51.7.9 68.5 1.3l6 .2.2-8.2c.2-5.4-.1-8.4-.9-8.9-.6-.4-5.3-.8-10.3-.9-13.4-.3-30-2-38.5-4-6.2-1.4-8.4-2.2-13-4.6-6.3-3.2-10.1-6.5-13.4-11.7-2.5-4.1-5.7-11.6-6.1-14.7-.4-3-1.6-9.7-2.1-12.5-.3-1.4-.6-7.6-.9-13.7-.2-6.2-.6-11.7-1-12.3-.3-.5-.2-1 .2-1 1 0 .8-13.4-.2-15-.3-.6-.3-1 .2-1 .9 0 .8-76.1-.1-78.5-.3-.8-.2-1.5.2-1.5.9 0 .6-13.5-.3-15-.3-.6-.3-1 .2-1 .4 0 .8-15.4.8-34.2v-34.3l17 .1c18 .1 28 .8 33.3 2.3 1.8.6 3.3 1 3.5 1 .1 0 .9.2 1.7.5.8.2 3.3 1 5.5 1.7 12 3.7 25.3 13.3 35 25.5 2.2 2.7 4.2 5.1 4.5 5.4 1.5 1.5 8.6 15.4 13.1 25.5 2.1 4.8 7 21.6 8.3 28.5.2 1.4.7 3.6 1 5 .6 2.1 1.3 6.3 1.5 9.2.1.5 4.4.8 9.6.8h9.4l-.5-7.8c-.3-4.2-.7-10.2-.9-13.2-.4-6.7-1.5-26.5-2-34-2.4-38.7-2.4-125.2.1-163.3l.6-8.7h-18l-1.1 3.2c-.6 1.8-1.2 4.4-1.5 5.8-.2 1.4-.9 4.5-1.6 7-.7 2.5-1.3 4.9-1.5 5.5-.1.5-.5 1.8-.8 2.7-.4 1-1 2.6-1.4 3.5-.3 1-.7 2.4-.9 3.2-.5 2.6-6.7 16.5-11.2 25.1-12.6 24.1-24.8 36.5-42.4 43.4-13 5.1-17.1 5.7-42.5 6l-18.3.2-.1-3c-.4-16.6-.3-211.6.1-211.6.3 0 .6-1.7.6-3.8.1-15.9 5.4-29.3 13.4-33.6 9.4-5.1 18.1-6.1 52.5-6 23.5 0 43.7 1.1 45.3 2.4.2.3.5.3 5.2 1.4 33.8 7.4 59.7 31.7 77.7 73.1 2.6 6.1 5.2 12.5 5.2 12.8 0 .3 1.2 3.9 2.1 6.2 2 5 10 35.2 11.4 42.8.2 1.5.7 3.6 1.1 4.6.3 1.1.8 3.5.9 5.3.2 1.8.9 5.2 1.4 7.5.5 2.4.8 4.3.5 4.3-.3 0 0 .7.7 1.5 1 1.2 3.1 1.5 9.9 1.3 7.9-.3 8.6-.5 8.4-2.3-.7-6.5-1.6-28.2-1.7-41.7 0-8.7-.5-15.8-.9-15.8-.5 0-.5-.5-.1-1.1.4-.6.8-10.7 1-22.3.4-20.6.5-25.1 2-50.6.4-6.9.8-15.1.8-18.2.1-3.2.3-5.8.6-5.8s.5-2.1.6-4.8c0-2.6.3-8.1.5-12.2l.4-7.5-3 .1c-5.5.3-9 .4-10.5.4-.8 0-13.2.3-27.5.7-14.3.4-81.8.7-150 .7-112.6 0-161.6-.4-215.7-1.8-10.4-.2-18.8-.3-18.9-.3z"/></svg>