<svg xmlns="http://www.w3.org/2000/svg" width="286.3" height="36.4" viewBox="0 0 286.3 36.4"><path fill="#2b2b2b" d="M275.1.7c2.3.1 2.8.9 2.8 8 0 6.7 3.6 8.6 7.4 9.4-3.8.8-7.4 2.7-7.4 9.4 0 7.4-.5 8.1-2.8 8.1v.7c6 0 8.2-1.9 8.2-8.8 0-7 .6-8.9 2.9-9.1h.2v-.7h-.2c-2.3-.1-2.9-2.1-2.9-9.1 0-6.6-2.1-8.7-8.2-8.7v.8zM264 28.8l9.4-19c-2.5.1-5.2.2-7.8.2-2.4 0-4.9 0-7.2-.2.1 1.6.1 3.8.1 7.4h.8c.4-5.1 2.8-6.7 5.8-6.7h2.1l-9.4 19c2.5-.1 5.2-.2 7.8-.2 2.4 0 4.9 0 7.2.1-.1-1.6-.1-3.8-.1-7.4h-.8c-.4 5.1-3.1 6.7-6 6.7H264zM248.8 9.4c-5.3 0-9.3 3.6-9.3 10.3 0 7 3.8 10.1 8.7 10.1 4.3 0 6.6-3.1 7.5-5.9l-.7-.2c-1.5 2.5-3.5 3.1-4.9 3.1-2.5 0-5-1.7-5-7.6 0-5.1 1.6-8.9 4.7-8.9 1 0 1.9.4 2.3.9-1.3.4-2.5 1.5-2.5 3.1 0 1.7 1.1 2.8 2.9 2.8 1.7 0 3-1.2 3-3 0-1.5-.8-2.7-2.1-3.5-1-.7-2.7-1.2-4.6-1.2zm-15.7 14.7c-2 0-3.2 1.1-3.2 2.9 0 1.8 1.2 2.9 3.2 2.9s3.2-1.1 3.2-2.9c0-1.8-1.3-2.9-3.2-2.9zm-8.2-14.6c-1.6.4-3.4.5-5.5.5-.8 0-1.5-.1-2.3-.1v.8c1.8 0 2.4 1.1 2.4 3.3v11.8c0 2.1-.7 2.7-2.4 2.7v.8c1 0 3.2-.1 5.2-.1s4.1.1 5 .1v-.8c-1.8 0-2.4-.6-2.4-2.7V9.5zm-3-9.2c-2.1 0-3.4 1.1-3.4 2.9 0 1.8 1.3 2.9 3.4 2.9 2.1 0 3.4-1.1 3.4-2.9.1-1.8-1.3-2.9-3.4-2.9zM211.5 10V3.8c-1.6.8-3.3 1.2-5.4 1.2v5H203v.8h3.1v12.7c0 2.6.3 4.1 1.4 5.2.8.8 2.1 1.3 3.8 1.3 2.8 0 4.3-1.6 5.1-3.8l-.6-.3c-.7 1.7-1.6 2.3-2.6 2.3-1.1 0-1.6-.5-1.6-2.1V10.7h4.4V10h-4.5zM194 9.4c-3.4 0-6.4 1.8-6.4 5.2 0 3 2.3 4.7 4.7 6.6 2.2 1.7 3.8 2.9 3.8 5.1 0 1.9-1.3 2.7-2.6 2.7-3.1 0-4.6-2.8-5.1-6.9h-.8c0 3.8 0 5.9-.1 7.5h.8c.2-.8.5-1.3.9-1.3h.2c.5.2 1.1.4 1.7.8.8.5 2 .8 3.5.8 3.9 0 7.1-2.1 7.1-5.6 0-3-2-4.6-4.5-6.4-2.3-1.7-4.6-3-4.6-5.2 0-1.5 1.1-2.4 2.5-2.4 3.2 0 4.4 3 4.8 5.8h.8c0-3.3 0-5.2.2-6.6h-.9c-.1.9-.4 1.4-.9 1.4-.2 0-.4-.1-.7-.3-.7-.5-2.3-1.2-4.4-1.2zm-11.4.1c-1.6.4-3.4.5-5.5.5-.8 0-1.5-.1-2.3-.1v.8c1.8 0 2.4 1.1 2.4 3.3v11.8c0 2.1-.7 2.7-2.4 2.7v.8c1 0 3.2-.1 5.2-.1s4.1.1 5 .1v-.8c-1.8 0-2.4-.6-2.4-2.7V9.5zm-3-9.2c-2.1 0-3.4 1.1-3.4 2.9 0 1.8 1.3 2.9 3.4 2.9 2.1 0 3.4-1.1 3.4-2.9 0-1.8-1.3-2.9-3.4-2.9zm-17.5 28c-2.2 0-3.6-2.2-3.5-8.6 0-6.2 1.5-9.1 4.1-9.1 1.1 0 2.1.4 2.7 1.3v13.3c-.4 1.9-1.8 3.1-3.3 3.1zM170.8 0c-1.6.4-3.4.5-5.5.5-.8 0-1.5 0-2.3-.1v.8c1.8 0 2.4 1.1 2.4 3.3v6.3c-1-1-2.4-1.4-4.1-1.4-4.8 0-8.4 3.4-8.4 10.1 0 7.1 3.2 10.3 7.7 10.3 2.4 0 4-1.2 4.9-3.3v3.2c1.6-.4 3.4-.5 5.5-.5.8 0 1.5 0 2.3.1v-.8c-1.8 0-2.4-1.1-2.4-3.3V0zm-27.5 9.4c-2.6 0-4.9 1-6.1 3.5V9.5c-1.6.4-3.4.5-5.5.5-.8 0-1.5-.1-2.3-.1v.8c1.8 0 2.4 1.1 2.4 3.3v11.8c0 2.1-.7 2.7-2.4 2.7v.8c1 0 3.2-.1 5.2-.1 1.8 0 3.8.1 4.7.1v-.8c-1.5 0-2-.6-2-2.7V15.4c0-2.5 1.6-4.3 3.7-4.3 1.9 0 2.3 1.3 2.3 3.1v11.7c0 2.1-.5 2.7-2 2.7v.8c.9 0 2.9-.1 4.9-.1 1.8 0 4 .1 4.9.1v-.8c-1.7 0-2.4-.6-2.4-2.7V15.8c0-2.5-.3-3.9-1.2-4.9-.9-.9-2.1-1.5-4.2-1.5zm-23.2.8c1.8 0 2.6 3.1 2.5 6.8h-5.9c.4-4.8 1.7-6.8 3.4-6.8zm1.6 16.6c-2.4 0-4.9-2-4.9-7.3 0-.6 0-1.2.1-1.8h10.5c0-5.9-2.7-8.3-7-8.3-5.3 0-9.2 3.5-9.2 10.4 0 6.8 3.6 10 8.6 10 4.2 0 6.6-3 7.5-5.8l-.7-.3c-1.5 2.6-3.4 3.1-4.9 3.1zM105.2 10V3.8c-1.6.8-3.3 1.2-5.4 1.2v5h-3.1v.8h3.1v12.7c0 2.6.3 4.1 1.4 5.2.8.8 2.1 1.3 3.8 1.3 2.8 0 4.3-1.6 5.1-3.8l-.6-.3c-.7 1.7-1.6 2.3-2.6 2.3-1.1 0-1.6-.5-1.6-2.1V10.7h4.4V10h-4.5zm-16.7-.6c-2.6 0-4.9 1-6.1 3.5V9.5c-1.6.4-3.4.5-5.5.5-.8 0-1.5-.1-2.3-.1v.8c1.8 0 2.4 1.1 2.4 3.3v11.8c0 2.1-.7 2.7-2.4 2.7v.8c1 0 3.2-.1 5.2-.1 1.8 0 3.8.1 4.7.1v-.8c-1.5 0-2-.6-2-2.7V15.4c0-2.5 1.6-4.3 3.7-4.3 1.9 0 2.3 1.3 2.3 3.1v11.7c0 2.1-.5 2.7-2 2.7v.8c.9 0 2.9-.1 4.9-.1 1.8 0 4 .1 4.9.1v-.8c-1.7 0-2.4-.6-2.4-2.7V15.8c0-2.5-.3-3.9-1.2-4.9-.8-.9-2-1.5-4.2-1.5zm-25.4.8c2.1 0 3.5 2.8 3.5 9.5s-1.5 9.5-3.5 9.5-3.5-2.7-3.5-9.5c0-6.7 1.4-9.5 3.5-9.5zm0-.8c-5.4 0-9.2 2.8-9.2 10.2 0 7.4 3.8 10.2 9.2 10.2 5.4 0 9.2-2.8 9.2-10.2 0-7.4-3.8-10.2-9.2-10.2zm-13.8 0c-2.4 0-4.2 1.6-5.1 3.6V9.5c-1.6.4-3.4.5-5.5.5-.8 0-1.5-.1-2.3-.1v.8c1.8 0 2.4 1.1 2.4 3.3v11.8c0 2.1-.7 2.7-2.4 2.7v.8c1 0 3.3-.1 5.4-.1 2.4 0 4.8.1 6 .1v-.8c-2.4 0-3.5-.7-3.5-3.1v-9.9c0-2 1.4-4.5 3.4-4.8.2-.1.4-.1.5-.1.2 0 .3 0 .5.1-.9.6-1.6 1.5-1.6 2.9 0 1.5 1 2.4 2.8 2.4s2.9-1.3 2.9-3.1c-.1-1.7-1.1-3.5-3.5-3.5zM34.6 2.8c-2.3.1-5.5.1-7.8.1-2.5 0-8.1 0-12.2-.1v.8c2.4.1 2.8.5 2.8 3.2v18.6c0 2.7-.4 3.1-2.8 3.2v.8c1.6-.1 3.8-.1 6-.1 2.7 0 5.3.1 6.8.1v-.8c-3.3 0-4-.4-4-3.4v-8.6h1.3c3 0 4.2 2.3 4.6 4.9h.9c-.2-2.9-.2-4.1-.2-5.3v-1.7c0-.9 0-2 .1-3.6h-.9c-.4 2-1.4 5-4.4 5h-1.3V6.3c0-2.3.4-2.7 2.6-2.7h1.2c3.5 0 5.5 1.9 6.4 7.7h.9c-.1-.7-.1-1.7-.1-2.9s-.1-3.3.1-5.6zM11.2 0C5.2 0 3 2.1 3 8.7c0 7-.6 9-2.9 9.1H0v.7h.2c2.3.2 2.8 2.1 2.8 9.1 0 6.9 2.1 8.8 8.2 8.8v-.7c-2.3 0-2.8-.7-2.8-8.1 0-6.7-3.6-8.6-7.4-9.4 3.8-.8 7.4-2.7 7.4-9.4 0-7.1.5-7.9 2.8-8V0z"/></svg>