<svg id="Sheet-9" xmlns="http://www.w3.org/2000/svg" xmlns:xlink="http://www.w3.org/1999/xlink" viewBox="0 0 1436.76838 359.37076"><defs><style>.cls-1{fill:#330229;}.cls-2{fill:url(#New_Gradient_Swatch_copy_5);}.cls-3{fill:url(#New_Gradient_Swatch_copy_5-2);}</style><linearGradient id="New_Gradient_Swatch_copy_5" x1="105.5742" y1="120.76167" x2="302.73957" y2="277.52431" gradientUnits="userSpaceOnUse"><stop offset="0" stop-color="#64519d"/><stop offset="1" stop-color="#d30b6c"/></linearGradient><linearGradient id="New_Gradient_Swatch_copy_5-2" x1="148.32535" y1="66.99218" x2="345.49073" y2="223.75482" xlink:href="#New_Gradient_Swatch_copy_5"/></defs><title>ataccama-full-horizontal</title><path class="cls-1" d="M486.99278,126.35089h27.5004V232.94138h-27.5004V220.36367q-12.366,15.56374-34.7485,15.56214-21.31955,0-36.56035-16.30824-15.24429-16.30826-15.2425-39.97144,0-23.66319,15.2425-39.97143,15.23894-16.30824,36.56035-16.30825,22.384,0,34.7485,15.56214ZM436.25585,201.284q8.31412,8.42425,21.10488,8.42087,12.79077,0,21.21154-8.42087,8.4189-8.4189,8.42051-21.63784,0-13.21554-8.42051-21.63784-8.424-8.4189-21.21154-8.42051-12.79075,0-21.10488,8.42051-8.31411,8.42427-8.314,21.63784Q427.94182,192.8665,436.25585,201.284Z"/><path class="cls-1" d="M595.09764,152.78554H571.00816v44.34159q0,5.546,2.77146,8.1007,2.76789,2.55832,8.10088,2.87795a118.84225,118.84225,0,0,0,13.21714-.10648v24.94208q-28.35477,3.19774-39.97143-5.3296-11.62149-8.524-11.61827-30.48465V152.78554H524.9612V126.35089h18.54674V104.81953l27.50022-8.314v29.84538h24.08948Z"/><path class="cls-1" d="M686.81922,126.35089h27.5004V232.94138h-27.5004V220.36367q-12.366,15.56374-34.7485,15.56214-21.31954,0-36.56035-16.30824-15.24429-16.30826-15.2425-39.97144,0-23.66319,15.2425-39.97143,15.23894-16.30824,36.56035-16.30825,22.384,0,34.7485,15.56214ZM636.08229,201.284q8.31413,8.42425,21.10488,8.42087,12.79077,0,21.21154-8.42087,8.4189-8.4189,8.42051-21.63784,0-13.21554-8.42051-21.63784-8.424-8.4189-21.21154-8.42051-12.79076,0-21.10488,8.42051-8.31411,8.42427-8.314,21.63784Q627.76826,192.8665,636.08229,201.284Z"/><path class="cls-1" d="M780.30048,235.92581q-24.09279,0-40.18458-16.20176-16.0984-16.19836-16.0951-40.07792,0-23.87277,16.0951-40.07792,16.09358-16.19837,40.18458-16.20176a55.255,55.255,0,0,1,28.35317,7.46144A49.63516,49.63516,0,0,1,828.053,150.86667l-23.663,13.857a24.14356,24.14356,0,0,0-9.69976-10.44587,28.19647,28.19647,0,0,0-14.60288-3.83738q-12.366,0-20.46525,8.20755-8.10427,8.20878-8.10088,20.99821,0,12.58092,8.10088,20.78525,8.09917,8.2088,20.46525,8.20754a29.22451,29.22451,0,0,0,14.816-3.7309,23.48477,23.48477,0,0,0,9.69976-10.339l23.87634,13.64327a53.36161,53.36161,0,0,1-19.82581,20.14562A54.66784,54.66784,0,0,1,780.30048,235.92581Z"/><path class="cls-1" d="M887.9828,235.92581q-24.09279,0-40.18458-16.20176-16.0984-16.19836-16.0951-40.07792,0-23.87277,16.0951-40.07792,16.09357-16.19837,40.18458-16.20176a55.255,55.255,0,0,1,28.35316,7.46144,49.63512,49.63512,0,0,1,19.39934,20.03878l-23.663,13.857a24.14362,24.14362,0,0,0-9.69976-10.44587,28.19649,28.19649,0,0,0-14.60288-3.83738q-12.366,0-20.46526,8.20755-8.10426,8.20878-8.10087,20.99821,0,12.58092,8.10087,20.78525,8.09919,8.2088,20.46526,8.20754a29.22454,29.22454,0,0,0,14.816-3.7309,23.48469,23.48469,0,0,0,9.69975-10.339l23.87634,13.64327A53.36146,53.36146,0,0,1,916.336,228.35789,54.66778,54.66778,0,0,1,887.9828,235.92581Z"/><path class="cls-1" d="M1026.3027,126.35089h27.50021V232.94138H1026.3027V220.36367q-12.36652,15.56374-34.74868,15.56214-21.31955,0-36.56035-16.30824-15.24429-16.30826-15.2425-39.97144,0-23.66319,15.2425-39.97143,15.23892-16.30824,36.56035-16.30825,22.38431,0,34.74868,15.56214ZM975.56559,201.284q8.31411,8.42425,21.10488,8.42087,12.79075,0,21.21136-8.42087,8.4189-8.4189,8.42087-21.63784,0-13.21554-8.42087-21.63784-8.42373-8.4189-21.21136-8.42051-12.79077,0-21.10488,8.42051-8.31413,8.42427-8.314,21.63784Q967.25156,192.8665,975.56559,201.284Z"/><path class="cls-1" d="M1183.82576,123.36645q18.33164,0,29.31224,11.93809,10.97723,11.94147,10.979,31.97721v65.65963h-27.50058V169.20027q0-9.59328-4.69-14.92252-4.69158-5.3262-13.217-5.32959-9.38316,0-14.60306,6.18219-5.226,6.1854-5.22275,17.9073v59.90373h-27.50057V169.20027q0-9.59328-4.69-14.92252-4.69158-5.3262-13.217-5.32959-9.16876,0-14.60306,6.18219-5.43609,6.1854-5.43608,17.9073v59.90373h-27.50022V126.35089H1093.437V137.6497q9.59326-14.28,29.632-14.28325,19.61106,0,28.99279,15.34917Q1162.7191,123.36627,1183.82576,123.36645Z"/><path class="cls-1" d="M1319.42548,126.35089h27.50021V232.94138h-27.50021V220.36367q-12.36653,15.56374-34.74868,15.56214-21.31981,0-36.56035-16.30824-15.24429-16.30826-15.24233-39.97144,0-23.66319,15.24233-39.97143,15.23892-16.30824,36.56035-16.30825,22.38431,0,34.74868,15.56214ZM1268.68837,201.284q8.31384,8.42425,21.1047,8.42087,12.791,0,21.21154-8.42087,8.4189-8.4189,8.42087-21.63784,0-13.21554-8.42087-21.63784-8.42373-8.4189-21.21154-8.42051-12.7905,0-21.1047,8.42051-8.31386,8.42427-8.314,21.63784Q1260.37434,192.8665,1268.68837,201.284Z"/><path class="cls-2" d="M245.91224,246.16889q-27.21136,26.95287-66.22708,26.953-39.02152,0-66.22707-26.953-27.21135-26.95254-27.2092-66.48351,0-39.52688,27.2092-66.48351,27.20555-26.95287,66.22707-26.953,39.01508,0,66.22708,26.953,27.2049,26.95254,27.2092,66.48351Q273.12144,219.21806,245.91224,246.16889ZM142.3363,218.1893q15.01651,14.89033,37.34886,14.8883,22.33213,0,37.34887-14.8883,15.01651-14.88421,15.01674-38.50392,0-23.6139-15.01674-38.50413-15.01651-14.88421-37.34887-14.88809-22.33212,0-37.34886,14.88809-15.01653,14.89033-15.01674,38.50413Q127.31956,203.30509,142.3363,218.1893Z"/><rect class="cls-3" x="269.52764" y="89.84269" width="41.0711" height="179.68538"/></svg>