<svg width="195" height="27" viewBox="0 0 195 27" fill="none" xmlns="http://www.w3.org/2000/svg">
<path d="M0.652 21H3.592V12.908C3.592 10.696 5.244 9.1 7.596 9.1C9.668 9.1 11.292 10.696 11.292 12.908V21H14.232V12.46C14.232 8.96 11.992 6.412 8.716 6.412C6.252 6.412 4.376 7.952 3.592 10.388V0.28H0.652V21ZM16.8537 13.86C16.8537 18.06 20.1297 21.28 24.4417 21.28C27.5777 21.28 29.9857 19.628 31.2177 17.276L28.7537 16.184C27.9417 17.752 26.4017 18.732 24.5257 18.732C22.0617 18.732 20.2417 17.108 19.8217 14.84H31.6657C32.1977 10.164 28.8937 6.412 24.3017 6.412C20.0737 6.412 16.8537 9.632 16.8537 13.86ZM19.9057 12.544C20.4097 10.444 22.1177 8.96 24.3017 8.96C26.5697 8.96 28.2217 10.472 28.6977 12.544H19.9057ZM34.2268 6.692V15.064C34.2268 18.76 36.9708 21.28 40.7508 21.28C44.4748 21.28 47.2468 18.76 47.2468 15.064V6.692H44.3068V15.064C44.3068 17.164 42.7668 18.564 40.7508 18.564C38.6788 18.564 37.1668 17.164 37.1668 15.064V6.692H34.2268ZM50.445 21H53.385V12.908C53.385 10.164 55.849 8.512 58.985 9.38V6.58C56.661 6.02 54.393 6.888 53.385 10.472V6.692H50.445V21ZM59.4006 13.86C59.4006 18.06 62.6766 21.28 66.9886 21.28C70.1246 21.28 72.5326 19.628 73.7646 17.276L71.3006 16.184C70.4886 17.752 68.9486 18.732 67.0726 18.732C64.6086 18.732 62.7886 17.108 62.3686 14.84H74.2126C74.7446 10.164 71.4406 6.412 66.8486 6.412C62.6206 6.412 59.4006 9.632 59.4006 13.86ZM62.4526 12.544C62.9566 10.444 64.6646 8.96 66.8486 8.96C69.1166 8.96 70.7686 10.472 71.2446 12.544H62.4526ZM79.9904 17.248L82.2304 14.84L87.1024 21H90.8264L84.2184 12.656L89.7344 6.692H86.0384L79.9904 13.384V0.28H77.0504V21H79.9904V17.248ZM93.6785 13.86C93.6785 11.144 95.6665 9.128 98.1025 9.128C100.847 9.128 102.807 11.144 102.807 13.86C102.807 16.548 100.847 18.564 98.1025 18.564C95.6665 18.564 93.6785 16.548 93.6785 13.86ZM90.6545 13.86C90.6545 18.06 93.4265 21.28 97.2625 21.28C99.7825 21.28 101.883 19.768 102.975 17.472C103.451 19.852 105.131 21 108.183 21H108.771V18.396H108.183C106.447 18.396 105.747 17.64 105.747 15.904V6.692H102.807V10.836C101.911 8.176 99.8385 6.412 97.1225 6.412C93.4265 6.412 90.6545 9.632 90.6545 13.86ZM111.997 15.232H114.209L114.741 6.692V1.4H111.493V6.692L111.997 15.232ZM111.269 19.376C111.269 20.384 112.109 21.224 113.117 21.224C114.125 21.224 114.937 20.384 114.937 19.376C114.937 18.396 114.125 17.556 113.117 17.556C112.109 17.556 111.269 18.396 111.269 19.376Z" fill="#009CD3"/>
<path d="M118.162 13.692C118.162 17.836 120.934 20.972 124.63 20.972C127.346 20.972 129.418 19.236 130.314 16.66V19.46C130.314 22.176 128.242 24.192 125.666 24.192C123.79 24.192 122.362 23.156 121.606 21.532L118.946 22.848C120.122 25.228 122.558 26.88 125.666 26.88C129.978 26.88 133.254 23.66 133.254 19.46V6.692H130.314V10.752C129.418 8.148 127.346 6.412 124.63 6.412C120.934 6.412 118.162 9.576 118.162 13.692ZM121.186 13.692C121.186 11.088 123.174 9.128 125.694 9.128C128.354 9.128 130.314 11.088 130.314 13.692C130.314 16.296 128.354 18.284 125.694 18.284C123.174 18.284 121.186 16.296 121.186 13.692ZM136.55 21H139.49V12.908C139.49 10.164 141.954 8.512 145.09 9.38V6.58C142.766 6.02 140.498 6.888 139.49 10.472V6.692H136.55V21ZM145.506 13.86C145.506 18.06 148.782 21.28 153.094 21.28C157.406 21.28 160.682 18.06 160.682 13.86C160.682 9.632 157.406 6.412 153.094 6.412C148.782 6.412 145.506 9.632 145.506 13.86ZM148.53 13.86C148.53 11.144 150.518 9.128 153.094 9.128C155.698 9.128 157.658 11.144 157.658 13.86C157.658 16.548 155.698 18.564 153.094 18.564C150.518 18.564 148.53 16.548 148.53 13.86ZM163.153 6.692V15.064C163.153 18.76 165.897 21.28 169.677 21.28C173.401 21.28 176.173 18.76 176.173 15.064V6.692H173.233V15.064C173.233 17.164 171.693 18.564 169.677 18.564C167.605 18.564 166.093 17.164 166.093 15.064V6.692H163.153ZM179.097 13.86V26.6H182.037V16.856C182.933 19.516 185.005 21.28 187.721 21.28C191.417 21.28 194.189 18.06 194.189 13.86C194.189 9.632 190.913 6.412 186.601 6.412C182.289 6.412 179.097 9.632 179.097 13.86ZM182.037 13.86C182.037 11.144 183.997 9.128 186.601 9.128C189.177 9.128 191.137 11.144 191.137 13.86C191.137 16.548 189.177 18.564 186.741 18.564C183.997 18.564 182.037 16.548 182.037 13.86Z" fill="#FF7A04"/>
</svg>
