<svg xmlns="http://www.w3.org/2000/svg" width="161.079" height="123.319" viewBox="0 0 161.079 123.319">
  <g id="lmc" transform="translate(-23.216 -23.261)">
    <path id="Path_235" data-name="Path 235" d="M31.163,131.9c-4.322.67-13.151,4.571-3.836,5.943s107.5-7.921,152.314-3.242c7.078.756,5.652-1.761-1.362-2.421C165.43,129.673,47.9,128.776,31.163,131.9Z" transform="translate(0 8.598)" fill="#12bcca"/>
    <path id="Path_236" data-name="Path 236" d="M79.134,117.414c-.973.292-9.142,7.316-17.528,2.269-4.031-2.345-5.1-5.911-6.484-11C84.9,68.992,87.833,44.062,85.607,31.959c-.929-5-3.447-11.055-13.4-7.759C62.027,28.134,51.383,43.576,47.353,71.747c-1.945,13.519.065,29.5,2.064,37.26-8.44,8.429-16.717,9.844-16.717,9.844a4.2,4.2,0,0,0-3.393,4.971c0,.216.411,5.155,15.669-5.652a42.738,42.738,0,0,0,6.278-4.982c6.268,14.686,23.925,10.514,29.36,8.58a3.631,3.631,0,0,0,1.027-.616C83.283,119.295,80.852,116.6,79.134,117.414ZM54.279,104.966C46.683,78.253,69.062,21.9,79.62,29.592c4.106,3,4.874,20.932-5.4,43.744-2.993,6.657-15.723,26.583-19.97,31.63Z" transform="translate(0.484 0)" fill="#003e7e"/>
    <path id="Path_237" data-name="Path 237" d="M155.679,92.952c-8.267,12.406-19.451,15.982-19.451,15.982s-16.987,6.765-22.218.324,1.7-17.5,2.928-19.451,6.2-6.894,6.2-3.588c0,2.993-1.243,8.645,2.3,7.1a6.8,6.8,0,0,0,2.539-3c1.275-2.777,2.507-7.467-1.945-10.158-6.613-4-13.756,4.463-15.7,10.677-1.362,4.582-3.933,12.967.681,18.263,10.968,12.189,32.159,6.916,46.9-4.733C169.154,94.81,163.945,80.557,155.679,92.952Z" transform="translate(6.866 4.504)" fill="#003e7e"/>
    <path id="Path_238" data-name="Path 238" d="M108.535,112.5a6.613,6.613,0,0,1-4.085-6.2c.076-8.213,3.771-15.5,4.668-17.387s-2.885-4.668-7.337-3.674-7.759,6.646-8.548,7.64S91.288,94.248,92,91.795a12.311,12.311,0,0,1,.475-1.545,2.442,2.442,0,0,0-.162-2.1c-.67-1.081-5.673-1.891-8.559-.227-3.663,2.107-6.224,8.051-6.678,5.619A3.933,3.933,0,0,0,76.7,92.1c-.443-.681-2.345-1.081-4.2-.162s-2.9,3.393-3.436,4.322c-.151.238-.324.584-.486.886h0c-.378.659-.659,1.254-1.221,2.258s-2.464,4.7-2.853,5.544a2.356,2.356,0,0,0,.281,2.593c.443.616,2.107,1.5,2.8.162a10.7,10.7,0,0,0,.832-1.675v.151l.065-.184c.5-1.081.951-2.3,1.47-3.361a33.606,33.606,0,0,1,1.761-3.62h0c.627-1.081,2.3-1.783,1.923.367-.184,1.167-.886,3.35-1.264,4.8-.216.81,1.437,2.658,2.593-.313a24.5,24.5,0,0,1,5.533-8.872c.865-.746,2.874-1.362,2.442.584a38.233,38.233,0,0,0,.421,12.967c.886,4.452,4.56,5.068,6.484-1.081,1.145-3.609,4.074-10.6,6.689-14.307,1.945-2.766,5.4-3.674,4-.562-.086.346-1.459,3.609-1.967,5.749-.778,3.242-1.783,8.785-.357,12.1,1.7,3.944,9.229,6.592,10.622,5.1C109.7,114.51,109.681,113.094,108.535,112.5Z" transform="translate(3.307 4.98)" fill="#003e7e"/>
  </g>
</svg>
