<?xml version="1.0" encoding="UTF-8"?><svg id="Layer_2" xmlns="http://www.w3.org/2000/svg" viewBox="0 0 95.19 27.2"><defs><style>.cls-1,.cls-2{fill:#002d5c;}.cls-3{fill:#231f20;}.cls-3,.cls-2{fill-rule:evenodd;}.cls-4{fill:#ec1c24;}.cls-5{fill:#12bcca;}.cls-6{fill:#fbae17;}</style></defs><g id="Layer_1-2"><path class="cls-3" d="m63.52,14.69c0,.34-.05.65-.15.96-.1.3-.27.55-.5.74-.23.19-.53.29-.91.3-.51-.01-.9-.2-1.17-.57-.27-.37-.41-.84-.42-1.42,0-.61.13-1.1.4-1.45s.66-.54,1.19-.55c.34,0,.63.1.86.29.23.19.41.43.53.74.12.3.18.63.18.98Zm-4.36,5.73h1.25v-3.64c.23.31.5.54.85.68.34.14.7.21,1.07.21.56,0,1.02-.15,1.38-.43.36-.28.63-.64.8-1.09.17-.45.26-.93.26-1.44,0-.56-.1-1.06-.29-1.52-.19-.45-.49-.81-.88-1.08-.39-.27-.89-.41-1.48-.41-.37,0-.71.07-1.02.22-.31.15-.56.38-.74.7l-.02-.77h-1.18v8.57Zm6.02-2.91h1.25v-2.69c.01-.63.16-1.11.45-1.44.29-.33.65-.5,1.09-.5.09,0,.18,0,.27.02l.27.04v-1.2l-.17-.02c-.06,0-.16-.01-.3-.01-.4.01-.75.15-1.06.4-.31.25-.51.53-.59.85l-.02-1.09h-1.17v5.66Zm5.96-.83c-.37,0-.68-.11-.91-.3-.24-.19-.41-.44-.53-.75-.11-.3-.17-.62-.17-.96,0-.33.06-.65.17-.95.11-.3.29-.55.53-.74.24-.19.54-.29.91-.3.37,0,.68.11.91.3.24.19.41.44.53.74.11.3.17.62.17.95,0,.34-.06.65-.17.96-.11.3-.29.55-.53.75s-.54.29-.91.3Zm0,.98c.91-.02,1.62-.3,2.11-.84.49-.55.74-1.26.75-2.15,0-.88-.25-1.59-.75-2.14-.49-.54-1.2-.82-2.11-.84-.91.02-1.62.3-2.11.84-.49.54-.74,1.26-.75,2.14,0,.89.25,1.6.75,2.15.49.54,1.2.83,2.11.84Zm2.62-4.88h.93v4.73h1.25v-4.73h1.06v-.93h-1.06v-.58c0-.23.06-.39.18-.47.11-.08.26-.12.43-.12.12,0,.23,0,.32.02.09.01.18.03.26.05v-.97c-.1-.03-.22-.05-.36-.06s-.32-.02-.51-.02c-.27,0-.53.03-.77.12-.24.08-.43.25-.57.49-.15.24-.22.6-.23,1.08v.47h-.93v.93Zm8.45,2.22c.07-.57,0-1.11-.2-1.61s-.51-.9-.94-1.22c-.42-.31-.93-.47-1.53-.48-.56,0-1.05.15-1.46.42-.41.27-.72.63-.94,1.08-.22.45-.33.95-.33,1.49,0,.89.24,1.6.72,2.14.47.54,1.16.82,2.05.84.63,0,1.18-.17,1.64-.5.46-.33.77-.81.92-1.43h-1.18c-.11.31-.27.55-.5.71-.23.16-.52.24-.88.24-.52-.01-.9-.18-1.15-.51-.25-.32-.37-.71-.37-1.17h4.16Zm-4.16-.82c.02-.43.17-.79.43-1.07.27-.28.62-.42,1.06-.44.43.01.76.17,1.01.45.25.29.39.64.41,1.05h-2.91Zm5.12,3c-.45-.32-.69-.8-.73-1.44h1.25c.05.33.18.58.41.72.24.15.52.23.87.22.16,0,.35-.01.54-.05s.37-.11.51-.21c.14-.11.21-.27.21-.48-.02-.21-.11-.38-.29-.49s-.41-.2-.68-.26c-.28-.06-.57-.13-.88-.19-.48-.08-.9-.24-1.25-.48-.36-.24-.55-.63-.56-1.2.01-.41.14-.73.38-.97.25-.24.55-.41.91-.5.36-.1.72-.15,1.07-.15.6,0,1.12.13,1.56.4s.71.72.8,1.34h-1.3c-.06-.29-.2-.49-.41-.6-.21-.11-.46-.16-.74-.16-.13,0-.27.01-.43.04s-.3.09-.42.17c-.12.08-.18.21-.19.37,0,.2.1.35.27.46s.4.19.68.26c.28.06.57.13.89.19.31.07.6.16.88.27.28.12.5.28.68.5.18.22.27.51.27.88,0,.45-.14.81-.39,1.08-.25.27-.57.47-.96.59-.38.12-.78.18-1.18.18-.73,0-1.32-.16-1.78-.49Zm4.68-6.23h1.25v-1.18h-1.25v1.18Zm0,6.56h1.25v-5.66h-1.25v5.66Zm5.49-1.9v-.93c-.2.12-.43.19-.71.23-.27.03-.55.07-.83.11-.28.04-.51.12-.71.26-.2.14-.3.36-.31.69,0,.19.07.33.2.44.13.11.28.18.46.22.18.04.34.06.49.06.19,0,.39-.03.61-.1s.4-.18.55-.34c.15-.16.23-.37.24-.63Zm1.25-2.27v2.91c0,.15.02.26.06.33.04.07.12.1.23.1h.13c.05,0,.11-.01.17-.02v.86c-.1.03-.23.07-.39.1-.16.03-.29.04-.4.05-.25,0-.46-.05-.63-.15-.17-.1-.28-.28-.33-.54-.26.24-.56.41-.92.52-.35.11-.7.17-1.05.16-.53,0-.98-.14-1.35-.41s-.57-.69-.59-1.24c0-.46.12-.82.33-1.06.21-.24.48-.41.82-.51s.67-.16,1.03-.2c.3-.05.58-.09.84-.12.26-.03.46-.09.62-.19.16-.09.24-.26.24-.5-.02-.31-.15-.52-.4-.63-.25-.1-.51-.15-.78-.14-.36,0-.64.07-.87.22-.19.12-.31.3-.36.54h-1.26c.05-.41.19-.75.41-.99.25-.28.56-.47.94-.58.38-.11.78-.17,1.2-.16.38,0,.74.05,1.08.16.34.11.62.28.84.52.22.24.33.56.34.96Z"/><path class="cls-6" d="m67.5,9.76c.63-1.85,1.78-3.55,3.44-4.83,4.27-3.3,10.33-2.76,14.1.83l.47-1.42.73,5.18c-1.79-3.31-5.29-5.55-9.31-5.55-4.12,0-7.69,2.36-9.44,5.8Z"/><path class="cls-4" d="m86.47,19.33c-.63,1.85-1.78,3.55-3.45,4.83-4.27,3.3-10.33,2.76-14.1-.83l-.47,1.42-.73-5.18c1.79,3.3,5.29,5.55,9.31,5.55,4.12,0,7.69-2.36,9.44-5.8Z"/><path class="cls-5" d="m1.75,25.77c-.95.16-2.9,1.07-.84,1.4,2.05.32,23.67-1.86,33.55-.76,1.56.17,1.24-.41-.3-.57-2.84-.59-28.72-.8-32.4-.07Z"/><path class="cls-2" d="m12.49,1.38c-2.35-1.68-7.32,10.56-5.64,16.36.95-1.11,3.77-5.42,4.44-6.86,2.28-4.95,2.11-8.85,1.2-9.5Zm-5.64,16.36s0,0,0,0h0s0,0,0,0Zm5.32,2.83c.1-.06.17-.11.2-.12.37-.18.91.41.55.82-.07.06-.15.1-.23.13-1.21.42-5.13,1.32-6.53-1.86-.43.4-.9.76-1.4,1.08-3.39,2.35-3.48,1.27-3.48,1.23-.05-.24,0-.49.14-.7s.36-.34.61-.38c0,0,1.84-.31,3.72-2.15-.44-1.69-.89-5.16-.46-8.09C6.2,4.41,8.57,1.06,10.83.2c2.22-.72,2.78.6,2.98,1.69.49,2.63-.15,8.04-6.78,16.67.31,1.11.55,1.88,1.44,2.39,1.58.93,3.13-.03,3.69-.38Z"/><path class="cls-1" d="m30.44,16.36c-1.78,2.76-4.18,3.56-4.18,3.56,0,0-3.65,1.51-4.78.07-1.13-1.44.36-3.89.63-4.33.27-.44,1.33-1.53,1.33-.8,0,.67-.27,1.93.49,1.58.24-.16.43-.39.55-.67.27-.62.54-1.66-.42-2.26-1.42-.9-2.95.99-3.37,2.37-.3,1.02-.85,2.89.14,4.07,2.36,2.72,6.92,1.55,10.08-1.05,2.42-2.12,1.3-5.3-.48-2.54Z"/><path class="cls-1" d="m19.43,20.74c-.56-.23-.92-.79-.92-1.4.02-1.85.85-3.5,1.05-3.92.2-.43-.65-1.06-1.64-.82-1,.24-1.74,1.49-1.92,1.71s-.44.31-.28-.24c.03-.12.06-.23.11-.35.06-.15.05-.33-.03-.47-.15-.24-1.27-.43-1.92-.05-.82.48-1.4,1.81-1.5,1.27,0-.11-.04-.22-.09-.33-.1-.15-.53-.24-.94-.04s-.65.77-.77.98c-.03.05-.07.13-.11.2-.09.15-.15.28-.27.51-.12.23-.55,1.06-.64,1.25-.1.19-.07.42.06.59.1.14.47.34.63.04.07-.12.14-.25.19-.38v.03-.04c.11-.24.21-.52.33-.76.11-.28.25-.55.39-.82.14-.24.51-.4.43.08-.04.26-.2.76-.29,1.08-.05.18.32.6.58-.07.26-.75.69-1.44,1.24-2.01.19-.17.65-.31.55.13-.14.97-.1,1.96.09,2.93.2,1,1.02,1.14,1.45-.24.26-.81.91-2.39,1.5-3.23.44-.62,1.21-.83.9-.13-.02.08-.33.81-.44,1.29-.17.73-.4,1.98-.08,2.73.38.89,2.07,1.49,2.38,1.15.21-.21.21-.54-.05-.67Z"/><path d="m46.3,10.94c.25.06.4.23.46.45.05.16.04.34.05.51.03.68.05,1.37.09,2.05.05.84.32,1.07,1.2,1.04.57-.02,1.14-.07,1.71-.08.16,0,.34.04.49.11.07.03.09.17.12.27,0,.03-.05.1-.09.12-.15.06-.31.14-.47.16-.79.1-1.58.18-2.37.29-.24.03-.41.21-.48.44-.07.21-.11.45-.11.67,0,.85-.07,1.7.13,2.55.02.08-.08.2-.16.27-.09.09-.39-.02-.44-.14-.06-.16-.14-.32-.16-.48-.04-.51-.06-1.02-.08-1.53-.02-.45-.04-.91-.07-1.36-.02-.23-.33-.55-.57-.57-.51-.05-1.02-.07-1.53-.1-.57-.03-1.14-.04-1.7-.09-.07,0-.15-.14-.2-.24-.07-.13-.02-.23.14-.24.22-.03.45-.06.67-.06.68,0,1.37,0,2.05,0,.23,0,.45-.02.68-.04.2-.02.43-.26.44-.45.05-.91-.03-1.82-.13-2.72-.02-.22.03-.44.07-.66.02-.12.14-.16.26-.14Z"/></g></svg>