<?xml version="1.0" encoding="UTF-8"?>
<svg id="Vrstva_1" data-name="Vrstva 1" xmlns="http://www.w3.org/2000/svg" viewBox="0 0 1314.39 448.45">
  <defs>
    <style>
      .cls-1 {
        fill: #1d1d1b;
      }

      .cls-2 {
        fill: #3883c4;
      }
    </style>
  </defs>
  <g>
    <path class="cls-1" d="m1052.61,397.23v-5.5h24.25v25.69c-7.33,6.71-16.99,10.29-26.92,9.97-29.24,0-37.82-22.71-37.82-39.15s8.58-39.51,37.82-39.51c9.27-.23,18.26,3.21,25.02,9.56l-3.8,4.26c-5.95-4.97-13.47-7.68-21.22-7.66-26.87,0-30.83,24.87-30.83,33.35s3.9,33.09,30.83,33.09c7.11.2,14.09-1.93,19.88-6.06v-18.03h-17.21Z"/>
    <path class="cls-1" d="m1120.12,377.03c-.98,0-2.62-.31-3.8-.31-6.89.25-13.29,3.64-17.37,9.2v40.59h-6.78v-54.87h3.6l1.64,8.02c4.93-5.57,11.99-8.79,19.42-8.89,1.51-.02,3.03.1,4.52.36l-1.23,5.91Z"/>
    <path class="cls-1" d="m1184.71,399.08c0,11.87-6.22,28.31-27.28,28.31s-27.33-16.44-27.33-28.31,6.27-28.31,27.33-28.31,27.28,16.8,27.28,28.31Zm-6.68,0c0-6.01-2.72-23.02-20.55-23.02s-20.55,17.01-20.55,23.02,2.62,23.02,20.55,23.02,20.55-17.11,20.55-23.02Z"/>
    <path class="cls-1" d="m1238.45,371.54h6.78v54.87h-3.6l-1.64-8.02c-4.93,5.57-11.99,8.79-19.42,8.89-19.99,0-22.71-14.59-22.71-27.44v-28.31h6.94v28.31c0,6.58-.46,21.58,16.34,21.58,6.87-.27,13.25-3.65,17.32-9.2v-40.69Z"/>
    <path class="cls-1" d="m1269.74,422.3v26.15h-6.83v-76.81h3.75l1.54,7.81c4.87-5.69,12.04-8.88,19.52-8.68,20.19,0,26.67,16.44,26.67,28.21s-6.37,28.31-27.33,28.31c-6.13.05-12.15-1.68-17.32-4.98Zm0-37.05v30.83c4.76,3.5,10.44,5.52,16.34,5.81,17.98,0,21.37-15.93,21.37-22.92,0-6.06-2.52-22.15-20.55-22.15-6.7.08-13.01,3.17-17.16,8.43Z"/>
    <path class="cls-1" d="m866.36,387c5.9-3.09,9.57-9.22,9.51-15.88,0-13.2-8.73-21.63-23.79-21.63h-30.83v77.07h32.32c13.77,0,23.64-7.81,23.64-22.2.36-7.48-3.96-14.4-10.84-17.37Zm-30.16-24.1h14.69c4.9-.65,9.39,2.8,10.03,7.69.65,4.89-2.8,9.39-7.69,10.03-.78.1-1.57.1-2.34,0h-14.69v-17.73Zm15.41,50.2h-15.41v-18.91h15.41c5.22,0,9.45,4.23,9.45,9.45s-4.23,9.45-9.45,9.45Z"/>
    <rect class="cls-1" x="895.75" y="415.47" width="14.39" height="11.46"/>
    <rect class="cls-1" x="895.85" y="349.49" width="14.08" height="56.36"/>
    <path class="cls-1" d="m980.11,415.26c5.14-7.14,4.78-15.41,4.78-27.23,0-13.31,0-22.92-7.71-30.83-11.6-11.24-30.02-11.24-41.62,0-7.81,7.81-7.6,17.42-7.6,30.83s0,22.92,7.6,30.83c9.83,9.41,24.71,11.13,36.43,4.21l6.83,6.83,7.91-7.91-6.63-6.73Zm-11.66-11.66l-5.75-5.75-8.02,7.91,6.78,6.37c-1.54.96-3.33,1.45-5.14,1.39-3.69.08-7.24-1.41-9.76-4.11-2.88-3.24-3.65-6.83-3.65-21.63s.77-18.39,3.65-21.63c2.5-2.74,6.06-4.25,9.76-4.16,3.66-.1,7.18,1.42,9.61,4.16,2.93,3.24,3.8,6.78,3.8,21.63.39,5.22-.04,10.48-1.28,15.57v.26Z"/>
  </g>
  <g>
    <polygon class="cls-2" points="331.15 0 447.01 115.87 339.46 223.51 447.01 331.15 331.15 447.01 107.82 223.51 331.15 0"/>
    <polygon class="cls-1" points="115.87 0 0 115.87 107.55 223.51 0 331.15 115.87 447.01 339.19 223.51 115.87 0"/>
  </g>
  <path class="cls-1" d="m578.03,181.67c-10.16-.03-19.75,4.72-25.87,12.83v-10.62h-22.09v115.96h22.09v-42.76c6.09,8.15,15.7,12.91,25.87,12.83,21.38,0,37.2-16.11,37.2-44.12s-15.68-44.12-37.2-44.12Zm-7.13,68.49c-7.39-.27-14.29-3.76-18.89-9.55v-29.58c4.53-5.87,11.47-9.38,18.89-9.55,12.69,0,21.38,9.91,21.38,24.3s-8.55,24.52-21.24,24.52l-.14-.14Zm116.6-66.42h22.09v84.1h-22.09v-10.62c-7.47,8.19-18.07,12.8-29.15,12.69-18.46,0-27.15-10.05-27.15-26.37v-59.65h22.09v50.96c-1.15,7.39,3.9,14.31,11.29,15.47,1.38.22,2.79.22,4.17,0,7.49-.11,14.52-3.62,19.1-9.55l-.36-57.02Zm90.16,40.7l30.36,43.4h-24.73l-19.1-28.51-19.31,28.51h-24.73l29.72-43.4-28.01-40.84h24.66l17.39,26.58,17.25-25.94h24.66l-28.15,40.2Zm95.29-30.08c-6.12-8.11-15.71-12.86-25.87-12.83-21.38,0-37.2,16.68-37.2,44.12s15.96,43.97,37.2,43.97c10.15,0,19.73-4.75,25.87-12.83v10.76h22.24v-115.6h-22.24v42.41Zm0,46.11c-4.52,6-11.59,9.54-19.1,9.55-12.54,0-21.38-9.91-21.38-24.37s8.62-24.45,21.38-24.45c7.51.01,14.58,3.55,19.1,9.55v29.72Zm81.25-58.8c-23.61-.4-43.08,18.41-43.49,42.03-.01.65,0,1.3.01,1.95-.78,23.6,17.73,43.37,41.33,44.14,1.16.04,2.33.03,3.5-.03,12.56.38,24.85-3.74,34.64-11.62l-9.76-14.25c-6.3,5.49-14.38,8.5-22.74,8.48-11.94.94-22.54-7.59-24.16-19.46h62.43v-4.85c.29-27.51-16.89-46.4-41.76-46.4Zm-20.67,36.13c.8-10.74,9.91-18.94,20.67-18.6,10.68-.72,19.92,7.36,20.64,18.05.01.19.02.37.03.56h-41.34Zm144.04,25.02c0,15.32-13.04,26.94-36.28,26.94-13.69.36-27.04-4.28-37.56-13.04l9.55-15.47c8.08,7.04,18.3,11.16,29.01,11.69,9.55,0,14.25-3.28,14.25-8.48s-7.13-7.98-16.89-9.91c-14.25-2.78-33-6.27-33-26.23,0-14.25,12.33-26.44,34.42-26.44,12.27-.18,24.22,3.87,33.85,11.47l-8.84,15.11c-6.72-6.33-15.64-9.81-24.87-9.69-7.98,0-13.19,2.92-13.19,7.77s6.63,7.13,15.96,9.05c14.33,2.71,33.57,6.56,33.57,27.37v-.14Zm14.97-59.08h21.95v84.1h-22.09l.14-84.1Zm24.16-25.52c0,7.28-5.9,13.19-13.19,13.19h0c-7.28,0-13.19-5.9-13.19-13.18,0-7.28,5.9-13.19,13.18-13.19h0c7.28,0,13.19,5.9,13.19,13.18,0,.05,0,.1,0,.14v-.14Zm76.19,36.42c-6.12-8.11-15.71-12.86-25.87-12.83-21.38,0-36.99,15.32-36.99,42.76s15.96,42.76,36.99,42.76c10.22-.12,19.8-5.03,25.87-13.26v8.55c0,16.53-12.47,21.38-23.09,21.38-10.08.72-19.95-3.19-26.8-10.62l-9.91,15.96c9.94,8.74,22.91,13.24,36.13,12.54,20.67,0,45.4-7.84,45.4-39.77v-78.4h-21.74v10.9Zm0,43.48c-4.5,5.91-11.46,9.43-18.89,9.55-11.49.38-21.11-8.62-21.5-20.1-.03-1,0-2,.11-2.99-1.27-11.42,6.97-21.71,18.39-22.98.99-.11,1.99-.15,2.99-.11,7.44.07,14.42,3.6,18.89,9.55v27.08Zm121.16-29.51v59.23h-22.09v-50.53c1.19-7.42-3.87-14.4-11.3-15.59-1.38-.22-2.79-.23-4.17-.02-7.58.07-14.67,3.75-19.1,9.91v56.45h-21.74v-84.17h22.09v10.98c7.32-8.36,17.89-13.17,29.01-13.19,18.46,0,27.3,10.55,27.3,26.94Z"/>
</svg>