<svg xmlns="http://www.w3.org/2000/svg" xmlns:xlink="http://www.w3.org/1999/xlink" width="584" height="108" viewBox="0 0 584 108">
  <defs>
    <clipPath id="clip-superkoders">
      <rect width="584" height="108"/>
    </clipPath>
  </defs>
  <g id="superkoders" clip-path="url(#clip-superkoders)">
    <g id="Group_467" data-name="Group 467" transform="translate(-248.708 -452.613)">
      <path id="Path_103" data-name="Path 103" d="M57.572,325.471a1.783,1.783,0,0,1-.755-1.507A1.92,1.92,0,0,1,58.729,322a1.754,1.754,0,0,1,1.206.453,16.014,16.014,0,0,0,11.111,4.171c4.727,0,7.844-2.514,7.844-5.981v-.1c0-3.267-1.76-5.129-9.15-6.688-8.1-1.76-11.817-4.375-11.817-10.155v-.1c0-5.53,4.877-9.6,11.565-9.6a17.942,17.942,0,0,1,11.212,3.47,2.04,2.04,0,0,1,.855,1.607,1.909,1.909,0,0,1-1.911,1.912,1.856,1.856,0,0,1-1.157-.352,14.721,14.721,0,0,0-9.1-3.067c-4.575,0-7.491,2.514-7.491,5.682v.1c0,3.318,1.81,5.178,9.553,6.837,7.844,1.71,11.466,4.576,11.466,9.955v.1c0,6.035-5.028,9.957-12.019,9.957a20.559,20.559,0,0,1-13.323-4.728" transform="translate(258.298 194.515)"/>
      <path id="Path_104" data-name="Path 104" d="M92.772,314.936v-18.7a1.986,1.986,0,1,1,3.972,0v18.453c0,7.593,4.073,11.867,10.761,11.867,6.485,0,10.609-3.922,10.609-11.615v-18.7a1.986,1.986,0,1,1,3.972,0v18.4c0,10.258-5.883,15.588-14.683,15.588-8.7,0-14.631-5.33-14.631-15.286" transform="translate(262.52 194.541)"/>
      <path id="Path_105" data-name="Path 105" d="M133.271,296.457a2.008,2.008,0,0,1,1.962-2.011h11.212c7.945,0,13.173,4.224,13.173,11.163v.1c0,7.592-6.335,11.514-13.827,11.514h-8.548v10.659a1.986,1.986,0,1,1-3.972,0ZM145.942,313.6c5.833,0,9.654-3.118,9.654-7.744v-.1c0-5.027-3.771-7.642-9.453-7.642h-8.9V313.6Z" transform="translate(267.273 194.568)"/>
      <path id="Path_106" data-name="Path 106" d="M169.182,327.632V296.457a2.008,2.008,0,0,1,1.96-2.011h21.873a1.811,1.811,0,0,1,0,3.621H173.153v12.017h17.6a1.834,1.834,0,0,1,1.809,1.809,1.8,1.8,0,0,1-1.809,1.81h-17.6v12.319h20.113a1.81,1.81,0,0,1,0,3.62H171.142a2.007,2.007,0,0,1-1.96-2.011" transform="translate(271.49 194.568)"/>
      <path id="Path_107" data-name="Path 107" d="M205.182,296.457a2.008,2.008,0,0,1,1.961-2.011h13.173c4.324,0,7.794,1.307,10.006,3.52a9.722,9.722,0,0,1,2.715,6.939v.1c0,5.783-3.922,9.15-9.4,10.207l8.749,11.262a2.157,2.157,0,0,1,.654,1.457,2.077,2.077,0,0,1-2.011,1.961,2.314,2.314,0,0,1-1.86-1.055l-9.906-12.872H209.154v11.916a1.986,1.986,0,1,1-3.972,0ZM219.964,312.4c5.28,0,9.051-2.715,9.051-7.24v-.1c0-4.324-3.319-6.939-9-6.939h-10.86V312.4Z" transform="translate(275.716 194.568)"/>
      <path id="Path_108" data-name="Path 108" d="M243.566,296.232a1.986,1.986,0,1,1,3.972,0V315.49L267.6,294.925a2.256,2.256,0,0,1,1.559-.7,1.987,1.987,0,0,1,1.911,1.961,1.95,1.95,0,0,1-.654,1.408l-12.469,12.368,13.374,16.492a2.193,2.193,0,0,1,.553,1.458,2.051,2.051,0,0,1-2.011,2.011,1.9,1.9,0,0,1-1.608-.905l-13.124-16.341-7.593,7.592v7.643a1.986,1.986,0,1,1-3.972,0Z" transform="translate(280.223 194.541)"/>
      <path id="Path_109" data-name="Path 109" d="M278.126,312.209v-.1c0-9.7,7.291-18.2,18-18.2s17.9,8.4,17.9,18.1v.1c0,9.7-7.29,18.2-18,18.2s-17.9-8.4-17.9-18.1m31.778,0v-.1c0-8-5.834-14.531-13.878-14.531s-13.778,6.436-13.778,14.429v.1c0,7.994,5.834,14.531,13.878,14.531S309.9,320.2,309.9,312.209" transform="translate(284.279 194.504)"/>
      <path id="Path_110" data-name="Path 110" d="M323.619,296.457a2.008,2.008,0,0,1,1.962-2.01h10.258c11.061,0,18.7,7.593,18.7,17.5v.1c0,9.9-7.643,17.6-18.7,17.6H325.581a2.008,2.008,0,0,1-1.962-2.011Zm12.22,29.515c8.9,0,14.581-6.033,14.581-13.827v-.1c0-7.793-5.681-13.927-14.581-13.927h-8.246v27.855Z" transform="translate(289.62 194.568)"/>
      <path id="Path_111" data-name="Path 111" d="M364.66,327.632V296.457a2.008,2.008,0,0,1,1.961-2.011h21.872a1.811,1.811,0,0,1,0,3.621H368.632v12.017h17.6a1.835,1.835,0,0,1,1.809,1.809,1.8,1.8,0,0,1-1.809,1.81h-17.6v12.319h20.112a1.81,1.81,0,1,1,0,3.62H366.621a2.007,2.007,0,0,1-1.961-2.011" transform="translate(294.438 194.568)"/>
      <path id="Path_112" data-name="Path 112" d="M400.66,296.457a2.008,2.008,0,0,1,1.961-2.011H415.8c4.324,0,7.794,1.307,10.006,3.52a9.721,9.721,0,0,1,2.714,6.939v.1c0,5.783-3.922,9.15-9.4,10.207l8.749,11.262a2.157,2.157,0,0,1,.654,1.457,2.076,2.076,0,0,1-2.011,1.961,2.315,2.315,0,0,1-1.86-1.055l-9.9-12.872H404.632v11.916a1.986,1.986,0,1,1-3.972,0ZM415.442,312.4c5.281,0,9.052-2.715,9.052-7.24v-.1c0-4.324-3.319-6.939-9-6.939H404.632V312.4Z" transform="translate(298.665 194.568)"/>
      <path id="Path_113" data-name="Path 113" d="M438,325.471a1.786,1.786,0,0,1-.755-1.507,1.921,1.921,0,0,1,1.912-1.96,1.757,1.757,0,0,1,1.207.453,16.012,16.012,0,0,0,11.111,4.171c4.727,0,7.844-2.514,7.844-5.981v-.1c0-3.267-1.76-5.129-9.151-6.688-8.094-1.76-11.816-4.375-11.816-10.155v-.1c0-5.53,4.879-9.6,11.565-9.6a17.945,17.945,0,0,1,11.213,3.47,2.04,2.04,0,0,1,.855,1.607,1.909,1.909,0,0,1-1.911,1.912,1.858,1.858,0,0,1-1.156-.352,14.721,14.721,0,0,0-9.1-3.067c-4.576,0-7.492,2.514-7.492,5.682v.1c0,3.318,1.811,5.178,9.555,6.837,7.843,1.71,11.463,4.576,11.463,9.955v.1c0,6.035-5.027,9.957-12.018,9.957A20.564,20.564,0,0,1,438,325.471" transform="translate(302.96 194.515)"/>
      <path id="Path_114" data-name="Path 114" d="M498.512,309.894l-22.618-8.445a1.741,1.741,0,0,0-2.208,1.019l-.038.115A1.729,1.729,0,0,0,474.7,304.7l18.285,6.818-18.29,6.822a1.721,1.721,0,0,0,.6,3.335v-.283l0,.283a1.718,1.718,0,0,0,.625-.123l22.623-8.448a1.748,1.748,0,0,0,1.1-1.615,1.66,1.66,0,0,0-1.145-1.595" transform="translate(307.226 195.378)"/>
      <path id="Path_115" data-name="Path 115" d="M46.42,303.8a1.727,1.727,0,0,0,.05-1.338,1.747,1.747,0,0,0-2.219-1.015l-22.578,8.431a1.67,1.67,0,0,0-1.174,1.61,1.754,1.754,0,0,0,1.115,1.615L44.2,321.543a1.706,1.706,0,0,0,.641.128l0-.559h0l0,.559a1.737,1.737,0,0,0,1.619-1.116,1.726,1.726,0,0,0-1.022-2.221l-18.281-6.819L45.446,304.7a1.713,1.713,0,0,0,.974-.893" transform="translate(254.034 195.378)"/>
    </g>
  </g>
</svg>
